Cormorant-Light Italic.ufo
<glyph name="numbersign" format="1">
  <advance width="433"/>
  <unicode hex="0023"/>
  <outline>
    <contour>
      <point x="249" y="473" type="line" smooth="yes"/>
      <point x="251" y="478"/>
      <point x="223" y="488"/>
      <point x="222" y="482" type="curve" smooth="yes"/>
      <point x="36" y="-75" type="line" smooth="yes"/>
      <point x="34" y="-80"/>
      <point x="62" y="-88"/>
      <point x="63" y="-82" type="curve" smooth="yes"/>
    </contour>
    <contour>
      <point x="339" y="77" type="line" smooth="yes"/>
      <point x="344" y="77"/>
      <point x="345" y="115"/>
      <point x="340" y="115" type="curve" smooth="yes"/>
      <point x="28" y="115" type="line" smooth="yes"/>
      <point x="23" y="115"/>
      <point x="23" y="77"/>
      <point x="28" y="77" type="curve" smooth="yes"/>
    </contour>
    <contour>
      <point x="400" y="473" type="line" smooth="yes"/>
      <point x="402" y="478"/>
      <point x="374" y="488"/>
      <point x="373" y="482" type="curve" smooth="yes"/>
      <point x="187" y="-75" type="line" smooth="yes"/>
      <point x="185" y="-80"/>
      <point x="213" y="-88"/>
      <point x="214" y="-82" type="curve" smooth="yes"/>
    </contour>
    <contour>
      <point x="406" y="276" type="line" smooth="yes"/>
      <point x="411" y="276"/>
      <point x="412" y="313"/>
      <point x="407" y="313" type="curve" smooth="yes"/>
      <point x="95" y="313" type="line" smooth="yes"/>
      <point x="90" y="313"/>
      <point x="90" y="276"/>
      <point x="95" y="276" type="curve" smooth="yes"/>
    </contour>
  </outline>
</glyph>
<glyph name="dollar" format="1">
  <advance width="367"/>
  <unicode hex="0024"/>
  <outline>
    <contour>
      <point x="123" y="-110"/>
      <point x="140" y="-112"/>
      <point x="142" y="-103" type="curve" smooth="yes"/>
      <point x="258" y="560" type="line" smooth="yes"/>
      <point x="261" y="570"/>
      <point x="243" y="572"/>
      <point x="241" y="563" type="curve" smooth="yes"/>
      <point x="124" y="-101" type="line" smooth="yes"/>
    </contour>
    <contour>
      <point x="144" y="430"/>
      <point x="177" y="467"/>
      <point x="225" y="467" type="curve" smooth="yes"/>
      <point x="282" y="467"/>
      <point x="316" y="409"/>
      <point x="315" y="357" type="curve" smooth="yes"/>
      <point x="315" y="350"/>
      <point x="324" y="349"/>
      <point x="325" y="354" type="curve" smooth="yes"/>
      <point x="332" y="440" type="line" smooth="yes"/>
      <point x="333" y="449"/>
      <point x="331" y="450"/>
      <point x="320" y="456" type="curve" smooth="yes"/>
      <point x="291" y="474"/>
      <point x="264" y="480"/>
      <point x="241" y="480" type="curve" smooth="yes"/>
      <point x="173" y="480"/>
      <point x="104" y="440"/>
      <point x="90" y="364" type="curve" smooth="yes"/>
      <point x="77" y="290"/>
      <point x="125" y="258"/>
      <point x="174" y="226" type="curve" smooth="yes"/>
      <point x="221" y="194"/>
      <point x="269" y="161"/>
      <point x="256" y="94" type="curve" smooth="yes"/>
      <point x="244" y="25"/>
      <point x="194" y="2"/>
      <point x="156" y="2" type="curve" smooth="yes"/>
      <point x="95" y="2"/>
      <point x="49" y="60"/>
      <point x="50" y="136" type="curve" smooth="yes"/>
      <point x="50" y="143"/>
      <point x="40" y="143"/>
      <point x="40" y="137" type="curve" smooth="yes"/>
      <point x="34" y="42" type="line" smooth="yes"/>
      <point x="33" y="33"/>
      <point x="33" y="27"/>
      <point x="40" y="23" type="curve" smooth="yes"/>
      <point x="68" y="-2"/>
      <point x="99" y="-12"/>
      <point x="135" y="-12" type="curve" smooth="yes"/>
      <point x="228" y="-12"/>
      <point x="292" y="47"/>
      <point x="305" y="117" type="curve" smooth="yes"/>
      <point x="318" y="192"/>
      <point x="267" y="225"/>
      <point x="218" y="256" type="curve" smooth="yes"/>
      <point x="171" y="287"/>
      <point x="124" y="317"/>
      <point x="135" y="380" type="curve" smooth="yes"/>
    </contour>
    <contour>
      <point x="223" y="468" type="move" name="top"/>
    </contour>
    <contour>
      <point x="139" y="0" type="move" name="bottom"/>
    </contour>
  </outline>
</glyph>
<glyph name="percent" format="1">
  <advance width="517"/>
  <unicode hex="0025"/>
  <outline>
    <contour>
      <point x="489" y="538" type="line" smooth="yes"/>
      <point x="492" y="542"/>
      <point x="475" y="554"/>
      <point x="471" y="550" type="curve" smooth="yes"/>
      <point x="42" y="6" type="line" smooth="yes"/>
      <point x="39" y="2"/>
      <point x="57" y="-8"/>
      <point x="60" y="-5" type="curve" smooth="yes"/>
    </contour>
    <contour>
      <point x="412" y="-5"/>
      <point x="465" y="51"/>
      <point x="478" y="123" type="curve" smooth="yes"/>
      <point x="491" y="194"/>
      <point x="457" y="253"/>
      <point x="394" y="253" type="curve" smooth="yes"/>
      <point x="331" y="253"/>
      <point x="276" y="195"/>
      <point x="264" y="125" type="curve" smooth="yes"/>
      <point x="251" y="53"/>
      <point x="287" y="-5"/>
      <point x="350" y="-5" type="curve" smooth="yes"/>
    </contour>
    <contour>
      <point x="306" y="6"/>
      <point x="299" y="60"/>
      <point x="312" y="129" type="curve" smooth="yes"/>
      <point x="323" y="191"/>
      <point x="342" y="242"/>
      <point x="387" y="242" type="curve" smooth="yes"/>
      <point x="429" y="242"/>
      <point x="444" y="199"/>
      <point x="429" y="116" type="curve" smooth="yes"/>
      <point x="419" y="53"/>
      <point x="404" y="6"/>
      <point x="358" y="6" type="curve" smooth="yes"/>
    </contour>
    <contour>
      <point x="216" y="303"/>
      <point x="270" y="359"/>
      <point x="283" y="430" type="curve" smooth="yes"/>
      <point x="296" y="502"/>
      <point x="263" y="560"/>
      <point x="200" y="560" type="curve" smooth="yes"/>
      <point x="137" y="560"/>
      <point x="81" y="503"/>
      <point x="69" y="433" type="curve" smooth="yes"/>
      <point x="56" y="360"/>
      <point x="91" y="303"/>
      <point x="154" y="303" type="curve" smooth="yes"/>
    </contour>
    <contour>
      <point x="111" y="313"/>
      <point x="104" y="367"/>
      <point x="117" y="436" type="curve" smooth="yes"/>
      <point x="127" y="498"/>
      <point x="146" y="550"/>
      <point x="192" y="550" type="curve" smooth="yes"/>
      <point x="234" y="550"/>
      <point x="249" y="506"/>
      <point x="234" y="423" type="curve" smooth="yes"/>
      <point x="223" y="360"/>
      <point x="208" y="313"/>
      <point x="163" y="313" type="curve" smooth="yes"/>
    </contour>
  </outline>
</glyph>
<glyph name="ampersand" format="1">
  <advance width="747"/>
  <unicode hex="0026"/>
  <outline>
    <contour>
      <point x="456" y="-12"/>
      <point x="568" y="91"/>
      <point x="584" y="303" type="curve"/>
      <point x="568" y="309" type="line"/>
      <point x="559" y="117"/>
      <point x="467" y="22"/>
      <point x="338" y="22" type="curve" smooth="yes"/>
      <point x="212" y="22"/>
      <point x="95" y="145"/>
      <point x="126" y="310" type="curve" smooth="yes"/>
      <point x="143" y="381"/>
      <point x="191" y="439"/>
      <point x="246" y="439" type="curve" smooth="yes"/>
      <point x="274" y="439"/>
      <point x="312" y="429"/>
      <point x="335" y="386" type="curve"/>
      <point x="382" y="429" type="line"/>
      <point x="359" y="455"/>
      <point x="329" y="465"/>
      <point x="296" y="465" type="curve" smooth="yes"/>
      <point x="208" y="465"/>
      <point x="104" y="388"/>
      <point x="80" y="278" type="curve" smooth="yes"/>
      <point x="50" y="130"/>
      <point x="149" y="-12"/>
      <point x="306" y="-12" type="curve" smooth="yes"/>
    </contour>
    <contour>
      <point x="242" y="299"/>
      <point x="482" y="450"/>
      <point x="482" y="591" type="curve" smooth="yes"/>
      <point x="482" y="635"/>
      <point x="460" y="661"/>
      <point x="434" y="661" type="curve" smooth="yes"/>
      <point x="418" y="661"/>
      <point x="407" y="650"/>
      <point x="407" y="633" type="curve" smooth="yes"/>
      <point x="407" y="604"/>
      <point x="441" y="608"/>
      <point x="441" y="557" type="curve" smooth="yes"/>
      <point x="441" y="440"/>
      <point x="225" y="306"/>
      <point x="106" y="205" type="curve"/>
      <point x="115" y="196" type="line"/>
    </contour>
    <contour>
      <point x="411" y="234"/>
      <point x="416" y="246"/>
      <point x="416" y="256" type="curve" smooth="yes"/>
      <point x="416" y="274"/>
      <point x="402" y="289"/>
      <point x="402" y="309" type="curve" smooth="yes"/>
      <point x="402" y="320"/>
      <point x="413" y="330"/>
      <point x="433" y="330" type="curve" smooth="yes"/>
      <point x="499" y="330"/>
      <point x="588" y="250"/>
      <point x="654" y="250" type="curve" smooth="yes"/>
      <point x="705" y="250"/>
      <point x="747" y="298"/>
      <point x="747" y="346" type="curve" smooth="yes"/>
      <point x="747" y="370"/>
      <point x="737" y="375"/>
      <point x="724" y="375" type="curve" smooth="yes"/>
      <point x="709" y="375"/>
      <point x="701" y="368"/>
      <point x="701" y="354" type="curve" smooth="yes"/>
      <point x="701" y="333"/>
      <point x="720" y="322"/>
      <point x="720" y="303" type="curve" smooth="yes"/>
      <point x="720" y="294"/>
      <point x="709" y="285"/>
      <point x="691" y="285" type="curve" smooth="yes"/>
      <point x="632" y="285"/>
      <point x="546" y="361"/>
      <point x="478" y="361" type="curve" smooth="yes"/>
      <point x="423" y="361"/>
      <point x="370" y="315"/>
      <point x="370" y="264" type="curve" smooth="yes"/>
      <point x="370" y="241"/>
      <point x="381" y="234"/>
      <point x="394" y="234" type="curve" smooth="yes"/>
    </contour>
  </outline>
</glyph>
<glyph name="quotesingle" format="1">
  <advance width="127"/>
  <unicode hex="0027"/>
  <outline>
    <contour>
      <point x="63" y="303"/>
      <point x="71" y="304"/>
      <point x="73" y="308" type="curve" smooth="yes"/>
      <point x="179" y="637" type="line" smooth="yes"/>
      <point x="182" y="648"/>
      <point x="113" y="629"/>
      <point x="111" y="609" type="curve" smooth="yes"/>
      <point x="63" y="306" type="line" smooth="yes"/>
    </contour>
  </outline>
</glyph>
<glyph name="parenleft" format="1">
  <advance width="278"/>
  <unicode hex="0028"/>
  <outline>
    <contour>
      <point x="195" y="-119"/>
      <point x="201" y="-112"/>
      <point x="199" y="-109" type="curve" smooth="yes"/>
      <point x="122" y="-13"/>
      <point x="104" y="124"/>
      <point x="136" y="304" type="curve" smooth="yes"/>
      <point x="167" y="484"/>
      <point x="234" y="621"/>
      <point x="346" y="717" type="curve" smooth="yes"/>
      <point x="350" y="719"/>
      <point x="344" y="727"/>
      <point x="340" y="725" type="curve" smooth="yes"/>
      <point x="211" y="653"/>
      <point x="116" y="491"/>
      <point x="83" y="304" type="curve" smooth="yes"/>
      <point x="50" y="117"/>
      <point x="88" y="-44"/>
      <point x="192" y="-117" type="curve" smooth="yes"/>
    </contour>
    <contour>
      <point x="284" y="386" type="move" name="top"/>
    </contour>
  </outline>
</glyph>
<glyph name="asterisk" format="1">
  <advance width="448"/>
  <unicode hex="002A"/>
  <outline>
    <contour>
      <point x="254" y="485" type="line" smooth="yes"/>
      <point x="256" y="488"/>
      <point x="249" y="494"/>
      <point x="246" y="491" type="curve" smooth="yes"/>
      <point x="99" y="404" type="line" smooth="yes"/>
      <point x="90" y="398"/>
      <point x="159" y="371"/>
      <point x="171" y="387" type="curve" smooth="yes"/>
    </contour>
    <contour>
      <point x="313" y="304"/>
      <point x="360" y="361"/>
      <point x="350" y="378" type="curve" smooth="yes"/>
      <point x="281" y="488" type="line" smooth="yes"/>
      <point x="280" y="490"/>
      <point x="271" y="484"/>
      <point x="273" y="481" type="curve" smooth="yes"/>
      <point x="311" y="315" type="line" smooth="yes"/>
    </contour>
    <contour>
      <point x="247" y="510"/>
      <point x="250" y="518"/>
      <point x="247" y="520" type="curve" smooth="yes"/>
      <point x="118" y="633" type="line" smooth="yes"/>
      <point x="110" y="641"/>
      <point x="105" y="567"/>
      <point x="124" y="559" type="curve" smooth="yes"/>
      <point x="243" y="511" type="line" smooth="yes"/>
    </contour>
    <contour>
      <point x="473" y="487"/>
      <point x="433" y="549"/>
      <point x="414" y="544" type="curve" smooth="yes"/>
      <point x="288" y="513" type="line" smooth="yes"/>
      <point x="285" y="512"/>
      <point x="288" y="503"/>
      <point x="291" y="503" type="curve" smooth="yes"/>
      <point x="461" y="488" type="line" smooth="yes"/>
    </contour>
    <contour>
      <point x="265" y="525"/>
      <point x="275" y="525"/>
      <point x="276" y="529" type="curve" smooth="yes"/>
      <point x="343" y="685" type="line" smooth="yes"/>
      <point x="347" y="696"/>
      <point x="276" y="677"/>
      <point x="275" y="657" type="curve" smooth="yes"/>
      <point x="265" y="529" type="line" smooth="yes"/>
    </contour>
  </outline>
</glyph>
<glyph name="comma" format="1">
  <advance width="222"/>
  <unicode hex="002C"/>
  <outline>
    <contour>
      <point x="67" y="-131"/>
      <point x="109" y="-85"/>
      <point x="119" y="-21" type="curve" smooth="yes"/>
      <point x="128" y="35"/>
      <point x="105" y="63"/>
      <point x="70" y="63" type="curve" smooth="yes"/>
      <point x="42" y="63"/>
      <point x="26" y="50"/>
      <point x="26" y="27" type="curve" smooth="yes"/>
      <point x="26" y="6"/>
      <point x="39" y="-8"/>
      <point x="62" y="-8" type="curve" smooth="yes"/>
      <point x="82" y="-8"/>
      <point x="97" y="4"/>
      <point x="96" y="27" type="curve"/>
      <point x="69" y="20" type="line"/>
      <point x="80" y="14"/>
      <point x="86" y="-1"/>
      <point x="81" y="-34" type="curve" smooth="yes"/>
      <point x="74" y="-84"/>
      <point x="48" y="-127"/>
      <point x="1" y="-170" type="curve" smooth="yes"/>
      <point x="-4" y="-173"/>
      <point x="3" y="-183"/>
      <point x="8" y="-179" type="curve" smooth="yes"/>
    </contour>
  </outline>
</glyph>
<glyph name="hyphen" format="1">
  <advance width="305"/>
  <unicode hex="002D"/>
  <outline>
    <contour>
      <point x="280" y="215" type="line" smooth="yes"/>
      <point x="285" y="216"/>
      <point x="285" y="258"/>
      <point x="280" y="257" type="curve" smooth="yes"/>
      <point x="30" y="211" type="line" smooth="yes"/>
      <point x="26" y="209"/>
      <point x="26" y="167"/>
      <point x="32" y="168" type="curve" smooth="yes"/>
    </contour>
  </outline>
</glyph>
<glyph name="period" format="1">
  <advance width="195"/>
  <unicode hex="002E"/>
  <outline>
    <contour>
      <point x="90" y="-11"/>
      <point x="104" y="4"/>
      <point x="104" y="28" type="curve" smooth="yes"/>
      <point x="104" y="51"/>
      <point x="90" y="65"/>
      <point x="65" y="65" type="curve" smooth="yes"/>
      <point x="41" y="65"/>
      <point x="26" y="51"/>
      <point x="26" y="28" type="curve" smooth="yes"/>
      <point x="26" y="4"/>
      <point x="41" y="-11"/>
      <point x="65" y="-11" type="curve" smooth="yes"/>
    </contour>
  </outline>
</glyph>
<glyph name="slash" format="1">
  <advance width="305"/>
  <unicode hex="002F"/>
  <outline>
    <contour>
      <point x="374" y="718" type="line" smooth="yes"/>
      <point x="379" y="726"/>
      <point x="349" y="738"/>
      <point x="345" y="730" type="curve" smooth="yes"/>
      <point x="-39" y="-156" type="line" smooth="yes"/>
      <point x="-41" y="-161"/>
      <point x="-11" y="-173"/>
      <point x="-8" y="-166" type="curve" smooth="yes"/>
    </contour>
  </outline>
</glyph>
<glyph name="zero" format="1">
  <advance width="436"/>
  <unicode hex="0030"/>
  <outline>
    <contour>
      <point x="288" y="-13"/>
      <point x="380" y="73"/>
      <point x="401" y="193" type="curve" smooth="yes"/>
      <point x="423" y="313"/>
      <point x="361" y="399"/>
      <point x="256" y="399" type="curve" smooth="yes"/>
      <point x="150" y="399"/>
      <point x="56" y="315"/>
      <point x="35" y="196" type="curve" smooth="yes"/>
      <point x="14" y="74"/>
      <point x="77" y="-13"/>
      <point x="182" y="-13" type="curve" smooth="yes"/>
    </contour>
    <contour>
      <point x="109" y="-1"/>
      <point x="71" y="87"/>
      <point x="91" y="204" type="curve" smooth="yes"/>
      <point x="110" y="309"/>
      <point x="167" y="387"/>
      <point x="246" y="387" type="curve" smooth="yes"/>
      <point x="317" y="387"/>
      <point x="368" y="322"/>
      <point x="344" y="181" type="curve" smooth="yes"/>
      <point x="325" y="74"/>
      <point x="275" y="-1"/>
      <point x="195" y="-1" type="curve" smooth="yes"/>
    </contour>
    <contour>
      <point x="262" y="386" type="move" name="top"/>
    </contour>
  </outline>
</glyph>
<glyph name="one" format="1">
  <advance width="291"/>
  <unicode hex="0031"/>
  <outline>
    <contour>
      <point x="47" y="0"/>
      <point x="87" y="2"/>
      <point x="129" y="2" type="curve" smooth="yes"/>
      <point x="171" y="2"/>
      <point x="209" y="0"/>
      <point x="240" y="0" type="curve" smooth="yes"/>
      <point x="244" y="0"/>
      <point x="244" y="12"/>
      <point x="240" y="12" type="curve" smooth="yes"/>
      <point x="161" y="12"/>
      <point x="151" y="23"/>
      <point x="161" y="81" type="curve" smooth="yes"/>
      <point x="216" y="391" type="line" smooth="yes"/>
      <point x="218" y="394"/>
      <point x="213" y="398"/>
      <point x="209" y="395" type="curve" smooth="yes"/>
      <point x="67" y="325" type="line" smooth="yes"/>
      <point x="61" y="323"/>
      <point x="65" y="312"/>
      <point x="71" y="315" type="curve" smooth="yes"/>
      <point x="161" y="357"/>
      <point x="165" y="352"/>
      <point x="151" y="269" type="curve" smooth="yes"/>
      <point x="117" y="81" type="line" smooth="yes"/>
      <point x="106" y="23"/>
      <point x="90" y="12"/>
      <point x="16" y="12" type="curve" smooth="yes"/>
      <point x="11" y="12"/>
      <point x="11" y="0"/>
      <point x="16" y="0" type="curve" smooth="yes"/>
    </contour>
    <contour>
      <point x="298" y="662" type="move" name="top"/>
    </contour>
    <contour>
      <point x="81" y="0" type="move" name="bottom"/>
    </contour>
    <contour>
      <point x="288" y="386" type="move" name="topright"/>
    </contour>
  </outline>
</glyph>
<glyph name="two" format="1">
  <advance width="360"/>
  <unicode hex="0032"/>
  <outline>
    <contour>
      <point x="0" y="8"/>
      <point x="5" y="0"/>
      <point x="11" y="0" type="curve" smooth="yes"/>
      <point x="99" y="0"/>
      <point x="198" y="0"/>
      <point x="284" y="0" type="curve" smooth="yes"/>
      <point x="289" y="0"/>
      <point x="292" y="5"/>
      <point x="294" y="9" type="curve" smooth="yes"/>
      <point x="323" y="108" type="line" smooth="yes"/>
      <point x="324" y="113"/>
      <point x="313" y="116"/>
      <point x="311" y="111" type="curve" smooth="yes"/>
      <point x="287" y="44"/>
      <point x="265" y="41"/>
      <point x="77" y="41" type="curve" smooth="yes"/>
      <point x="73" y="41"/>
      <point x="70" y="43"/>
      <point x="75" y="46" type="curve" smooth="yes"/>
      <point x="240" y="168"/>
      <point x="299" y="229"/>
      <point x="312" y="296" type="curve" smooth="yes"/>
      <point x="324" y="358"/>
      <point x="291" y="399"/>
      <point x="232" y="399" type="curve" smooth="yes"/>
      <point x="191" y="399"/>
      <point x="157" y="380"/>
      <point x="138" y="380" type="curve" smooth="yes"/>
      <point x="130" y="380"/>
      <point x="123" y="385"/>
      <point x="130" y="406" type="curve" smooth="yes"/>
      <point x="131" y="411"/>
      <point x="122" y="413"/>
      <point x="120" y="409" type="curve" smooth="yes"/>
      <point x="63" y="262" type="line" smooth="yes"/>
      <point x="61" y="257"/>
      <point x="73" y="253"/>
      <point x="75" y="258" type="curve" smooth="yes"/>
      <point x="109" y="338"/>
      <point x="150" y="379"/>
      <point x="199" y="379" type="curve" smooth="yes"/>
      <point x="247" y="379"/>
      <point x="273" y="343"/>
      <point x="264" y="291" type="curve" smooth="yes"/>
      <point x="253" y="214"/>
      <point x="170" y="137"/>
      <point x="6" y="14" type="curve" smooth="yes"/>
    </contour>
  </outline>
</glyph>
<glyph name="three" format="1">
  <advance width="339"/>
  <unicode hex="0033"/>
  <outline>
    <contour>
      <point x="159" y="-222"/>
      <point x="258" y="-104"/>
      <point x="275" y="-12" type="curve" smooth="yes"/>
      <point x="288" y="61"/>
      <point x="256" y="131"/>
      <point x="163" y="131" type="curve"/>
      <point x="145" y="119" type="line"/>
      <point x="227" y="137"/>
      <point x="287" y="209"/>
      <point x="299" y="282" type="curve" smooth="yes"/>
      <point x="311" y="343"/>
      <point x="284" y="399"/>
      <point x="215" y="399" type="curve" smooth="yes"/>
      <point x="173" y="399"/>
      <point x="138" y="377"/>
      <point x="120" y="377" type="curve" smooth="yes"/>
      <point x="112" y="377"/>
      <point x="103" y="381"/>
      <point x="112" y="402" type="curve" smooth="yes"/>
      <point x="115" y="407"/>
      <point x="104" y="412"/>
      <point x="102" y="408" type="curve" smooth="yes"/>
      <point x="42" y="262" type="line" smooth="yes"/>
      <point x="41" y="258"/>
      <point x="51" y="253"/>
      <point x="54" y="257" type="curve" smooth="yes"/>
      <point x="89" y="343"/>
      <point x="131" y="379"/>
      <point x="184" y="379" type="curve" smooth="yes"/>
      <point x="242" y="379"/>
      <point x="260" y="335"/>
      <point x="248" y="271" type="curve" smooth="yes"/>
      <point x="234" y="191"/>
      <point x="192" y="143"/>
      <point x="88" y="116" type="curve" smooth="yes"/>
      <point x="84" y="115"/>
      <point x="88" y="101"/>
      <point x="92" y="102" type="curve" smooth="yes"/>
      <point x="109" y="106"/>
      <point x="124" y="109"/>
      <point x="138" y="109" type="curve" smooth="yes"/>
      <point x="215" y="109"/>
      <point x="228" y="44"/>
      <point x="218" y="-15" type="curve" smooth="yes"/>
      <point x="204" y="-97"/>
      <point x="140" y="-212"/>
      <point x="-33" y="-264" type="curve" smooth="yes"/>
      <point x="-36" y="-265"/>
      <point x="-33" y="-277"/>
      <point x="-28" y="-276" type="curve" smooth="yes"/>
    </contour>
  </outline>
</glyph>
<glyph name="four" format="1">
  <advance width="421"/>
  <unicode hex="0034"/>
  <outline>
    <contour>
      <point x="235" y="-172" type="line" smooth="yes"/>
      <point x="240" y="-170"/>
      <point x="243" y="-165"/>
      <point x="244" y="-158" type="curve" smooth="yes"/>
      <point x="342" y="392" type="line" smooth="yes"/>
      <point x="343" y="398"/>
      <point x="332" y="400"/>
      <point x="329" y="396" type="curve" smooth="yes"/>
      <point x="-16" y="20" type="line" smooth="yes"/>
      <point x="-22" y="14"/>
      <point x="-18" y="8"/>
      <point x="-13" y="8" type="curve" smooth="yes"/>
      <point x="161" y="8"/>
      <point x="256" y="7"/>
      <point x="352" y="1" type="curve" smooth="yes"/>
      <point x="358" y="1"/>
      <point x="365" y="43"/>
      <point x="360" y="43" type="curve" smooth="yes"/>
      <point x="256" y="40"/>
      <point x="173" y="37"/>
      <point x="34" y="37" type="curve" smooth="yes"/>
      <point x="28" y="37"/>
      <point x="27" y="40"/>
      <point x="30" y="44" type="curve" smooth="yes"/>
      <point x="305" y="338" type="line"/>
      <point x="285" y="325" type="line"/>
      <point x="195" y="-182" type="line" smooth="yes"/>
      <point x="194" y="-191"/>
      <point x="196" y="-192"/>
      <point x="204" y="-188" type="curve" smooth="yes"/>
    </contour>
  </outline>
</glyph>
<glyph name="five" format="1">
  <advance width="374"/>
  <unicode hex="0035"/>
  <outline>
    <contour>
      <point x="172" y="-182"/>
      <point x="261" y="-104"/>
      <point x="282" y="9" type="curve" smooth="yes"/>
      <point x="301" y="119"/>
      <point x="243" y="196"/>
      <point x="69" y="196" type="curve"/>
      <point x="64" y="172" type="line"/>
      <point x="113" y="320" type="line" smooth="yes"/>
      <point x="117" y="330"/>
      <point x="122" y="335"/>
      <point x="130" y="335" type="curve" smooth="yes"/>
      <point x="301" y="339" type="line" smooth="yes"/>
      <point x="315" y="339"/>
      <point x="322" y="340"/>
      <point x="330" y="357" type="curve" smooth="yes"/>
      <point x="359" y="419" type="line" smooth="yes"/>
      <point x="361" y="423"/>
      <point x="351" y="427"/>
      <point x="349" y="423" type="curve" smooth="yes"/>
      <point x="336" y="396"/>
      <point x="333" y="395"/>
      <point x="122" y="368" type="curve" smooth="yes"/>
      <point x="111" y="367"/>
      <point x="110" y="366"/>
      <point x="108" y="357" type="curve" smooth="yes"/>
      <point x="48" y="179" type="line" smooth="yes"/>
      <point x="46" y="173"/>
      <point x="48" y="167"/>
      <point x="54" y="167" type="curve" smooth="yes"/>
      <point x="186" y="167"/>
      <point x="244" y="101"/>
      <point x="226" y="-8" type="curve" smooth="yes"/>
      <point x="211" y="-95"/>
      <point x="149" y="-178"/>
      <point x="-28" y="-264" type="curve" smooth="yes"/>
      <point x="-33" y="-267"/>
      <point x="-28" y="-277"/>
      <point x="-23" y="-275" type="curve" smooth="yes"/>
    </contour>
  </outline>
</glyph>
<glyph name="six" format="1">
  <advance width="419"/>
  <unicode hex="0036"/>
  <outline>
    <contour>
      <point x="283" y="-13"/>
      <point x="367" y="56"/>
      <point x="381" y="142" type="curve" smooth="yes"/>
      <point x="392" y="211"/>
      <point x="370" y="282"/>
      <point x="282" y="282" type="curve" smooth="yes"/>
      <point x="228" y="282"/>
      <point x="179" y="258"/>
      <point x="138" y="213" type="curve" smooth="yes"/>
      <point x="136" y="209"/>
      <point x="143" y="202"/>
      <point x="146" y="206" type="curve" smooth="yes"/>
      <point x="188" y="242"/>
      <point x="218" y="257"/>
      <point x="251" y="257" type="curve" smooth="yes"/>
      <point x="318" y="257"/>
      <point x="338" y="194"/>
      <point x="325" y="116" type="curve" smooth="yes"/>
      <point x="313" y="46"/>
      <point x="274" y="5"/>
      <point x="220" y="5" type="curve" smooth="yes"/>
      <point x="117" y="5"/>
      <point x="73" y="104"/>
      <point x="99" y="226" type="curve" smooth="yes"/>
      <point x="126" y="380"/>
      <point x="249" y="560"/>
      <point x="446" y="649" type="curve" smooth="yes"/>
      <point x="450" y="651"/>
      <point x="447" y="662"/>
      <point x="442" y="661" type="curve" smooth="yes"/>
      <point x="230" y="584"/>
      <point x="77" y="393"/>
      <point x="44" y="208" type="curve" smooth="yes"/>
      <point x="15" y="67"/>
      <point x="78" y="-13"/>
      <point x="191" y="-13" type="curve" smooth="yes"/>
    </contour>
  </outline>
</glyph>
<glyph name="seven" format="1">
  <advance width="386"/>
  <unicode hex="0037"/>
  <outline>
    <contour>
      <point x="56" y="-244" type="line" smooth="yes"/>
      <point x="67" y="-239"/>
      <point x="73" y="-233"/>
      <point x="80" y="-220" type="curve" smooth="yes"/>
      <point x="384" y="373" type="line" smooth="yes"/>
      <point x="386" y="378"/>
      <point x="384" y="386"/>
      <point x="378" y="386" type="curve" smooth="yes"/>
      <point x="303" y="386"/>
      <point x="175" y="386"/>
      <point x="139" y="386" type="curve" smooth="yes"/>
      <point x="99" y="386"/>
      <point x="94" y="389"/>
      <point x="102" y="412" type="curve" smooth="yes"/>
      <point x="103" y="415"/>
      <point x="91" y="419"/>
      <point x="90" y="415" type="curve" smooth="yes"/>
      <point x="36" y="280" type="line" smooth="yes"/>
      <point x="34" y="275"/>
      <point x="47" y="271"/>
      <point x="48" y="276" type="curve" smooth="yes"/>
      <point x="76" y="338"/>
      <point x="88" y="345"/>
      <point x="344" y="345" type="curve" smooth="yes"/>
      <point x="349" y="345"/>
      <point x="350" y="343"/>
      <point x="346" y="338" type="curve" smooth="yes"/>
      <point x="-1" y="-268" type="line" smooth="yes"/>
      <point x="-4" y="-271"/>
      <point x="1" y="-276"/>
      <point x="4" y="-275" type="curve" smooth="yes"/>
    </contour>
    <contour>
      <point x="223" y="386" type="move" name="top"/>
    </contour>
  </outline>
</glyph>
<glyph name="eight" format="1">
  <advance width="440"/>
  <unicode hex="0038"/>
  <outline>
    <contour>
      <point x="290" y="-13"/>
      <point x="386" y="61"/>
      <point x="404" y="161" type="curve" smooth="yes"/>
      <point x="435" y="346"/>
      <point x="163" y="343"/>
      <point x="187" y="483" type="curve" smooth="yes"/>
      <point x="194" y="532"/>
      <point x="228" y="559"/>
      <point x="271" y="559" type="curve" smooth="yes"/>
      <point x="331" y="559"/>
      <point x="363" y="506"/>
      <point x="352" y="448" type="curve" smooth="yes"/>
      <point x="345" y="407"/>
      <point x="320" y="374"/>
      <point x="271" y="339" type="curve"/>
      <point x="275" y="333" type="line"/>
      <point x="342" y="368"/>
      <point x="391" y="420"/>
      <point x="400" y="460" type="curve" smooth="yes"/>
      <point x="411" y="508"/>
      <point x="373" y="574"/>
      <point x="292" y="574" type="curve" smooth="yes"/>
      <point x="232" y="574"/>
      <point x="153" y="536"/>
      <point x="140" y="456" type="curve" smooth="yes"/>
      <point x="115" y="312"/>
      <point x="386" y="325"/>
      <point x="351" y="132" type="curve" smooth="yes"/>
      <point x="338" y="50"/>
      <point x="282" y="4"/>
      <point x="221" y="4" type="curve" smooth="yes"/>
      <point x="124" y="4"/>
      <point x="75" y="87"/>
      <point x="91" y="175" type="curve" smooth="yes"/>
      <point x="104" y="249"/>
      <point x="156" y="309"/>
      <point x="233" y="340" type="curve"/>
      <point x="228" y="349" type="line"/>
      <point x="150" y="322"/>
      <point x="50" y="242"/>
      <point x="34" y="149" type="curve" smooth="yes"/>
      <point x="19" y="65"/>
      <point x="78" y="-13"/>
      <point x="193" y="-13" type="curve" smooth="yes"/>
    </contour>
  </outline>
</glyph>
<glyph name="nine" format="1">
  <advance width="419"/>
  <unicode hex="0039"/>
  <outline>
    <contour>
      <point x="188" y="-198"/>
      <point x="342" y="-7"/>
      <point x="374" y="178" type="curve" smooth="yes"/>
      <point x="398" y="309"/>
      <point x="340" y="399"/>
      <point x="228" y="399" type="curve" smooth="yes"/>
      <point x="136" y="399"/>
      <point x="53" y="336"/>
      <point x="37" y="256" type="curve" smooth="yes"/>
      <point x="25" y="191"/>
      <point x="58" y="104"/>
      <point x="150" y="104" type="curve" smooth="yes"/>
      <point x="196" y="104"/>
      <point x="243" y="127"/>
      <point x="281" y="173" type="curve" smooth="yes"/>
      <point x="283" y="177"/>
      <point x="275" y="182"/>
      <point x="271" y="179" type="curve" smooth="yes"/>
      <point x="237" y="146"/>
      <point x="212" y="129"/>
      <point x="180" y="129" type="curve" smooth="yes"/>
      <point x="115" y="129"/>
      <point x="77" y="201"/>
      <point x="94" y="282" type="curve" smooth="yes"/>
      <point x="108" y="351"/>
      <point x="149" y="381"/>
      <point x="199" y="381" type="curve" smooth="yes"/>
      <point x="302" y="381"/>
      <point x="344" y="270"/>
      <point x="319" y="160" type="curve" smooth="yes"/>
      <point x="285" y="7"/>
      <point x="170" y="-174"/>
      <point x="-27" y="-263" type="curve" smooth="yes"/>
      <point x="-32" y="-265"/>
      <point x="-28" y="-276"/>
      <point x="-23" y="-275" type="curve" smooth="yes"/>
    </contour>
  </outline>
</glyph>
<glyph name="equal" format="1">
  <advance width="468"/>
  <unicode hex="003D"/>
  <outline>
    <contour>
      <point x="434" y="241" type="line" smooth="yes"/>
      <point x="440" y="241"/>
      <point x="440" y="278"/>
      <point x="434" y="278" type="curve" smooth="yes"/>
      <point x="33" y="278" type="line" smooth="yes"/>
      <point x="28" y="278"/>
      <point x="28" y="241"/>
      <point x="34" y="241" type="curve" smooth="yes"/>
    </contour>
    <contour>
      <point x="434" y="101" type="line" smooth="yes"/>
      <point x="440" y="101"/>
      <point x="440" y="138"/>
      <point x="434" y="138" type="curve" smooth="yes"/>
      <point x="33" y="138" type="line" smooth="yes"/>
      <point x="28" y="138"/>
      <point x="28" y="101"/>
      <point x="34" y="101" type="curve" smooth="yes"/>
    </contour>
  </outline>
</glyph>
<glyph name="greater" format="1">
  <advance width="407"/>
  <unicode hex="003E"/>
  <outline>
    <contour>
      <point x="371" y="172" type="line" smooth="yes"/>
      <point x="378" y="175"/>
      <point x="378" y="202"/>
      <point x="371" y="206" type="curve" smooth="yes"/>
      <point x="37" y="354" type="line" smooth="yes"/>
      <point x="28" y="359"/>
      <point x="28" y="319"/>
      <point x="37" y="315" type="curve" smooth="yes"/>
      <point x="330" y="189" type="line"/>
      <point x="330" y="188" type="line"/>
      <point x="37" y="63" type="line" smooth="yes"/>
      <point x="28" y="58"/>
      <point x="28" y="20"/>
      <point x="37" y="25" type="curve" smooth="yes"/>
    </contour>
  </outline>
</glyph>
<glyph name="question" format="1">
  <advance width="295"/>
  <unicode hex="003F"/>
  <outline>
    <contour>
      <point x="137" y="186"/>
      <point x="147" y="185"/>
      <point x="147" y="191" type="curve" smooth="yes"/>
      <point x="147" y="212"/>
      <point x="147" y="232"/>
      <point x="151" y="248" type="curve" smooth="yes"/>
      <point x="159" y="294"/>
      <point x="177" y="326"/>
      <point x="230" y="372" type="curve" smooth="yes"/>
      <point x="264" y="401"/>
      <point x="316" y="436"/>
      <point x="330" y="505" type="curve" smooth="yes"/>
      <point x="345" y="580"/>
      <point x="298" y="625"/>
      <point x="222" y="625" type="curve" smooth="yes"/>
      <point x="159" y="625"/>
      <point x="99" y="594"/>
      <point x="94" y="558" type="curve" smooth="yes"/>
      <point x="91" y="542"/>
      <point x="99" y="527"/>
      <point x="117" y="527" type="curve" smooth="yes"/>
      <point x="138" y="527"/>
      <point x="147" y="549"/>
      <point x="153" y="565" type="curve" smooth="yes"/>
      <point x="161" y="587"/>
      <point x="172" y="613"/>
      <point x="215" y="613" type="curve" smooth="yes"/>
      <point x="267" y="613"/>
      <point x="292" y="577"/>
      <point x="281" y="517" type="curve" smooth="yes"/>
      <point x="260" y="408"/>
      <point x="151" y="406"/>
      <point x="135" y="310" type="curve" smooth="yes"/>
      <point x="130" y="282"/>
      <point x="129" y="228"/>
      <point x="137" y="191" type="curve" smooth="yes"/>
    </contour>
    <component base="period" xOffset="44"/>
  </outline>
</glyph>
<glyph name="B" format="1">
  <advance width="511"/>
  <unicode hex="0042"/>
  <outline>
    <contour>
      <point x="384" y="367"/>
      <point x="444" y="416"/>
      <point x="461" y="491" type="curve" smooth="yes"/>
      <point x="477" y="566"/>
      <point x="443" y="628"/>
      <point x="327" y="628" type="curve" smooth="yes"/>
      <point x="302" y="628"/>
      <point x="253" y="622"/>
      <point x="221" y="622" type="curve" smooth="yes"/>
      <point x="184" y="622"/>
      <point x="147" y="625"/>
      <point x="118" y="625" type="curve" smooth="yes"/>
      <point x="113" y="625"/>
      <point x="113" y="613"/>
      <point x="118" y="613" type="curve" smooth="yes"/>
      <point x="186" y="613"/>
      <point x="195" y="602"/>
      <point x="186" y="545" type="curve" smooth="yes"/>
      <point x="104" y="82" type="line" smooth="yes"/>
      <point x="94" y="25"/>
      <point x="78" y="12"/>
      <point x="9" y="12" type="curve" smooth="yes"/>
      <point x="5" y="12"/>
      <point x="5" y="0"/>
      <point x="9" y="0" type="curve" smooth="yes"/>
      <point x="36" y="0"/>
      <point x="74" y="2"/>
      <point x="113" y="2" type="curve" smooth="yes"/>
      <point x="154" y="2"/>
      <point x="206" y="-4"/>
      <point x="246" y="-4" type="curve" smooth="yes"/>
      <point x="351" y="-4"/>
      <point x="444" y="80"/>
      <point x="462" y="181" type="curve" smooth="yes"/>
      <point x="480" y="280"/>
      <point x="420" y="353"/>
      <point x="309" y="353" type="curve"/>
      <point x="297" y="344" type="line"/>
    </contour>
    <contour>
      <point x="406" y="615"/>
      <point x="425" y="556"/>
      <point x="413" y="491" type="curve" smooth="yes"/>
      <point x="399" y="413"/>
      <point x="347" y="351"/>
      <point x="240" y="351" type="curve" smooth="yes"/>
      <point x="237" y="351"/>
      <point x="211" y="351"/>
      <point x="172" y="354" type="curve"/>
      <point x="198" y="346" type="line"/>
      <point x="232" y="540" type="line" smooth="yes"/>
      <point x="244" y="612"/>
      <point x="261" y="615"/>
      <point x="306" y="615" type="curve" smooth="yes"/>
    </contour>
    <contour>
      <point x="154" y="12"/>
      <point x="142" y="29"/>
      <point x="151" y="80" type="curve" smooth="yes"/>
      <point x="196" y="338" type="line"/>
      <point x="171" y="327" type="line"/>
      <point x="204" y="332"/>
      <point x="235" y="333"/>
      <point x="270" y="332" type="curve" smooth="yes"/>
      <point x="374" y="330"/>
      <point x="422" y="265"/>
      <point x="406" y="164" type="curve" smooth="yes"/>
      <point x="392" y="77"/>
      <point x="337" y="12"/>
      <point x="234" y="12" type="curve" smooth="yes"/>
    </contour>
    <contour>
      <point x="172" y="354" type="move"/>
    </contour>
    <contour>
      <point x="332" y="625" type="move" name="top"/>
    </contour>
    <contour>
      <point x="222" y="0" type="move" name="bottom"/>
    </contour>
  </outline>
</glyph>
<glyph name="C" format="1">
  <advance width="585"/>
  <unicode hex="0043"/>
  <outline>
    <contour>
      <point x="367" y="-13"/>
      <point x="429" y="-5"/>
      <point x="492" y="15" type="curve" smooth="yes"/>
      <point x="504" y="19"/>
      <point x="505" y="22"/>
      <point x="510" y="39" type="curve" smooth="yes"/>
      <point x="540" y="145" type="line" smooth="yes"/>
      <point x="542" y="149"/>
      <point x="532" y="153"/>
      <point x="530" y="149" type="curve" smooth="yes"/>
      <point x="476" y="47"/>
      <point x="399" y="-1"/>
      <point x="322" y="-1" type="curve" smooth="yes"/>
      <point x="179" y="-1"/>
      <point x="95" y="154"/>
      <point x="129" y="346" type="curve" smooth="yes"/>
      <point x="157" y="508"/>
      <point x="262" y="615"/>
      <point x="396" y="615" type="curve" smooth="yes"/>
      <point x="492" y="615"/>
      <point x="559" y="578"/>
      <point x="566" y="470" type="curve" smooth="yes"/>
      <point x="566" y="465"/>
      <point x="575" y="465"/>
      <point x="577" y="470" type="curve" smooth="yes"/>
      <point x="585" y="575" type="line" smooth="yes"/>
      <point x="586" y="589"/>
      <point x="586" y="592"/>
      <point x="577" y="599" type="curve" smooth="yes"/>
      <point x="546" y="623"/>
      <point x="487" y="636"/>
      <point x="433" y="636" type="curve" smooth="yes"/>
      <point x="273" y="636"/>
      <point x="102" y="508"/>
      <point x="68" y="319" type="curve" smooth="yes"/>
      <point x="40" y="165"/>
      <point x="92" y="-13"/>
      <point x="316" y="-13" type="curve" smooth="yes"/>
    </contour>
    <contour>
      <point x="418" y="625" type="move" name="top"/>
    </contour>
    <contour>
      <point x="305" y="0" type="move" name="bottom"/>
    </contour>
  </outline>
</glyph>
<glyph name="D" format="1">
  <advance width="606"/>
  <unicode hex="0044"/>
  <outline>
    <contour>
      <point x="389" y="-4"/>
      <point x="549" y="123"/>
      <point x="584" y="323" type="curve" smooth="yes"/>
      <point x="614" y="495"/>
      <point x="513" y="627"/>
      <point x="331" y="627" type="curve" smooth="yes"/>
      <point x="302" y="627"/>
      <point x="255" y="622"/>
      <point x="219" y="622" type="curve" smooth="yes"/>
      <point x="180" y="622"/>
      <point x="145" y="625"/>
      <point x="118" y="625" type="curve" smooth="yes"/>
      <point x="115" y="625"/>
      <point x="115" y="613"/>
      <point x="118" y="613" type="curve" smooth="yes"/>
      <point x="182" y="613"/>
      <point x="192" y="601"/>
      <point x="181" y="544" type="curve" smooth="yes"/>
      <point x="99" y="81" type="line" smooth="yes"/>
      <point x="89" y="23"/>
      <point x="75" y="12"/>
      <point x="11" y="12" type="curve" smooth="yes"/>
      <point x="7" y="12"/>
      <point x="7" y="0"/>
      <point x="11" y="0" type="curve" smooth="yes"/>
      <point x="37" y="0"/>
      <point x="70" y="2"/>
      <point x="110" y="2" type="curve" smooth="yes"/>
      <point x="149" y="2"/>
      <point x="200" y="-4"/>
      <point x="232" y="-4" type="curve" smooth="yes"/>
    </contour>
    <contour>
      <point x="150" y="9"/>
      <point x="138" y="35"/>
      <point x="149" y="92" type="curve" smooth="yes"/>
      <point x="228" y="542" type="line" smooth="yes"/>
      <point x="240" y="605"/>
      <point x="267" y="614"/>
      <point x="337" y="614" type="curve" smooth="yes"/>
      <point x="484" y="614"/>
      <point x="553" y="476"/>
      <point x="522" y="301" type="curve" smooth="yes"/>
      <point x="488" y="112"/>
      <point x="367" y="9"/>
      <point x="226" y="9" type="curve" smooth="yes"/>
    </contour>
    <contour>
      <point x="326" y="312" type="move" name="center"/>
    </contour>
    <contour>
      <point x="260" y="0" type="move" name="bottom"/>
    </contour>
    <contour>
      <point x="325" y="625" type="move" name="top"/>
    </contour>
  </outline>
</glyph>
<glyph name="E" format="1">
  <advance width="510"/>
  <unicode hex="0045"/>
  <outline>
    <contour>
      <point x="419" y="0" type="line" smooth="yes"/>
      <point x="429" y="0"/>
      <point x="433" y="4"/>
      <point x="435" y="15" type="curve" smooth="yes"/>
      <point x="442" y="56"/>
      <point x="454" y="110"/>
      <point x="465" y="145" type="curve" smooth="yes"/>
      <point x="467" y="149"/>
      <point x="455" y="151"/>
      <point x="454" y="147" type="curve" smooth="yes"/>
      <point x="432" y="71"/>
      <point x="388" y="18"/>
      <point x="344" y="18" type="curve" smooth="yes"/>
      <point x="213" y="18" type="line" smooth="yes"/>
      <point x="150" y="18"/>
      <point x="142" y="29"/>
      <point x="151" y="85" type="curve" smooth="yes"/>
      <point x="232" y="543" type="line" smooth="yes"/>
      <point x="242" y="600"/>
      <point x="254" y="611"/>
      <point x="317" y="611" type="curve" smooth="yes"/>
      <point x="416" y="611" type="line" smooth="yes"/>
      <point x="467" y="611"/>
      <point x="490" y="564"/>
      <point x="478" y="495" type="curve" smooth="yes"/>
      <point x="477" y="491"/>
      <point x="489" y="489"/>
      <point x="490" y="494" type="curve" smooth="yes"/>
      <point x="495" y="522"/>
      <point x="503" y="580"/>
      <point x="509" y="616" type="curve" smooth="yes"/>
      <point x="510" y="622"/>
      <point x="509" y="625"/>
      <point x="503" y="625" type="curve" smooth="yes"/>
      <point x="122" y="625" type="line" smooth="yes"/>
      <point x="118" y="625"/>
      <point x="118" y="613"/>
      <point x="122" y="613" type="curve" smooth="yes"/>
      <point x="186" y="613"/>
      <point x="195" y="601"/>
      <point x="185" y="544" type="curve" smooth="yes"/>
      <point x="103" y="81" type="line" smooth="yes"/>
      <point x="92" y="23"/>
      <point x="80" y="12"/>
      <point x="15" y="12" type="curve" smooth="yes"/>
      <point x="12" y="12"/>
      <point x="12" y="0"/>
      <point x="15" y="0" type="curve" smooth="yes"/>
    </contour>
    <contour>
      <point x="411" y="268"/>
      <point x="414" y="295"/>
      <point x="419" y="325" type="curve" smooth="yes"/>
      <point x="422" y="349"/>
      <point x="427" y="365"/>
      <point x="433" y="402" type="curve" smooth="yes"/>
      <point x="434" y="408"/>
      <point x="422" y="409"/>
      <point x="421" y="404" type="curve" smooth="yes"/>
      <point x="413" y="353"/>
      <point x="394" y="335"/>
      <point x="343" y="335" type="curve" smooth="yes"/>
      <point x="174" y="335" type="line"/>
      <point x="171" y="316" type="line" smooth="yes"/>
      <point x="336" y="316" type="line" smooth="yes"/>
      <point x="391" y="316"/>
      <point x="404" y="295"/>
      <point x="393" y="235" type="curve" smooth="yes"/>
      <point x="392" y="229"/>
      <point x="404" y="228"/>
      <point x="405" y="234" type="curve" smooth="yes"/>
    </contour>
    <contour>
      <point x="404" y="12" type="move" name="ogonek"/>
    </contour>
    <contour>
      <point x="331" y="625" type="move" name="top"/>
    </contour>
    <contour>
      <point x="99" y="625" type="move" name="topleft"/>
    </contour>
    <contour>
      <point x="270" y="0" type="move" name="bottom"/>
    </contour>
  </outline>
</glyph>
<glyph name="F" format="1">
  <advance width="483"/>
  <unicode hex="0046"/>
  <outline>
    <contour>
      <point x="39" y="0"/>
      <point x="74" y="2"/>
      <point x="110" y="2" type="curve" smooth="yes"/>
      <point x="164" y="2"/>
      <point x="211" y="0"/>
      <point x="247" y="0" type="curve" smooth="yes"/>
      <point x="250" y="0"/>
      <point x="250" y="12"/>
      <point x="247" y="12" type="curve" smooth="yes"/>
      <point x="145" y="12"/>
      <point x="138" y="26"/>
      <point x="149" y="85" type="curve" smooth="yes"/>
      <point x="229" y="543" type="line" smooth="yes"/>
      <point x="240" y="600"/>
      <point x="251" y="611"/>
      <point x="315" y="611" type="curve" smooth="yes"/>
      <point x="414" y="611" type="line" smooth="yes"/>
      <point x="464" y="611"/>
      <point x="488" y="564"/>
      <point x="476" y="495" type="curve" smooth="yes"/>
      <point x="475" y="491"/>
      <point x="487" y="489"/>
      <point x="488" y="494" type="curve" smooth="yes"/>
      <point x="492" y="522"/>
      <point x="501" y="580"/>
      <point x="506" y="616" type="curve" smooth="yes"/>
      <point x="508" y="622"/>
      <point x="506" y="625"/>
      <point x="501" y="625" type="curve" smooth="yes"/>
      <point x="119" y="625" type="line" smooth="yes"/>
      <point x="116" y="625"/>
      <point x="116" y="613"/>
      <point x="119" y="613" type="curve" smooth="yes"/>
      <point x="184" y="613"/>
      <point x="193" y="600"/>
      <point x="182" y="544" type="curve" smooth="yes"/>
      <point x="101" y="81" type="line" smooth="yes"/>
      <point x="90" y="23"/>
      <point x="77" y="12"/>
      <point x="13" y="12" type="curve" smooth="yes"/>
      <point x="9" y="12"/>
      <point x="9" y="0"/>
      <point x="13" y="0" type="curve"/>
    </contour>
    <contour>
      <point x="396" y="256"/>
      <point x="399" y="283"/>
      <point x="405" y="313" type="curve" smooth="yes"/>
      <point x="409" y="337"/>
      <point x="413" y="353"/>
      <point x="419" y="391" type="curve" smooth="yes"/>
      <point x="420" y="396"/>
      <point x="408" y="398"/>
      <point x="407" y="392" type="curve" smooth="yes"/>
      <point x="399" y="342"/>
      <point x="380" y="323"/>
      <point x="329" y="323" type="curve" smooth="yes"/>
      <point x="160" y="323" type="line"/>
      <point x="157" y="304" type="line" smooth="yes"/>
      <point x="322" y="304" type="line" smooth="yes"/>
      <point x="377" y="304"/>
      <point x="389" y="283"/>
      <point x="379" y="223" type="curve" smooth="yes"/>
      <point x="378" y="218"/>
      <point x="389" y="216"/>
      <point x="391" y="222" type="curve" smooth="yes"/>
    </contour>
    <contour>
      <point x="318" y="625" type="move" name="top"/>
    </contour>
    <contour>
      <point x="208" y="0" type="move" name="bottom"/>
    </contour>
  </outline>
</glyph>
<glyph name="G" format="1">
  <advance width="630"/>
  <unicode hex="0047"/>
  <outline>
    <contour>
      <point x="387" y="-12"/>
      <point x="453" y="0"/>
      <point x="512" y="16" type="curve" smooth="yes"/>
      <point x="520" y="19"/>
      <point x="523" y="20"/>
      <point x="524" y="28" type="curve" smooth="yes"/>
      <point x="527" y="44"/>
      <point x="522" y="49"/>
      <point x="533" y="116" type="curve" smooth="yes"/>
      <point x="552" y="222"/>
      <point x="558" y="234"/>
      <point x="600" y="233" type="curve" smooth="yes"/>
      <point x="606" y="233"/>
      <point x="605" y="247"/>
      <point x="600" y="247" type="curve" smooth="yes"/>
      <point x="536" y="243"/>
      <point x="483" y="243"/>
      <point x="414" y="249" type="curve" smooth="yes"/>
      <point x="408" y="249"/>
      <point x="407" y="233"/>
      <point x="414" y="233" type="curve" smooth="yes"/>
      <point x="506" y="233"/>
      <point x="509" y="222"/>
      <point x="492" y="126" type="curve" smooth="yes"/>
      <point x="475" y="23"/>
      <point x="440" y="5"/>
      <point x="354" y="5" type="curve" smooth="yes"/>
      <point x="191" y="5"/>
      <point x="95" y="142"/>
      <point x="132" y="344" type="curve" smooth="yes"/>
      <point x="163" y="508"/>
      <point x="271" y="615"/>
      <point x="429" y="615" type="curve" smooth="yes"/>
      <point x="525" y="615"/>
      <point x="582" y="566"/>
      <point x="586" y="470" type="curve" smooth="yes"/>
      <point x="586" y="465"/>
      <point x="596" y="464"/>
      <point x="598" y="470" type="curve" smooth="yes"/>
      <point x="606" y="575" type="line" smooth="yes"/>
      <point x="607" y="586"/>
      <point x="609" y="589"/>
      <point x="601" y="598" type="curve" smooth="yes"/>
      <point x="572" y="623"/>
      <point x="522" y="636"/>
      <point x="468" y="636" type="curve" smooth="yes"/>
      <point x="275" y="636"/>
      <point x="105" y="501"/>
      <point x="70" y="308" type="curve" smooth="yes"/>
      <point x="37" y="127"/>
      <point x="131" y="-12"/>
      <point x="330" y="-12" type="curve" smooth="yes"/>
    </contour>
    <contour>
      <point x="443" y="625" type="move" name="top"/>
    </contour>
    <contour>
      <point x="344" y="0" type="move" name="bottom"/>
    </contour>
  </outline>
</glyph>
<glyph name="H" format="1">
  <advance width="670"/>
  <unicode hex="0048"/>
  <outline>
    <contour>
      <point x="36" y="0"/>
      <point x="71" y="2"/>
      <point x="108" y="2" type="curve" smooth="yes"/>
      <point x="147" y="2"/>
      <point x="182" y="0"/>
      <point x="209" y="0" type="curve" smooth="yes"/>
      <point x="213" y="0"/>
      <point x="213" y="12"/>
      <point x="209" y="12" type="curve" smooth="yes"/>
      <point x="144" y="12"/>
      <point x="136" y="23"/>
      <point x="146" y="81" type="curve" smooth="yes"/>
      <point x="228" y="542" type="line" smooth="yes"/>
      <point x="239" y="599"/>
      <point x="251" y="613"/>
      <point x="316" y="613" type="curve" smooth="yes"/>
      <point x="319" y="613"/>
      <point x="319" y="625"/>
      <point x="316" y="625" type="curve" smooth="yes"/>
      <point x="290" y="625"/>
      <point x="253" y="622"/>
      <point x="215" y="622" type="curve" smooth="yes"/>
      <point x="178" y="622"/>
      <point x="144" y="625"/>
      <point x="118" y="625" type="curve" smooth="yes"/>
      <point x="115" y="625"/>
      <point x="115" y="613"/>
      <point x="118" y="613" type="curve" smooth="yes"/>
      <point x="182" y="613"/>
      <point x="191" y="601"/>
      <point x="181" y="544" type="curve" smooth="yes"/>
      <point x="99" y="81" type="line" smooth="yes"/>
      <point x="89" y="23"/>
      <point x="75" y="12"/>
      <point x="11" y="12" type="curve" smooth="yes"/>
      <point x="7" y="12"/>
      <point x="7" y="0"/>
      <point x="11" y="0" type="curve" smooth="yes"/>
    </contour>
    <contour>
      <point x="545" y="316" type="line"/>
      <point x="547" y="335" type="line"/>
      <point x="165" y="335" type="line"/>
      <point x="161" y="316" type="line"/>
    </contour>
    <contour>
      <point x="422" y="0"/>
      <point x="458" y="2"/>
      <point x="496" y="2" type="curve" smooth="yes"/>
      <point x="533" y="2"/>
      <point x="568" y="0"/>
      <point x="594" y="0" type="curve" smooth="yes"/>
      <point x="598" y="0"/>
      <point x="598" y="12"/>
      <point x="594" y="12" type="curve" smooth="yes"/>
      <point x="530" y="12"/>
      <point x="520" y="23"/>
      <point x="530" y="81" type="curve" smooth="yes"/>
      <point x="612" y="544" type="line" smooth="yes"/>
      <point x="622" y="601"/>
      <point x="636" y="613"/>
      <point x="699" y="613" type="curve" smooth="yes"/>
      <point x="703" y="613"/>
      <point x="703" y="625"/>
      <point x="699" y="625" type="curve" smooth="yes"/>
      <point x="674" y="625"/>
      <point x="636" y="622"/>
      <point x="600" y="622" type="curve" smooth="yes"/>
      <point x="563" y="622"/>
      <point x="527" y="625"/>
      <point x="502" y="625" type="curve" smooth="yes"/>
      <point x="498" y="625"/>
      <point x="498" y="613"/>
      <point x="502" y="613" type="curve" smooth="yes"/>
      <point x="567" y="613"/>
      <point x="574" y="599"/>
      <point x="564" y="542" type="curve" smooth="yes"/>
      <point x="483" y="81" type="line" smooth="yes"/>
      <point x="473" y="23"/>
      <point x="461" y="12"/>
      <point x="395" y="12" type="curve" smooth="yes"/>
      <point x="392" y="12"/>
      <point x="392" y="0"/>
      <point x="395" y="0" type="curve" smooth="yes"/>
    </contour>
    <contour>
      <point x="313" y="0" type="move" name="bottom"/>
    </contour>
    <contour>
      <point x="412" y="625" type="move" name="top"/>
    </contour>
    <contour>
      <point x="99" y="625" type="move" name="topleft"/>
    </contour>
    <contour>
      <point x="325" y="312" type="move" name="center"/>
    </contour>
  </outline>
</glyph>
<glyph name="I" format="1">
  <advance width="301"/>
  <unicode hex="0049"/>
  <outline>
    <contour>
      <point x="46" y="0"/>
      <point x="81" y="2"/>
      <point x="118" y="2" type="curve" smooth="yes"/>
      <point x="159" y="2"/>
      <point x="192" y="0"/>
      <point x="219" y="0" type="curve" smooth="yes"/>
      <point x="222" y="0"/>
      <point x="222" y="12"/>
      <point x="219" y="12" type="curve" smooth="yes"/>
      <point x="153" y="12"/>
      <point x="144" y="23"/>
      <point x="154" y="81" type="curve" smooth="yes"/>
      <point x="236" y="542" type="line" smooth="yes"/>
      <point x="247" y="599"/>
      <point x="260" y="613"/>
      <point x="324" y="613" type="curve" smooth="yes"/>
      <point x="327" y="613"/>
      <point x="327" y="625"/>
      <point x="324" y="625" type="curve" smooth="yes"/>
      <point x="298" y="625"/>
      <point x="264" y="622"/>
      <point x="222" y="622" type="curve" smooth="yes"/>
      <point x="185" y="622"/>
      <point x="151" y="625"/>
      <point x="124" y="625" type="curve" smooth="yes"/>
      <point x="120" y="625"/>
      <point x="120" y="613"/>
      <point x="124" y="613" type="curve" smooth="yes"/>
      <point x="188" y="613"/>
      <point x="199" y="601"/>
      <point x="188" y="544" type="curve" smooth="yes"/>
      <point x="106" y="81" type="line" smooth="yes"/>
      <point x="96" y="23"/>
      <point x="83" y="12"/>
      <point x="19" y="12" type="curve" smooth="yes"/>
      <point x="15" y="12"/>
      <point x="15" y="0"/>
      <point x="19" y="0" type="curve" smooth="yes"/>
    </contour>
    <contour>
      <point x="131" y="12" type="move" name="ogonek"/>
    </contour>
    <contour>
      <point x="223" y="625" type="move" name="top"/>
    </contour>
    <contour>
      <point x="99" y="625" type="move" name="topleft"/>
    </contour>
    <contour>
      <point x="117" y="0" type="move" name="bottom"/>
    </contour>
  </outline>
</glyph>
<glyph name="J" format="1">
  <advance width="271"/>
  <unicode hex="004A"/>
  <outline>
    <contour>
      <point x="76" y="-146"/>
      <point x="113" y="-89"/>
      <point x="142" y="67" type="curve" smooth="yes"/>
      <point x="226" y="542" type="line" smooth="yes"/>
      <point x="236" y="599"/>
      <point x="249" y="613"/>
      <point x="313" y="613" type="curve" smooth="yes"/>
      <point x="317" y="613"/>
      <point x="317" y="625"/>
      <point x="313" y="625" type="curve" smooth="yes"/>
      <point x="288" y="625"/>
      <point x="254" y="622"/>
      <point x="212" y="622" type="curve" smooth="yes"/>
      <point x="174" y="622"/>
      <point x="140" y="625"/>
      <point x="113" y="625" type="curve" smooth="yes"/>
      <point x="110" y="625"/>
      <point x="110" y="613"/>
      <point x="113" y="613" type="curve" smooth="yes"/>
      <point x="178" y="613"/>
      <point x="188" y="601"/>
      <point x="178" y="544" type="curve" smooth="yes"/>
      <point x="89" y="40" type="line" smooth="yes"/>
      <point x="69" y="-70"/>
      <point x="37" y="-145"/>
      <point x="-25" y="-182" type="curve" smooth="yes"/>
      <point x="-28" y="-185"/>
      <point x="-22" y="-195"/>
      <point x="-19" y="-193" type="curve" smooth="yes"/>
    </contour>
    <contour>
      <point x="212" y="625" type="move" name="top"/>
    </contour>
    <contour>
      <point x="102" y="0" type="move" name="bottom"/>
    </contour>
  </outline>
</glyph>
<glyph name="K" format="1">
  <advance width="587"/>
  <unicode hex="004B"/>
  <outline>
    <contour>
      <point x="36" y="0"/>
      <point x="71" y="2"/>
      <point x="108" y="2" type="curve" smooth="yes"/>
      <point x="147" y="2"/>
      <point x="171" y="0"/>
      <point x="198" y="0" type="curve" smooth="yes"/>
      <point x="201" y="0"/>
      <point x="201" y="12"/>
      <point x="198" y="12" type="curve" smooth="yes"/>
      <point x="132" y="12"/>
      <point x="136" y="23"/>
      <point x="146" y="81" type="curve" smooth="yes"/>
      <point x="228" y="542" type="line" smooth="yes"/>
      <point x="239" y="599"/>
      <point x="251" y="613"/>
      <point x="316" y="613" type="curve" smooth="yes"/>
      <point x="319" y="613"/>
      <point x="319" y="625"/>
      <point x="316" y="625" type="curve" smooth="yes"/>
      <point x="290" y="625"/>
      <point x="253" y="622"/>
      <point x="215" y="622" type="curve" smooth="yes"/>
      <point x="178" y="622"/>
      <point x="144" y="625"/>
      <point x="118" y="625" type="curve" smooth="yes"/>
      <point x="115" y="625"/>
      <point x="115" y="613"/>
      <point x="118" y="613" type="curve" smooth="yes"/>
      <point x="182" y="613"/>
      <point x="191" y="601"/>
      <point x="181" y="544" type="curve" smooth="yes"/>
      <point x="99" y="81" type="line" smooth="yes"/>
      <point x="89" y="23"/>
      <point x="75" y="12"/>
      <point x="11" y="12" type="curve" smooth="yes"/>
      <point x="7" y="12"/>
      <point x="7" y="0"/>
      <point x="11" y="0" type="curve" smooth="yes"/>
    </contour>
    <contour>
      <point x="470" y="0"/>
      <point x="496" y="0"/>
      <point x="540" y="0" type="curve" smooth="yes"/>
      <point x="544" y="0"/>
      <point x="544" y="12"/>
      <point x="540" y="12" type="curve" smooth="yes"/>
      <point x="489" y="12"/>
      <point x="469" y="15"/>
      <point x="364" y="199" type="curve" smooth="yes"/>
      <point x="260" y="380" type="line"/>
      <point x="218" y="349" type="line"/>
      <point x="335" y="145" type="line" smooth="yes"/>
      <point x="422" y="-7"/>
      <point x="400" y="0"/>
      <point x="457" y="0" type="curve" smooth="yes"/>
    </contour>
    <contour>
      <point x="171" y="295" type="line"/>
      <point x="456" y="544" type="line" smooth="yes"/>
      <point x="513" y="599"/>
      <point x="570" y="613"/>
      <point x="609" y="613" type="curve" smooth="yes"/>
      <point x="613" y="613"/>
      <point x="613" y="625"/>
      <point x="609" y="625" type="curve" smooth="yes"/>
      <point x="586" y="625"/>
      <point x="565" y="622"/>
      <point x="523" y="622" type="curve" smooth="yes"/>
      <point x="477" y="622"/>
      <point x="455" y="625"/>
      <point x="428" y="625" type="curve" smooth="yes"/>
      <point x="425" y="625"/>
      <point x="425" y="613"/>
      <point x="428" y="613" type="curve" smooth="yes"/>
      <point x="488" y="613"/>
      <point x="490" y="601"/>
      <point x="437" y="550" type="curve" smooth="yes"/>
      <point x="150" y="294" type="line"/>
    </contour>
    <contour>
      <point x="379" y="625" type="move" name="top"/>
    </contour>
    <contour>
      <point x="290" y="0" type="move" name="bottom"/>
    </contour>
  </outline>
</glyph>
<glyph name="L" format="1">
  <advance width="494"/>
  <unicode hex="004C"/>
  <outline>
    <contour>
      <point x="426" y="0" type="line" smooth="yes"/>
      <point x="436" y="0"/>
      <point x="440" y="4"/>
      <point x="442" y="15" type="curve" smooth="yes"/>
      <point x="449" y="56"/>
      <point x="462" y="110"/>
      <point x="473" y="145" type="curve" smooth="yes"/>
      <point x="474" y="149"/>
      <point x="461" y="151"/>
      <point x="461" y="147" type="curve" smooth="yes"/>
      <point x="439" y="71"/>
      <point x="401" y="18"/>
      <point x="329" y="18" type="curve" smooth="yes"/>
      <point x="209" y="18" type="line" smooth="yes"/>
      <point x="146" y="18"/>
      <point x="138" y="29"/>
      <point x="147" y="85" type="curve" smooth="yes"/>
      <point x="228" y="543" type="line" smooth="yes"/>
      <point x="239" y="600"/>
      <point x="251" y="613"/>
      <point x="316" y="613" type="curve" smooth="yes"/>
      <point x="319" y="613"/>
      <point x="319" y="625"/>
      <point x="316" y="625" type="curve" smooth="yes"/>
      <point x="290" y="625"/>
      <point x="253" y="622"/>
      <point x="215" y="622" type="curve" smooth="yes"/>
      <point x="178" y="622"/>
      <point x="144" y="625"/>
      <point x="118" y="625" type="curve" smooth="yes"/>
      <point x="115" y="625"/>
      <point x="115" y="613"/>
      <point x="118" y="613" type="curve" smooth="yes"/>
      <point x="182" y="613"/>
      <point x="191" y="601"/>
      <point x="181" y="544" type="curve" smooth="yes"/>
      <point x="99" y="81" type="line" smooth="yes"/>
      <point x="89" y="23"/>
      <point x="76" y="12"/>
      <point x="12" y="12" type="curve" smooth="yes"/>
      <point x="8" y="12"/>
      <point x="8" y="0"/>
      <point x="12" y="0" type="curve" smooth="yes"/>
    </contour>
    <contour>
      <point x="247" y="0" type="move" name="bottom"/>
    </contour>
    <contour>
      <point x="216" y="625" type="move" name="top"/>
    </contour>
    <contour>
      <point x="513" y="625" type="move" name="topright"/>
    </contour>
    <contour>
      <point x="268" y="312" type="move" name="center"/>
    </contour>
  </outline>
</glyph>
<glyph name="M" format="1">
  <advance width="730"/>
  <unicode hex="004D"/>
  <outline>
    <contour>
      <point x="494" y="0"/>
      <point x="527" y="2"/>
      <point x="566" y="2" type="curve" smooth="yes"/>
      <point x="605" y="2"/>
      <point x="640" y="0"/>
      <point x="665" y="0" type="curve" smooth="yes"/>
      <point x="669" y="0"/>
      <point x="669" y="12"/>
      <point x="665" y="12" type="curve" smooth="yes"/>
      <point x="601" y="12"/>
      <point x="593" y="23"/>
      <point x="601" y="81" type="curve" smooth="yes"/>
      <point x="670" y="546" type="line" smooth="yes"/>
      <point x="678" y="602"/>
      <point x="709" y="613"/>
      <point x="764" y="613" type="curve" smooth="yes"/>
      <point x="766" y="613"/>
      <point x="766" y="625"/>
      <point x="764" y="625" type="curve" smooth="yes"/>
      <point x="744" y="625"/>
      <point x="727" y="623"/>
      <point x="698" y="623" type="curve" smooth="yes"/>
      <point x="684" y="623"/>
      <point x="668" y="625"/>
      <point x="661" y="625" type="curve" smooth="yes"/>
      <point x="651" y="625"/>
      <point x="639" y="615"/>
      <point x="630" y="600" type="curve" smooth="yes"/>
      <point x="325" y="35" type="line"/>
      <point x="351" y="74" type="line"/>
      <point x="244" y="573" type="line" smooth="yes"/>
      <point x="235" y="616"/>
      <point x="229" y="625"/>
      <point x="214" y="625" type="curve" smooth="yes"/>
      <point x="207" y="625"/>
      <point x="196" y="623"/>
      <point x="180" y="623" type="curve" smooth="yes"/>
      <point x="167" y="623"/>
      <point x="144" y="625"/>
      <point x="127" y="625" type="curve" smooth="yes"/>
      <point x="124" y="625"/>
      <point x="124" y="613"/>
      <point x="127" y="613" type="curve" smooth="yes"/>
      <point x="153" y="613"/>
      <point x="189" y="605"/>
      <point x="202" y="542" type="curve" smooth="yes"/>
      <point x="315" y="8" type="line" smooth="yes"/>
      <point x="316" y="2"/>
      <point x="326" y="2"/>
      <point x="329" y="7" type="curve" smooth="yes"/>
      <point x="656" y="613" type="line"/>
      <point x="630" y="589" type="line"/>
      <point x="554" y="81" type="line" smooth="yes"/>
      <point x="546" y="23"/>
      <point x="532" y="12"/>
      <point x="467" y="12" type="curve" smooth="yes"/>
      <point x="463" y="12"/>
      <point x="463" y="0"/>
      <point x="467" y="0" type="curve" smooth="yes"/>
    </contour>
    <contour>
      <point x="41" y="0"/>
      <point x="67" y="2"/>
      <point x="94" y="2" type="curve" smooth="yes"/>
      <point x="124" y="2"/>
      <point x="146" y="0"/>
      <point x="167" y="0" type="curve" smooth="yes"/>
      <point x="171" y="0"/>
      <point x="171" y="12"/>
      <point x="167" y="12" type="curve" smooth="yes"/>
      <point x="119" y="12"/>
      <point x="109" y="36"/>
      <point x="120" y="104" type="curve" smooth="yes"/>
      <point x="209" y="600" type="line"/>
      <point x="193" y="602" type="line"/>
      <point x="102" y="104" type="line" smooth="yes"/>
      <point x="89" y="36"/>
      <point x="67" y="12"/>
      <point x="19" y="12" type="curve" smooth="yes"/>
      <point x="15" y="12"/>
      <point x="15" y="0"/>
      <point x="19" y="0" type="curve" smooth="yes"/>
    </contour>
    <contour>
      <point x="429" y="625" type="move" name="top"/>
    </contour>
    <contour>
      <point x="331" y="0" type="move" name="bottom"/>
    </contour>
  </outline>
</glyph>
<glyph name="N" format="1">
  <advance width="650"/>
  <unicode hex="004E"/>
  <outline>
    <contour>
      <point x="495" y="-16"/>
      <point x="503" y="-15"/>
      <point x="504" y="-11" type="curve" smooth="yes"/>
      <point x="510" y="65" type="line"/>
      <point x="251" y="573" type="line" smooth="yes"/>
      <point x="233" y="611"/>
      <point x="237" y="625"/>
      <point x="222" y="625" type="curve" smooth="yes"/>
      <point x="215" y="625"/>
      <point x="200" y="623"/>
      <point x="184" y="623" type="curve" smooth="yes"/>
      <point x="167" y="623"/>
      <point x="143" y="625"/>
      <point x="124" y="625" type="curve" smooth="yes"/>
      <point x="120" y="625"/>
      <point x="120" y="613"/>
      <point x="124" y="613" type="curve" smooth="yes"/>
      <point x="152" y="613"/>
      <point x="179" y="598"/>
      <point x="207" y="543" type="curve" smooth="yes"/>
      <point x="492" y="-11" type="line" smooth="yes"/>
    </contour>
    <contour>
      <point x="37" y="0"/>
      <point x="63" y="2"/>
      <point x="90" y="2" type="curve" smooth="yes"/>
      <point x="120" y="2"/>
      <point x="143" y="0"/>
      <point x="164" y="0" type="curve" smooth="yes"/>
      <point x="167" y="0"/>
      <point x="167" y="12"/>
      <point x="164" y="12" type="curve" smooth="yes"/>
      <point x="116" y="12"/>
      <point x="105" y="36"/>
      <point x="117" y="104" type="curve" smooth="yes"/>
      <point x="202" y="600" type="line"/>
      <point x="186" y="602" type="line"/>
      <point x="98" y="104" type="line" smooth="yes"/>
      <point x="87" y="36"/>
      <point x="63" y="12"/>
      <point x="15" y="12" type="curve" smooth="yes"/>
      <point x="12" y="12"/>
      <point x="12" y="0"/>
      <point x="15" y="0" type="curve" smooth="yes"/>
    </contour>
    <contour>
      <point x="598" y="520" type="line" smooth="yes"/>
      <point x="609" y="588"/>
      <point x="633" y="613"/>
      <point x="681" y="613" type="curve" smooth="yes"/>
      <point x="684" y="613"/>
      <point x="684" y="625"/>
      <point x="681" y="625" type="curve" smooth="yes"/>
      <point x="658" y="625"/>
      <point x="633" y="622"/>
      <point x="606" y="622" type="curve" smooth="yes"/>
      <point x="575" y="622"/>
      <point x="553" y="625"/>
      <point x="532" y="625" type="curve" smooth="yes"/>
      <point x="529" y="625"/>
      <point x="529" y="613"/>
      <point x="532" y="613" type="curve" smooth="yes"/>
      <point x="580" y="613"/>
      <point x="591" y="588"/>
      <point x="579" y="520" type="curve" smooth="yes"/>
      <point x="492" y="20" type="line"/>
      <point x="504" y="-11" type="line"/>
    </contour>
    <contour>
      <point x="389" y="625" type="move" name="top"/>
    </contour>
    <contour>
      <point x="309" y="0" type="move" name="bottom"/>
    </contour>
  </outline>
</glyph>
<glyph name="O" format="1">
  <advance width="650"/>
  <unicode hex="004F"/>
  <outline>
    <contour>
      <point x="441" y="-12"/>
      <point x="592" y="122"/>
      <point x="626" y="313" type="curve" smooth="yes"/>
      <point x="657" y="487"/>
      <point x="579" y="636"/>
      <point x="409" y="636" type="curve" smooth="yes"/>
      <point x="249" y="636"/>
      <point x="104" y="502"/>
      <point x="71" y="313" type="curve" smooth="yes"/>
      <point x="40" y="135"/>
      <point x="122" y="-12"/>
      <point x="285" y="-12" type="curve" smooth="yes"/>
    </contour>
    <contour>
      <point x="164" y="14"/>
      <point x="88" y="177"/>
      <point x="125" y="366" type="curve" smooth="yes"/>
      <point x="154" y="516"/>
      <point x="242" y="612"/>
      <point x="368" y="612" type="curve" smooth="yes"/>
      <point x="529" y="612"/>
      <point x="613" y="460"/>
      <point x="571" y="260" type="curve" smooth="yes"/>
      <point x="537" y="99"/>
      <point x="446" y="14"/>
      <point x="327" y="14" type="curve" smooth="yes"/>
    </contour>
    <contour>
      <point x="308" y="0" type="move" name="bottom"/>
    </contour>
    <contour>
      <point x="398" y="12" type="move" name="ogonek"/>
    </contour>
    <contour>
      <point x="399" y="625" type="move" name="top"/>
    </contour>
    <contour>
      <point x="579" y="577" type="move" name="topright"/>
    </contour>
    <contour>
      <point x="99" y="625" type="move" name="topleft"/>
    </contour>
    <contour>
      <point x="343" y="312" type="move" name="center"/>
    </contour>
  </outline>
</glyph>
<glyph name="P" format="1">
  <advance width="496"/>
  <unicode hex="0050"/>
  <outline>
    <contour>
      <point x="37" y="0"/>
      <point x="73" y="2"/>
      <point x="109" y="2" type="curve" smooth="yes"/>
      <point x="149" y="2"/>
      <point x="184" y="0"/>
      <point x="211" y="0" type="curve" smooth="yes"/>
      <point x="214" y="0"/>
      <point x="214" y="12"/>
      <point x="211" y="12" type="curve" smooth="yes"/>
      <point x="145" y="12"/>
      <point x="137" y="23"/>
      <point x="147" y="81" type="curve" smooth="yes"/>
      <point x="228" y="542" type="line" smooth="yes"/>
      <point x="241" y="613"/>
      <point x="254" y="615"/>
      <point x="318" y="615" type="curve" smooth="yes"/>
      <point x="396" y="615"/>
      <point x="462" y="549"/>
      <point x="440" y="433" type="curve" smooth="yes"/>
      <point x="419" y="325"/>
      <point x="325" y="276"/>
      <point x="246" y="276" type="curve" smooth="yes"/>
      <point x="236" y="276"/>
      <point x="226" y="277"/>
      <point x="216" y="280" type="curve" smooth="yes"/>
      <point x="212" y="281"/>
      <point x="208" y="268"/>
      <point x="212" y="267" type="curve" smooth="yes"/>
      <point x="225" y="263"/>
      <point x="237" y="262"/>
      <point x="253" y="262" type="curve" smooth="yes"/>
      <point x="343" y="262"/>
      <point x="475" y="319"/>
      <point x="499" y="453" type="curve" smooth="yes"/>
      <point x="522" y="575"/>
      <point x="439" y="628"/>
      <point x="340" y="628" type="curve" smooth="yes"/>
      <point x="291" y="628"/>
      <point x="246" y="622"/>
      <point x="216" y="622" type="curve" smooth="yes"/>
      <point x="179" y="622"/>
      <point x="145" y="625"/>
      <point x="119" y="625" type="curve" smooth="yes"/>
      <point x="116" y="625"/>
      <point x="116" y="613"/>
      <point x="119" y="613" type="curve" smooth="yes"/>
      <point x="184" y="613"/>
      <point x="193" y="601"/>
      <point x="182" y="544" type="curve" smooth="yes"/>
      <point x="101" y="81" type="line" smooth="yes"/>
      <point x="90" y="23"/>
      <point x="76" y="12"/>
      <point x="12" y="12" type="curve" smooth="yes"/>
      <point x="8" y="12"/>
      <point x="8" y="0"/>
      <point x="12" y="0" type="curve" smooth="yes"/>
    </contour>
    <contour>
      <point x="324" y="625" type="move" name="top"/>
    </contour>
    <contour>
      <point x="214" y="0" type="move" name="bottom"/>
    </contour>
  </outline>
</glyph>
<glyph name="Q" format="1">
  <advance width="650"/>
  <unicode hex="0051"/>
  <outline>
    <contour>
      <point x="620" y="-195"/>
      <point x="650" y="-191"/>
      <point x="681" y="-184" type="curve" smooth="yes"/>
      <point x="684" y="-182"/>
      <point x="681" y="-172"/>
      <point x="677" y="-173" type="curve" smooth="yes"/>
      <point x="668" y="-175"/>
      <point x="653" y="-177"/>
      <point x="641" y="-177" type="curve" smooth="yes"/>
      <point x="567" y="-177"/>
      <point x="473" y="-91"/>
      <point x="423" y="29" type="curve"/>
      <point x="366" y="9" type="line"/>
      <point x="427" y="-124"/>
      <point x="522" y="-195"/>
      <point x="595" y="-195" type="curve" smooth="yes"/>
    </contour>
    <component base="O"/>
    <contour>
      <point x="401" y="625" type="move" name="top"/>
    </contour>
    <contour>
      <point x="291" y="0" type="move" name="bottom"/>
    </contour>
  </outline>
</glyph>
<glyph name="R" format="1">
  <advance width="608"/>
  <unicode hex="0052"/>
  <outline>
    <contour>
      <point x="42" y="0"/>
      <point x="81" y="2"/>
      <point x="119" y="2" type="curve" smooth="yes"/>
      <point x="160" y="2"/>
      <point x="194" y="0"/>
      <point x="223" y="0" type="curve" smooth="yes"/>
      <point x="227" y="0"/>
      <point x="227" y="12"/>
      <point x="222" y="12" type="curve" smooth="yes"/>
      <point x="153" y="12"/>
      <point x="146" y="23"/>
      <point x="157" y="81" type="curve" smooth="yes"/>
      <point x="200" y="320" type="line"/>
      <point x="211" y="319"/>
      <point x="227" y="318"/>
      <point x="237" y="318" type="curve" smooth="yes"/>
      <point x="342" y="318"/>
      <point x="441" y="404"/>
      <point x="458" y="503" type="curve" smooth="yes"/>
      <point x="473" y="580"/>
      <point x="430" y="628"/>
      <point x="335" y="628" type="curve" smooth="yes"/>
      <point x="308" y="628"/>
      <point x="258" y="622"/>
      <point x="228" y="622" type="curve" smooth="yes"/>
      <point x="189" y="622"/>
      <point x="153" y="625"/>
      <point x="125" y="625" type="curve" smooth="yes"/>
      <point x="120" y="625"/>
      <point x="120" y="613"/>
      <point x="125" y="613" type="curve" smooth="yes"/>
      <point x="194" y="613"/>
      <point x="202" y="601"/>
      <point x="192" y="544" type="curve" smooth="yes"/>
      <point x="110" y="81" type="line" smooth="yes"/>
      <point x="99" y="23"/>
      <point x="82" y="12"/>
      <point x="14" y="12" type="curve" smooth="yes"/>
      <point x="9" y="12"/>
      <point x="9" y="0"/>
      <point x="14" y="0" type="curve" smooth="yes"/>
    </contour>
    <contour>
      <point x="501" y="0"/>
      <point x="532" y="0"/>
      <point x="582" y="0" type="curve" smooth="yes"/>
      <point x="587" y="0"/>
      <point x="587" y="12"/>
      <point x="582" y="12" type="curve" smooth="yes"/>
      <point x="506" y="12"/>
      <point x="448" y="97"/>
      <point x="337" y="349" type="curve"/>
      <point x="297" y="333" type="line"/>
      <point x="382" y="127"/>
      <point x="453" y="0"/>
      <point x="485" y="0" type="curve" smooth="yes"/>
    </contour>
    <contour>
      <point x="241" y="340"/>
      <point x="220" y="342"/>
      <point x="204" y="344" type="curve"/>
      <point x="239" y="542" type="line" smooth="yes"/>
      <point x="251" y="613"/>
      <point x="267" y="615"/>
      <point x="311" y="615" type="curve" smooth="yes"/>
      <point x="378" y="615"/>
      <point x="421" y="577"/>
      <point x="402" y="469" type="curve" smooth="yes"/>
      <point x="386" y="378"/>
      <point x="344" y="340"/>
      <point x="256" y="340" type="curve" smooth="yes"/>
    </contour>
    <contour>
      <point x="312" y="625" type="move" name="top"/>
    </contour>
    <contour>
      <point x="299" y="0" type="move" name="bottom"/>
    </contour>
  </outline>
</glyph>
<glyph name="S" format="1">
  <advance width="460"/>
  <unicode hex="0053"/>
  <outline>
    <contour>
      <point x="310" y="-12"/>
      <point x="389" y="65"/>
      <point x="405" y="157" type="curve" smooth="yes"/>
      <point x="421" y="253"/>
      <point x="356" y="296"/>
      <point x="291" y="338" type="curve" smooth="yes"/>
      <point x="229" y="379"/>
      <point x="168" y="419"/>
      <point x="184" y="504" type="curve" smooth="yes"/>
      <point x="194" y="561"/>
      <point x="233" y="623"/>
      <point x="315" y="623" type="curve" smooth="yes"/>
      <point x="406" y="623"/>
      <point x="422" y="547"/>
      <point x="422" y="489" type="curve" smooth="yes"/>
      <point x="422" y="484"/>
      <point x="434" y="484"/>
      <point x="434" y="489" type="curve" smooth="yes"/>
      <point x="446" y="595" type="line" smooth="yes"/>
      <point x="447" y="602"/>
      <point x="442" y="608"/>
      <point x="434" y="612" type="curve" smooth="yes"/>
      <point x="396" y="629"/>
      <point x="361" y="636"/>
      <point x="329" y="636" type="curve" smooth="yes"/>
      <point x="243" y="636"/>
      <point x="150" y="585"/>
      <point x="131" y="481" type="curve" smooth="yes"/>
      <point x="115" y="387"/>
      <point x="175" y="346"/>
      <point x="237" y="304" type="curve" smooth="yes"/>
      <point x="301" y="261"/>
      <point x="364" y="218"/>
      <point x="346" y="122" type="curve" smooth="yes"/>
      <point x="330" y="32"/>
      <point x="264" y="2"/>
      <point x="205" y="2" type="curve" smooth="yes"/>
      <point x="102" y="2"/>
      <point x="67" y="91"/>
      <point x="71" y="171" type="curve" smooth="yes"/>
      <point x="71" y="177"/>
      <point x="60" y="177"/>
      <point x="60" y="171" type="curve" smooth="yes"/>
      <point x="50" y="41" type="line" smooth="yes"/>
      <point x="50" y="32"/>
      <point x="50" y="26"/>
      <point x="56" y="22" type="curve" smooth="yes"/>
      <point x="101" y="-4"/>
      <point x="139" y="-12"/>
      <point x="181" y="-12" type="curve" smooth="yes"/>
    </contour>
    <contour>
      <point x="318" y="625" type="move" name="top"/>
    </contour>
    <contour>
      <point x="211" y="0" type="move" name="bottom"/>
    </contour>
  </outline>
</glyph>
<glyph name="T" format="1">
  <advance width="553"/>
  <unicode hex="0054"/>
  <outline>
    <contour>
      <point x="175" y="0"/>
      <point x="211" y="2"/>
      <point x="248" y="2" type="curve" smooth="yes"/>
      <point x="289" y="2"/>
      <point x="322" y="0"/>
      <point x="349" y="0" type="curve" smooth="yes"/>
      <point x="352" y="0"/>
      <point x="352" y="12"/>
      <point x="349" y="12" type="curve" smooth="yes"/>
      <point x="283" y="12"/>
      <point x="274" y="23"/>
      <point x="284" y="81" type="curve" smooth="yes"/>
      <point x="365" y="542" type="line" smooth="yes"/>
      <point x="374" y="595"/>
      <point x="385" y="609"/>
      <point x="441" y="609" type="curve" smooth="yes"/>
      <point x="468" y="609" type="line" smooth="yes"/>
      <point x="558" y="609"/>
      <point x="575" y="577"/>
      <point x="557" y="473" type="curve" smooth="yes"/>
      <point x="556" y="468"/>
      <point x="567" y="467"/>
      <point x="568" y="471" type="curve" smooth="yes"/>
      <point x="573" y="502"/>
      <point x="596" y="611"/>
      <point x="607" y="648" type="curve" smooth="yes"/>
      <point x="608" y="653"/>
      <point x="598" y="654"/>
      <point x="596" y="650" type="curve" smooth="yes"/>
      <point x="587" y="629"/>
      <point x="567" y="625"/>
      <point x="530" y="625" type="curve" smooth="yes"/>
      <point x="485" y="625"/>
      <point x="434" y="622"/>
      <point x="354" y="622" type="curve" smooth="yes"/>
      <point x="291" y="622"/>
      <point x="220" y="623"/>
      <point x="171" y="625" type="curve" smooth="yes"/>
      <point x="156" y="625"/>
      <point x="129" y="626"/>
      <point x="132" y="646" type="curve" smooth="yes"/>
      <point x="133" y="650"/>
      <point x="122" y="651"/>
      <point x="120" y="647" type="curve" smooth="yes"/>
      <point x="112" y="604"/>
      <point x="88" y="504"/>
      <point x="77" y="471" type="curve" smooth="yes"/>
      <point x="76" y="468"/>
      <point x="88" y="465"/>
      <point x="89" y="469" type="curve" smooth="yes"/>
      <point x="119" y="575"/>
      <point x="151" y="609"/>
      <point x="235" y="609" type="curve" smooth="yes"/>
      <point x="262" y="609" type="line" smooth="yes"/>
      <point x="319" y="609"/>
      <point x="327" y="598"/>
      <point x="318" y="544" type="curve" smooth="yes"/>
      <point x="236" y="81" type="line" smooth="yes"/>
      <point x="226" y="23"/>
      <point x="213" y="12"/>
      <point x="149" y="12" type="curve" smooth="yes"/>
      <point x="145" y="12"/>
      <point x="145" y="0"/>
      <point x="149" y="0" type="curve" smooth="yes"/>
    </contour>
    <contour>
      <point x="275" y="312" type="move" name="center"/>
    </contour>
    <contour>
      <point x="246" y="0" type="move" name="bottom"/>
    </contour>
    <contour>
      <point x="353" y="625" type="move" name="top"/>
    </contour>
  </outline>
</glyph>
<glyph name="U" format="1">
  <advance width="618"/>
  <unicode hex="0055"/>
  <outline>
    <contour>
      <point x="512" y="234" type="line" smooth="yes"/>
      <point x="489" y="99"/>
      <point x="407" y="16"/>
      <point x="296" y="16" type="curve" smooth="yes"/>
      <point x="186" y="16"/>
      <point x="126" y="97"/>
      <point x="154" y="258" type="curve" smooth="yes"/>
      <point x="205" y="540" type="line" smooth="yes"/>
      <point x="215" y="598"/>
      <point x="229" y="613"/>
      <point x="298" y="613" type="curve" smooth="yes"/>
      <point x="303" y="613"/>
      <point x="303" y="625"/>
      <point x="298" y="625" type="curve" smooth="yes"/>
      <point x="273" y="625"/>
      <point x="236" y="622"/>
      <point x="194" y="622" type="curve" smooth="yes"/>
      <point x="156" y="622"/>
      <point x="120" y="625"/>
      <point x="91" y="625" type="curve" smooth="yes"/>
      <point x="87" y="625"/>
      <point x="87" y="613"/>
      <point x="91" y="613" type="curve" smooth="yes"/>
      <point x="158" y="613"/>
      <point x="168" y="602"/>
      <point x="158" y="545" type="curve" smooth="yes"/>
      <point x="102" y="226" type="line" smooth="yes"/>
      <point x="76" y="80"/>
      <point x="142" y="-13"/>
      <point x="275" y="-13" type="curve" smooth="yes"/>
      <point x="404" y="-13"/>
      <point x="504" y="75"/>
      <point x="532" y="233" type="curve" smooth="yes"/>
      <point x="582" y="519" type="line" smooth="yes"/>
      <point x="594" y="582"/>
      <point x="621" y="613"/>
      <point x="671" y="613" type="curve" smooth="yes"/>
      <point x="676" y="613"/>
      <point x="676" y="625"/>
      <point x="671" y="625" type="curve" smooth="yes"/>
      <point x="649" y="625"/>
      <point x="620" y="622"/>
      <point x="591" y="622" type="curve" smooth="yes"/>
      <point x="558" y="622"/>
      <point x="531" y="625"/>
      <point x="504" y="625" type="curve" smooth="yes"/>
      <point x="499" y="625"/>
      <point x="499" y="613"/>
      <point x="504" y="613" type="curve" smooth="yes"/>
      <point x="556" y="613"/>
      <point x="574" y="585"/>
      <point x="564" y="522" type="curve" smooth="yes"/>
    </contour>
    <contour>
      <point x="361" y="13" type="move" name="ogonek"/>
    </contour>
    <contour>
      <point x="402" y="625" type="move" name="top"/>
    </contour>
    <contour>
      <point x="670" y="625" type="move" name="topright"/>
    </contour>
    <contour>
      <point x="275" y="0" type="move" name="bottom"/>
    </contour>
  </outline>
</glyph>
<glyph name="V" format="1">
  <advance width="591"/>
  <unicode hex="0056"/>
  <outline>
    <contour>
      <point x="261" y="-4"/>
      <point x="276" y="-5"/>
      <point x="280" y="1" type="curve" smooth="yes"/>
      <point x="561" y="544" type="line" smooth="yes"/>
      <point x="591" y="601"/>
      <point x="621" y="613"/>
      <point x="655" y="613" type="curve" smooth="yes"/>
      <point x="660" y="613"/>
      <point x="660" y="625"/>
      <point x="655" y="625" type="curve" smooth="yes"/>
      <point x="626" y="625"/>
      <point x="611" y="622"/>
      <point x="579" y="622" type="curve" smooth="yes"/>
      <point x="540" y="622"/>
      <point x="520" y="625"/>
      <point x="495" y="625" type="curve" smooth="yes"/>
      <point x="491" y="625"/>
      <point x="491" y="613"/>
      <point x="495" y="613" type="curve" smooth="yes"/>
      <point x="558" y="613"/>
      <point x="567" y="595"/>
      <point x="544" y="550" type="curve" smooth="yes"/>
      <point x="271" y="25" type="line"/>
      <point x="302" y="56" type="line"/>
      <point x="194" y="552" type="line" smooth="yes"/>
      <point x="184" y="600"/>
      <point x="208" y="613"/>
      <point x="251" y="613" type="curve" smooth="yes"/>
      <point x="256" y="613"/>
      <point x="256" y="625"/>
      <point x="251" y="625" type="curve" smooth="yes"/>
      <point x="226" y="625"/>
      <point x="196" y="622"/>
      <point x="156" y="622" type="curve" smooth="yes"/>
      <point x="133" y="622"/>
      <point x="106" y="625"/>
      <point x="84" y="625" type="curve" smooth="yes"/>
      <point x="81" y="625"/>
      <point x="81" y="613"/>
      <point x="84" y="613" type="curve" smooth="yes"/>
      <point x="119" y="613"/>
      <point x="136" y="594"/>
      <point x="146" y="542" type="curve" smooth="yes"/>
      <point x="260" y="1" type="line" smooth="yes"/>
    </contour>
    <contour>
      <point x="372" y="625" type="move" name="top"/>
    </contour>
    <contour>
      <point x="262" y="0" type="move" name="bottom"/>
    </contour>
  </outline>
</glyph>
<glyph name="W" format="1">
  <advance width="821"/>
  <unicode hex="0057"/>
  <outline>
    <contour>
      <point x="490" y="-4"/>
      <point x="505" y="-4"/>
      <point x="508" y="1" type="curve" smooth="yes"/>
      <point x="791" y="544" type="line" smooth="yes"/>
      <point x="820" y="601"/>
      <point x="849" y="613"/>
      <point x="884" y="613" type="curve" smooth="yes"/>
      <point x="889" y="613"/>
      <point x="889" y="625"/>
      <point x="884" y="625" type="curve" smooth="yes"/>
      <point x="855" y="625"/>
      <point x="840" y="622"/>
      <point x="808" y="622" type="curve" smooth="yes"/>
      <point x="770" y="622"/>
      <point x="750" y="625"/>
      <point x="723" y="625" type="curve" smooth="yes"/>
      <point x="718" y="625"/>
      <point x="718" y="613"/>
      <point x="723" y="613" type="curve" smooth="yes"/>
      <point x="787" y="613"/>
      <point x="799" y="596"/>
      <point x="774" y="550" type="curve" smooth="yes"/>
      <point x="497" y="11" type="line"/>
      <point x="530" y="56" type="line"/>
      <point x="423" y="552" type="line" smooth="yes"/>
      <point x="412" y="607"/>
      <point x="414" y="613"/>
      <point x="450" y="613" type="curve" smooth="yes"/>
      <point x="456" y="613"/>
      <point x="456" y="625"/>
      <point x="450" y="625" type="curve" smooth="yes"/>
      <point x="434" y="625"/>
      <point x="413" y="622"/>
      <point x="385" y="622" type="curve" smooth="yes"/>
      <point x="361" y="622"/>
      <point x="335" y="625"/>
      <point x="312" y="625" type="curve" smooth="yes"/>
      <point x="308" y="625"/>
      <point x="308" y="613"/>
      <point x="312" y="613" type="curve" smooth="yes"/>
      <point x="349" y="613"/>
      <point x="363" y="594"/>
      <point x="374" y="542" type="curve" smooth="yes"/>
      <point x="489" y="1" type="line" smooth="yes"/>
    </contour>
    <contour>
      <point x="261" y="-4"/>
      <point x="276" y="-4"/>
      <point x="280" y="1" type="curve" smooth="yes"/>
      <point x="447" y="323" type="line"/>
      <point x="437" y="339" type="line"/>
      <point x="269" y="11" type="line"/>
      <point x="302" y="56" type="line"/>
      <point x="194" y="552" type="line" smooth="yes"/>
      <point x="184" y="600"/>
      <point x="208" y="613"/>
      <point x="251" y="613" type="curve" smooth="yes"/>
      <point x="256" y="613"/>
      <point x="256" y="625"/>
      <point x="251" y="625" type="curve" smooth="yes"/>
      <point x="226" y="625"/>
      <point x="196" y="622"/>
      <point x="156" y="622" type="curve" smooth="yes"/>
      <point x="133" y="622"/>
      <point x="106" y="625"/>
      <point x="84" y="625" type="curve" smooth="yes"/>
      <point x="80" y="625"/>
      <point x="80" y="613"/>
      <point x="84" y="613" type="curve" smooth="yes"/>
      <point x="119" y="613"/>
      <point x="136" y="594"/>
      <point x="146" y="542" type="curve" smooth="yes"/>
      <point x="260" y="1" type="line" smooth="yes"/>
    </contour>
    <contour>
      <point x="567" y="544" type="line" smooth="yes"/>
      <point x="596" y="601"/>
      <point x="627" y="613"/>
      <point x="661" y="613" type="curve" smooth="yes"/>
      <point x="665" y="613"/>
      <point x="665" y="625"/>
      <point x="661" y="625" type="curve" smooth="yes"/>
      <point x="632" y="625"/>
      <point x="616" y="622"/>
      <point x="585" y="622" type="curve" smooth="yes"/>
      <point x="560" y="622"/>
      <point x="547" y="625"/>
      <point x="530" y="625" type="curve" smooth="yes"/>
      <point x="525" y="625"/>
      <point x="525" y="613"/>
      <point x="530" y="613" type="curve" smooth="yes"/>
      <point x="571" y="613"/>
      <point x="575" y="596"/>
      <point x="551" y="550" type="curve" smooth="yes"/>
      <point x="443" y="339" type="line"/>
      <point x="453" y="323" type="line"/>
    </contour>
    <contour>
      <point x="491" y="625" type="move" name="top"/>
    </contour>
    <contour>
      <point x="377" y="0" type="move" name="bottom"/>
    </contour>
  </outline>
</glyph>
<glyph name="X" format="1">
  <advance width="579"/>
  <unicode hex="0058"/>
  <outline>
    <contour>
      <point x="365" y="0"/>
      <point x="400" y="2"/>
      <point x="444" y="2" type="curve" smooth="yes"/>
      <point x="475" y="2"/>
      <point x="503" y="0"/>
      <point x="526" y="0" type="curve" smooth="yes"/>
      <point x="531" y="0"/>
      <point x="531" y="12"/>
      <point x="526" y="12" type="curve" smooth="yes"/>
      <point x="477" y="12"/>
      <point x="451" y="30"/>
      <point x="432" y="83" type="curve" smooth="yes"/>
      <point x="242" y="573" type="line" smooth="yes"/>
      <point x="230" y="602"/>
      <point x="242" y="613"/>
      <point x="289" y="613" type="curve" smooth="yes"/>
      <point x="294" y="613"/>
      <point x="294" y="625"/>
      <point x="289" y="625" type="curve" smooth="yes"/>
      <point x="260" y="625"/>
      <point x="221" y="622"/>
      <point x="173" y="622" type="curve" smooth="yes"/>
      <point x="153" y="622"/>
      <point x="131" y="625"/>
      <point x="111" y="625" type="curve" smooth="yes"/>
      <point x="106" y="625"/>
      <point x="106" y="613"/>
      <point x="111" y="613" type="curve" smooth="yes"/>
      <point x="152" y="613"/>
      <point x="175" y="594"/>
      <point x="195" y="542" type="curve" smooth="yes"/>
      <point x="385" y="51" type="line" smooth="yes"/>
      <point x="396" y="22"/>
      <point x="384" y="12"/>
      <point x="337" y="12" type="curve" smooth="yes"/>
      <point x="332" y="12"/>
      <point x="331" y="0"/>
      <point x="337" y="0" type="curve" smooth="yes"/>
    </contour>
    <contour>
      <point x="18" y="0"/>
      <point x="30" y="2"/>
      <point x="58" y="2" type="curve" smooth="yes"/>
      <point x="102" y="2"/>
      <point x="124" y="0"/>
      <point x="153" y="0" type="curve" smooth="yes"/>
      <point x="158" y="0"/>
      <point x="158" y="12"/>
      <point x="153" y="12" type="curve" smooth="yes"/>
      <point x="99" y="12"/>
      <point x="96" y="40"/>
      <point x="137" y="92" type="curve" smooth="yes"/>
      <point x="299" y="299" type="line"/>
      <point x="289" y="309" type="line"/>
      <point x="117" y="92" type="line" smooth="yes"/>
      <point x="75" y="40"/>
      <point x="30" y="12"/>
      <point x="-8" y="12" type="curve" smooth="yes"/>
      <point x="-13" y="12"/>
      <point x="-13" y="0"/>
      <point x="-8" y="0" type="curve" smooth="yes"/>
    </contour>
    <contour>
      <point x="485" y="523" type="line" smooth="yes"/>
      <point x="531" y="579"/>
      <point x="575" y="613"/>
      <point x="615" y="613" type="curve" smooth="yes"/>
      <point x="621" y="613"/>
      <point x="621" y="625"/>
      <point x="615" y="625" type="curve" smooth="yes"/>
      <point x="591" y="625"/>
      <point x="577" y="622"/>
      <point x="550" y="622" type="curve" smooth="yes"/>
      <point x="505" y="622"/>
      <point x="484" y="625"/>
      <point x="455" y="625" type="curve" smooth="yes"/>
      <point x="450" y="625"/>
      <point x="450" y="613"/>
      <point x="455" y="613" type="curve" smooth="yes"/>
      <point x="508" y="613"/>
      <point x="511" y="582"/>
      <point x="465" y="524" type="curve" smooth="yes"/>
      <point x="311" y="325" type="line"/>
      <point x="320" y="316" type="line"/>
    </contour>
    <contour>
      <point x="366" y="625" type="move" name="top"/>
    </contour>
    <contour>
      <point x="256" y="0" type="move" name="bottom"/>
    </contour>
  </outline>
</glyph>
<glyph name="Y" format="1">
  <advance width="527"/>
  <unicode hex="0059"/>
  <outline>
    <contour>
      <point x="469" y="523" type="line" smooth="yes"/>
      <point x="512" y="581"/>
      <point x="557" y="613"/>
      <point x="599" y="613" type="curve" smooth="yes"/>
      <point x="604" y="613"/>
      <point x="604" y="625"/>
      <point x="599" y="625" type="curve" smooth="yes"/>
      <point x="574" y="625"/>
      <point x="560" y="622"/>
      <point x="532" y="622" type="curve" smooth="yes"/>
      <point x="489" y="622"/>
      <point x="468" y="625"/>
      <point x="437" y="625" type="curve" smooth="yes"/>
      <point x="433" y="625"/>
      <point x="433" y="613"/>
      <point x="437" y="613" type="curve" smooth="yes"/>
      <point x="488" y="613"/>
      <point x="491" y="582"/>
      <point x="449" y="524" type="curve" smooth="yes"/>
      <point x="273" y="278" type="line"/>
      <point x="282" y="270" type="line"/>
    </contour>
    <contour>
      <point x="161" y="0"/>
      <point x="195" y="2"/>
      <point x="235" y="2" type="curve" smooth="yes"/>
      <point x="274" y="2"/>
      <point x="306" y="0"/>
      <point x="333" y="0" type="curve" smooth="yes"/>
      <point x="338" y="0"/>
      <point x="338" y="12"/>
      <point x="333" y="12" type="curve" smooth="yes"/>
      <point x="268" y="12"/>
      <point x="260" y="23"/>
      <point x="270" y="81" type="curve" smooth="yes"/>
      <point x="312" y="319" type="line"/>
      <point x="263" y="310" type="line"/>
      <point x="223" y="81" type="line" smooth="yes"/>
      <point x="214" y="23"/>
      <point x="199" y="12"/>
      <point x="135" y="12" type="curve" smooth="yes"/>
      <point x="130" y="12"/>
      <point x="130" y="0"/>
      <point x="135" y="0" type="curve" smooth="yes"/>
    </contour>
    <contour>
      <point x="312" y="317" type="line"/>
      <point x="206" y="573" type="line" smooth="yes"/>
      <point x="194" y="602"/>
      <point x="204" y="613"/>
      <point x="250" y="613" type="curve" smooth="yes"/>
      <point x="255" y="613"/>
      <point x="257" y="625"/>
      <point x="253" y="625" type="curve" smooth="yes"/>
      <point x="223" y="625"/>
      <point x="182" y="622"/>
      <point x="138" y="622" type="curve" smooth="yes"/>
      <point x="118" y="622"/>
      <point x="95" y="625"/>
      <point x="76" y="625" type="curve" smooth="yes"/>
      <point x="71" y="625"/>
      <point x="71" y="613"/>
      <point x="76" y="613" type="curve" smooth="yes"/>
      <point x="117" y="613"/>
      <point x="137" y="593"/>
      <point x="159" y="542" type="curve" smooth="yes"/>
      <point x="274" y="271" type="line"/>
    </contour>
    <contour>
      <point x="343" y="625" type="move" name="top"/>
    </contour>
    <contour>
      <point x="242" y="0" type="move" name="bottom"/>
    </contour>
    <contour>
      <point x="99" y="625" type="move" name="topleft"/>
    </contour>
  </outline>
</glyph>
<glyph name="Z" format="1">
  <advance width="545"/>
  <unicode hex="005A"/>
  <outline>
    <contour>
      <point x="461" y="-2"/>
      <point x="465" y="4"/>
      <point x="465" y="8" type="curve" smooth="yes"/>
      <point x="499" y="129" type="line" smooth="yes"/>
      <point x="501" y="133"/>
      <point x="489" y="136"/>
      <point x="488" y="131" type="curve" smooth="yes"/>
      <point x="461" y="49"/>
      <point x="422" y="19"/>
      <point x="338" y="19" type="curve" smooth="yes"/>
      <point x="287" y="19"/>
      <point x="205" y="19"/>
      <point x="99" y="19" type="curve" smooth="yes"/>
      <point x="92" y="19"/>
      <point x="91" y="20"/>
      <point x="97" y="27" type="curve" smooth="yes"/>
      <point x="559" y="612" type="line" smooth="yes"/>
      <point x="563" y="616"/>
      <point x="560" y="625"/>
      <point x="554" y="625" type="curve" smooth="yes"/>
      <point x="396" y="625"/>
      <point x="298" y="625"/>
      <point x="226" y="625" type="curve" smooth="yes"/>
      <point x="180" y="625"/>
      <point x="174" y="628"/>
      <point x="181" y="651" type="curve" smooth="yes"/>
      <point x="184" y="655"/>
      <point x="171" y="658"/>
      <point x="170" y="655" type="curve" smooth="yes"/>
      <point x="108" y="504" type="line" smooth="yes"/>
      <point x="105" y="499"/>
      <point x="116" y="496"/>
      <point x="118" y="501" type="curve" smooth="yes"/>
      <point x="167" y="606"/>
      <point x="167" y="608"/>
      <point x="487" y="608" type="curve" smooth="yes"/>
      <point x="495" y="608"/>
      <point x="495" y="607"/>
      <point x="489" y="600" type="curve" smooth="yes"/>
      <point x="22" y="13" type="line" smooth="yes"/>
      <point x="19" y="8"/>
      <point x="20" y="0"/>
      <point x="26" y="0" type="curve" smooth="yes"/>
      <point x="159" y="0"/>
      <point x="323" y="0"/>
      <point x="456" y="-2" type="curve" smooth="yes"/>
    </contour>
    <contour>
      <point x="349" y="625" type="move" name="top"/>
    </contour>
    <contour>
      <point x="239" y="0" type="move" name="bottom"/>
    </contour>
  </outline>
</glyph>
<glyph name="bracketleft" format="1">
  <advance width="247"/>
  <unicode hex="005B"/>
  <outline>
    <contour>
      <point x="80" y="-117"/>
      <point x="133" y="-117"/>
      <point x="160" y="-117" type="curve" smooth="yes"/>
      <point x="166" y="-117"/>
      <point x="166" y="-105"/>
      <point x="160" y="-105" type="curve" smooth="yes"/>
      <point x="88" y="-105"/>
      <point x="77" y="-91"/>
      <point x="88" y="-34" type="curve" smooth="yes"/>
      <point x="207" y="642" type="line" smooth="yes"/>
      <point x="216" y="699"/>
      <point x="234" y="713"/>
      <point x="306" y="713" type="curve" smooth="yes"/>
      <point x="311" y="713"/>
      <point x="311" y="725"/>
      <point x="306" y="725" type="curve" smooth="yes"/>
      <point x="280" y="725"/>
      <point x="228" y="725"/>
      <point x="186" y="725" type="curve" smooth="yes"/>
      <point x="179" y="725"/>
      <point x="178" y="724"/>
      <point x="177" y="715" type="curve" smooth="yes"/>
      <point x="32" y="-106" type="line" smooth="yes"/>
      <point x="29" y="-116"/>
      <point x="30" y="-117"/>
      <point x="37" y="-117" type="curve" smooth="yes"/>
    </contour>
    <contour>
      <point x="119" y="12" type="move" name="ogonek"/>
    </contour>
    <contour>
      <point x="242" y="625" type="move" name="top"/>
    </contour>
  </outline>
</glyph>
<glyph name="backslash" format="1">
  <advance width="305"/>
  <unicode hex="005C"/>
  <outline>
    <contour>
      <point x="188" y="-172"/>
      <point x="222" y="-167"/>
      <point x="221" y="-159" type="curve" smooth="yes"/>
      <point x="149" y="727" type="line" smooth="yes"/>
      <point x="147" y="737"/>
      <point x="113" y="732"/>
      <point x="115" y="723" type="curve" smooth="yes"/>
      <point x="187" y="-163" type="line" smooth="yes"/>
    </contour>
  </outline>
</glyph>
<glyph name="bracketright" format="1">
  <advance width="247"/>
  <unicode hex="005D"/>
  <outline>
    <component base="bracketleft" xOffset="287" yOffset="608" xScale="-1" yScale="-1"/>
    <contour>
      <point x="-76" y="12" type="move" name="ogonek"/>
    </contour>
    <contour>
      <point x="198" y="625" type="move" name="top"/>
    </contour>
  </outline>
</glyph>
<glyph name="underscore" format="1">
  <advance width="363"/>
  <unicode hex="005F"/>
  <outline>
    <contour>
      <point x="311" y="-75" type="line" smooth="yes"/>
      <point x="317" y="-75"/>
      <point x="317" y="-37"/>
      <point x="311" y="-37" type="curve" smooth="yes"/>
      <point x="-8" y="-37" type="line" smooth="yes"/>
      <point x="-13" y="-37"/>
      <point x="-13" y="-75"/>
      <point x="-7" y="-75" type="curve" smooth="yes"/>
    </contour>
  </outline>
</glyph>
<glyph name="grave" format="1">
  <advance width="166"/>
  <unicode hex="0060"/>
  <outline>
    <contour>
      <point x="172" y="471"/>
      <point x="181" y="473"/>
      <point x="181" y="476" type="curve" smooth="yes"/>
      <point x="181" y="716" type="line" smooth="yes"/>
      <point x="181" y="724"/>
      <point x="133" y="737"/>
      <point x="135" y="727" type="curve" smooth="yes"/>
      <point x="172" y="475" type="line" smooth="yes"/>
    </contour>
    <contour>
      <point x="154" y="386" type="move" name="_top"/>
    </contour>
  </outline>
</glyph>
<glyph name="a" format="1">
  <advance width="432"/>
  <unicode hex="0061"/>
  <outline>
    <contour>
      <point x="161" y="-13"/>
      <point x="257" y="97"/>
      <point x="320" y="246" type="curve"/>
      <point x="304" y="229" type="line"/>
      <point x="280" y="89" type="line" smooth="yes"/>
      <point x="267" y="16"/>
      <point x="273" y="-9"/>
      <point x="304" y="-9" type="curve" smooth="yes"/>
      <point x="338" y="-9"/>
      <point x="372" y="19"/>
      <point x="416" y="69" type="curve" smooth="yes"/>
      <point x="420" y="73"/>
      <point x="412" y="81"/>
      <point x="408" y="77" type="curve" smooth="yes"/>
      <point x="379" y="47"/>
      <point x="354" y="28"/>
      <point x="338" y="28" type="curve" smooth="yes"/>
      <point x="322" y="28"/>
      <point x="315" y="48"/>
      <point x="322" y="89" type="curve" smooth="yes"/>
      <point x="380" y="406" type="line"/>
      <point x="381" y="409"/>
      <point x="370" y="411"/>
      <point x="368" y="407" type="curve"/>
      <point x="364" y="381"/>
      <point x="337" y="360"/>
      <point x="322" y="357" type="curve"/>
      <point x="360" y="332" type="line"/>
      <point x="356" y="380"/>
      <point x="318" y="399"/>
      <point x="282" y="399" type="curve" smooth="yes"/>
      <point x="177" y="399"/>
      <point x="43" y="237"/>
      <point x="22" y="91" type="curve" smooth="yes"/>
      <point x="12" y="16"/>
      <point x="37" y="-13"/>
      <point x="80" y="-13" type="curve" smooth="yes"/>
    </contour>
    <contour>
      <point x="70" y="30"/>
      <point x="60" y="64"/>
      <point x="69" y="127" type="curve" smooth="yes"/>
      <point x="89" y="262"/>
      <point x="178" y="365"/>
      <point x="251" y="367" type="curve" smooth="yes"/>
      <point x="303" y="368"/>
      <point x="323" y="329"/>
      <point x="313" y="283" type="curve" smooth="yes"/>
      <point x="288" y="165"/>
      <point x="186" y="30"/>
      <point x="109" y="30" type="curve" smooth="yes"/>
    </contour>
    <contour>
      <point x="371" y="12" type="move" name="ogonek"/>
    </contour>
    <contour>
      <point x="220" y="0" type="move" name="bottom"/>
    </contour>
    <contour>
      <point x="273" y="386" type="move" name="top"/>
    </contour>
  </outline>
</glyph>
<glyph name="b" format="1">
  <advance width="430"/>
  <unicode hex="0062"/>
  <outline>
    <contour>
      <point x="235" y="-13"/>
      <point x="373" y="78"/>
      <point x="408" y="251" type="curve" smooth="yes"/>
      <point x="426" y="337"/>
      <point x="393" y="399"/>
      <point x="331" y="399" type="curve" smooth="yes"/>
      <point x="226" y="399"/>
      <point x="118" y="269"/>
      <point x="94" y="116" type="curve"/>
      <point x="99" y="96" type="line"/>
      <point x="129" y="253"/>
      <point x="208" y="359"/>
      <point x="294" y="359" type="curve" smooth="yes"/>
      <point x="356" y="359"/>
      <point x="367" y="296"/>
      <point x="352" y="220" type="curve" smooth="yes"/>
      <point x="327" y="88"/>
      <point x="253" y="12"/>
      <point x="187" y="12" type="curve" smooth="yes"/>
      <point x="127" y="12"/>
      <point x="91" y="47"/>
      <point x="99" y="96" type="curve" smooth="yes"/>
      <point x="213" y="717" type="line"/>
      <point x="214" y="720"/>
      <point x="207" y="727"/>
      <point x="202" y="725" type="curve" smooth="yes"/>
      <point x="80" y="665" type="line" smooth="yes"/>
      <point x="74" y="663"/>
      <point x="78" y="651"/>
      <point x="84" y="654" type="curve" smooth="yes"/>
      <point x="146" y="684"/>
      <point x="164" y="670"/>
      <point x="156" y="627" type="curve" smooth="yes"/>
      <point x="51" y="75" type="line" smooth="yes"/>
      <point x="41" y="20"/>
      <point x="81" y="-13"/>
      <point x="145" y="-13" type="curve" smooth="yes"/>
    </contour>
    <contour>
      <point x="249" y="386" type="move" name="top"/>
    </contour>
    <contour>
      <point x="181" y="0" type="move" name="bottom"/>
    </contour>
  </outline>
</glyph>
<glyph name="c" format="1">
  <advance width="345"/>
  <unicode hex="0063"/>
  <outline>
    <contour>
      <point x="205" y="-13"/>
      <point x="256" y="9"/>
      <point x="312" y="58" type="curve" smooth="yes"/>
      <point x="316" y="62"/>
      <point x="308" y="70"/>
      <point x="304" y="67" type="curve" smooth="yes"/>
      <point x="275" y="43"/>
      <point x="242" y="18"/>
      <point x="193" y="18" type="curve" smooth="yes"/>
      <point x="96" y="18"/>
      <point x="68" y="122"/>
      <point x="89" y="232" type="curve" smooth="yes"/>
      <point x="104" y="311"/>
      <point x="143" y="379"/>
      <point x="215" y="379" type="curve" smooth="yes"/>
      <point x="251" y="379"/>
      <point x="267" y="356"/>
      <point x="271" y="342" type="curve" smooth="yes"/>
      <point x="278" y="323"/>
      <point x="289" y="313"/>
      <point x="304" y="313" type="curve" smooth="yes"/>
      <point x="322" y="313"/>
      <point x="331" y="327"/>
      <point x="332" y="342" type="curve" smooth="yes"/>
      <point x="336" y="374"/>
      <point x="296" y="399"/>
      <point x="248" y="399" type="curve" smooth="yes"/>
      <point x="163" y="399"/>
      <point x="63" y="329"/>
      <point x="36" y="202" type="curve" smooth="yes"/>
      <point x="15" y="105"/>
      <point x="43" y="-13"/>
      <point x="156" y="-13" type="curve" smooth="yes"/>
    </contour>
    <contour>
      <point x="225" y="386" type="move" name="top"/>
    </contour>
    <contour>
      <point x="151" y="0" type="move" name="bottom"/>
    </contour>
  </outline>
</glyph>
<glyph name="d" format="1">
  <advance width="443"/>
  <unicode hex="0064"/>
  <outline>
    <contour>
      <point x="191" y="-13"/>
      <point x="271" y="96"/>
      <point x="333" y="246" type="curve"/>
      <point x="373" y="332" type="line"/>
      <point x="368" y="380"/>
      <point x="331" y="399"/>
      <point x="295" y="399" type="curve" smooth="yes"/>
      <point x="178" y="399"/>
      <point x="54" y="274"/>
      <point x="28" y="126" type="curve" smooth="yes"/>
      <point x="11" y="23"/>
      <point x="55" y="-13"/>
      <point x="104" y="-13" type="curve" smooth="yes"/>
    </contour>
    <contour>
      <point x="87" y="30"/>
      <point x="60" y="73"/>
      <point x="75" y="163" type="curve" smooth="yes"/>
      <point x="98" y="295"/>
      <point x="175" y="365"/>
      <point x="264" y="367" type="curve" smooth="yes"/>
      <point x="312" y="368"/>
      <point x="336" y="337"/>
      <point x="326" y="283" type="curve" smooth="yes"/>
      <point x="311" y="199"/>
      <point x="223" y="30"/>
      <point x="132" y="30" type="curve" smooth="yes"/>
    </contour>
    <contour>
      <point x="349" y="-9"/>
      <point x="382" y="19"/>
      <point x="427" y="69" type="curve" smooth="yes"/>
      <point x="432" y="74"/>
      <point x="423" y="82"/>
      <point x="419" y="77" type="curve" smooth="yes"/>
      <point x="389" y="47"/>
      <point x="365" y="28"/>
      <point x="350" y="28" type="curve" smooth="yes"/>
      <point x="332" y="28"/>
      <point x="324" y="48"/>
      <point x="332" y="89" type="curve" smooth="yes"/>
      <point x="449" y="717" type="line" smooth="yes"/>
      <point x="450" y="720"/>
      <point x="443" y="727"/>
      <point x="439" y="725" type="curve" smooth="yes"/>
      <point x="316" y="665" type="line" smooth="yes"/>
      <point x="310" y="663"/>
      <point x="315" y="651"/>
      <point x="320" y="654" type="curve" smooth="yes"/>
      <point x="382" y="684"/>
      <point x="400" y="670"/>
      <point x="392" y="627" type="curve" smooth="yes"/>
      <point x="290" y="89" type="line" smooth="yes"/>
      <point x="276" y="16"/>
      <point x="283" y="-9"/>
      <point x="315" y="-9" type="curve" smooth="yes"/>
    </contour>
    <contour>
      <point x="212" y="0" type="move" name="bottom"/>
    </contour>
    <contour>
      <point x="256" y="386" type="move" name="top"/>
    </contour>
    <contour>
      <point x="419" y="386" type="move" name="topright"/>
    </contour>
    <contour>
      <point x="187" y="193" type="move" name="center"/>
    </contour>
  </outline>
</glyph>
<glyph name="e" format="1">
  <advance width="339"/>
  <unicode hex="0065"/>
  <outline>
    <contour>
      <point x="200" y="-12"/>
      <point x="246" y="4"/>
      <point x="297" y="44" type="curve"/>
      <point x="301" y="48"/>
      <point x="294" y="55"/>
      <point x="290" y="53" type="curve"/>
      <point x="256" y="28"/>
      <point x="220" y="20"/>
      <point x="187" y="20" type="curve" smooth="yes"/>
      <point x="101" y="20"/>
      <point x="63" y="104"/>
      <point x="85" y="218" type="curve" smooth="yes"/>
      <point x="99" y="301"/>
      <point x="142" y="372"/>
      <point x="215" y="372" type="curve" smooth="yes"/>
      <point x="243" y="372"/>
      <point x="275" y="361"/>
      <point x="264" y="324" type="curve" smooth="yes"/>
      <point x="250" y="273"/>
      <point x="173" y="240"/>
      <point x="69" y="226" type="curve"/>
      <point x="67" y="213" type="line"/>
      <point x="193" y="228"/>
      <point x="308" y="283"/>
      <point x="322" y="345" type="curve" smooth="yes"/>
      <point x="329" y="378"/>
      <point x="305" y="399"/>
      <point x="258" y="399" type="curve" smooth="yes"/>
      <point x="147" y="399"/>
      <point x="50" y="284"/>
      <point x="33" y="185" type="curve" smooth="yes"/>
      <point x="13" y="80"/>
      <point x="50" y="-12"/>
      <point x="154" y="-12" type="curve" smooth="yes"/>
    </contour>
    <contour>
      <point x="260" y="12" type="move" name="ogonek"/>
    </contour>
    <contour>
      <point x="188" y="-12" type="move" name="bottom"/>
    </contour>
    <contour>
      <point x="226" y="386" type="move" name="top"/>
    </contour>
  </outline>
</glyph>
<glyph name="f" format="1">
  <advance width="260"/>
  <unicode hex="0066"/>
  <outline>
    <contour>
      <point x="39" y="-275"/>
      <point x="73" y="-212"/>
      <point x="101" y="-21" type="curve" smooth="yes"/>
      <point x="167" y="439" type="line" smooth="yes"/>
      <point x="193" y="620"/>
      <point x="233" y="712"/>
      <point x="287" y="712" type="curve" smooth="yes"/>
      <point x="330" y="712"/>
      <point x="320" y="649"/>
      <point x="354" y="649" type="curve" smooth="yes"/>
      <point x="368" y="649"/>
      <point x="381" y="656"/>
      <point x="385" y="675" type="curve" smooth="yes"/>
      <point x="388" y="701"/>
      <point x="363" y="726"/>
      <point x="318" y="726" type="curve" smooth="yes"/>
      <point x="204" y="726"/>
      <point x="160" y="660"/>
      <point x="120" y="418" type="curve" smooth="yes"/>
      <point x="115" y="384"/>
      <point x="97" y="373"/>
      <point x="48" y="373" type="curve" smooth="yes"/>
      <point x="44" y="373"/>
      <point x="42" y="361"/>
      <point x="47" y="361" type="curve" smooth="yes"/>
      <point x="105" y="361"/>
      <point x="111" y="356"/>
      <point x="104" y="306" type="curve" smooth="yes"/>
      <point x="53" y="-47" type="line" smooth="yes"/>
      <point x="27" y="-227"/>
      <point x="15" y="-257"/>
      <point x="-9" y="-257" type="curve" smooth="yes"/>
      <point x="-41" y="-257"/>
      <point x="-26" y="-207"/>
      <point x="-64" y="-207" type="curve" smooth="yes"/>
      <point x="-84" y="-207"/>
      <point x="-97" y="-220"/>
      <point x="-98" y="-235" type="curve" smooth="yes"/>
      <point x="-101" y="-255"/>
      <point x="-85" y="-275"/>
      <point x="-41" y="-275" type="curve" smooth="yes"/>
    </contour>
    <contour>
      <point x="250" y="340"/>
      <point x="268" y="363"/>
      <point x="270" y="374" type="curve" smooth="yes"/>
      <point x="271" y="379"/>
      <point x="269" y="382"/>
      <point x="263" y="382" type="curve" smooth="yes"/>
      <point x="250" y="382"/>
      <point x="174" y="375"/>
      <point x="132" y="375" type="curve"/>
      <point x="130" y="353" type="line"/>
      <point x="172" y="353"/>
      <point x="208" y="347"/>
      <point x="236" y="343" type="curve" smooth="yes"/>
    </contour>
    <contour>
      <point x="164" y="386" type="move" name="top"/>
    </contour>
    <contour>
      <point x="96" y="0" type="move" name="bottom"/>
    </contour>
  </outline>
</glyph>
<glyph name="g" format="1">
  <advance width="377"/>
  <unicode hex="0067"/>
  <outline>
    <contour>
      <point x="216" y="-281"/>
      <point x="308" y="-215"/>
      <point x="313" y="-146" type="curve" smooth="yes"/>
      <point x="324" y="-32"/>
      <point x="97" y="-19"/>
      <point x="108" y="65" type="curve" smooth="yes"/>
      <point x="110" y="85"/>
      <point x="126" y="106"/>
      <point x="142" y="115" type="curve"/>
      <point x="131" y="123" type="line"/>
      <point x="98" y="94"/>
      <point x="74" y="70"/>
      <point x="68" y="41" type="curve" smooth="yes"/>
      <point x="50" y="-55"/>
      <point x="278" y="-68"/>
      <point x="273" y="-175" type="curve" smooth="yes"/>
      <point x="270" y="-221"/>
      <point x="227" y="-254"/>
      <point x="153" y="-254" type="curve" smooth="yes"/>
      <point x="55" y="-254"/>
      <point x="-5" y="-202"/>
      <point x="6" y="-138" type="curve" smooth="yes"/>
      <point x="15" y="-83"/>
      <point x="74" y="-56"/>
      <point x="124" y="-26" type="curve"/>
      <point x="117" y="-18" type="line"/>
      <point x="41" y="-61"/>
      <point x="-27" y="-101"/>
      <point x="-41" y="-159" type="curve" smooth="yes"/>
      <point x="-56" y="-221"/>
      <point x="-1" y="-281"/>
      <point x="106" y="-281" type="curve" smooth="yes"/>
    </contour>
    <contour>
      <point x="219" y="98"/>
      <point x="295" y="156"/>
      <point x="313" y="246" type="curve" smooth="yes"/>
      <point x="331" y="325"/>
      <point x="297" y="392"/>
      <point x="220" y="392" type="curve" smooth="yes"/>
      <point x="142" y="392"/>
      <point x="71" y="330"/>
      <point x="55" y="246" type="curve" smooth="yes"/>
      <point x="37" y="166"/>
      <point x="73" y="98"/>
      <point x="150" y="98" type="curve" smooth="yes"/>
    </contour>
    <contour>
      <point x="112" y="116"/>
      <point x="87" y="205"/>
      <point x="101" y="276" type="curve" smooth="yes"/>
      <point x="111" y="333"/>
      <point x="152" y="375"/>
      <point x="195" y="375" type="curve" smooth="yes"/>
      <point x="260" y="375"/>
      <point x="280" y="281"/>
      <point x="268" y="214" type="curve" smooth="yes"/>
      <point x="256" y="152"/>
      <point x="216" y="116"/>
      <point x="175" y="116" type="curve" smooth="yes"/>
    </contour>
    <contour>
      <point x="296" y="359"/>
      <point x="343" y="364"/>
      <point x="374" y="349" type="curve" smooth="yes"/>
      <point x="382" y="344"/>
      <point x="394" y="393"/>
      <point x="382" y="393" type="curve" smooth="yes"/>
      <point x="344" y="393"/>
      <point x="296" y="377"/>
      <point x="256" y="353" type="curve"/>
      <point x="257" y="346" type="line"/>
    </contour>
    <contour>
      <point x="168" y="108" type="move" name="bottom"/>
    </contour>
    <contour>
      <point x="213" y="381" type="move" name="top"/>
    </contour>
    <contour>
      <point x="345" y="381" type="move" name="topright"/>
    </contour>
    <contour>
      <point x="209" y="244" type="move" name="center"/>
    </contour>
  </outline>
</glyph>
<glyph name="h" format="1">
  <advance width="443"/>
  <unicode hex="0068"/>
  <outline>
    <contour>
      <point x="78" y="-8"/>
      <point x="88" y="-2"/>
      <point x="89" y="6" type="curve" smooth="yes"/>
      <point x="219" y="717" type="line" smooth="yes"/>
      <point x="220" y="720"/>
      <point x="213" y="727"/>
      <point x="208" y="725" type="curve" smooth="yes"/>
      <point x="85" y="665" type="line" smooth="yes"/>
      <point x="80" y="663"/>
      <point x="84" y="651"/>
      <point x="90" y="654" type="curve" smooth="yes"/>
      <point x="152" y="684"/>
      <point x="170" y="670"/>
      <point x="161" y="627" type="curve" smooth="yes"/>
      <point x="57" y="74" type="line" smooth="yes"/>
      <point x="51" y="39"/>
      <point x="42" y="2"/>
      <point x="42" y="-2" type="curve" smooth="yes"/>
      <point x="42" y="-6"/>
      <point x="46" y="-8"/>
      <point x="63" y="-8" type="curve" smooth="yes"/>
    </contour>
    <contour>
      <point x="350" y="-9"/>
      <point x="384" y="19"/>
      <point x="428" y="69" type="curve" smooth="yes"/>
      <point x="433" y="74"/>
      <point x="425" y="82"/>
      <point x="420" y="77" type="curve" smooth="yes"/>
      <point x="391" y="47"/>
      <point x="366" y="28"/>
      <point x="350" y="28" type="curve" smooth="yes"/>
      <point x="333" y="28"/>
      <point x="326" y="48"/>
      <point x="333" y="89" type="curve" smooth="yes"/>
      <point x="366" y="267" type="line" smooth="yes"/>
      <point x="382" y="361"/>
      <point x="366" y="399"/>
      <point x="309" y="399" type="curve" smooth="yes"/>
      <point x="211" y="399"/>
      <point x="119" y="239"/>
      <point x="78" y="7" type="curve"/>
      <point x="89" y="6" type="line"/>
      <point x="131" y="234"/>
      <point x="215" y="365"/>
      <point x="281" y="365" type="curve" smooth="yes"/>
      <point x="324" y="365"/>
      <point x="335" y="327"/>
      <point x="320" y="248" type="curve" smooth="yes"/>
      <point x="291" y="89" type="line" smooth="yes"/>
      <point x="278" y="16"/>
      <point x="284" y="-9"/>
      <point x="316" y="-9" type="curve" smooth="yes"/>
    </contour>
    <contour>
      <point x="229" y="193" type="move" name="center"/>
    </contour>
    <contour>
      <point x="212" y="0" type="move" name="bottom"/>
    </contour>
    <contour>
      <point x="256" y="386" type="move" name="top"/>
    </contour>
  </outline>
</glyph>
<glyph name="l" format="1">
  <advance width="235"/>
  <unicode hex="006C"/>
  <outline>
    <contour>
      <point x="124" y="-9"/>
      <point x="158" y="19"/>
      <point x="202" y="69" type="curve" smooth="yes"/>
      <point x="207" y="74"/>
      <point x="199" y="82"/>
      <point x="194" y="77" type="curve" smooth="yes"/>
      <point x="165" y="47"/>
      <point x="140" y="28"/>
      <point x="125" y="28" type="curve" smooth="yes"/>
      <point x="108" y="28"/>
      <point x="99" y="48"/>
      <point x="108" y="89" type="curve" smooth="yes"/>
      <point x="225" y="717" type="line" smooth="yes"/>
      <point x="226" y="720"/>
      <point x="219" y="727"/>
      <point x="214" y="725" type="curve" smooth="yes"/>
      <point x="91" y="665" type="line" smooth="yes"/>
      <point x="85" y="663"/>
      <point x="90" y="651"/>
      <point x="96" y="654" type="curve" smooth="yes"/>
      <point x="158" y="684"/>
      <point x="173" y="670"/>
      <point x="165" y="627" type="curve" smooth="yes"/>
      <point x="64" y="89" type="line" smooth="yes"/>
      <point x="50" y="16"/>
      <point x="58" y="-9"/>
      <point x="90" y="-9" type="curve" smooth="yes"/>
    </contour>
    <contour>
      <point x="92" y="0" type="move" name="bottom"/>
    </contour>
    <contour>
      <point x="166" y="662" type="move" name="top"/>
    </contour>
    <contour>
      <point x="209" y="386" type="move" name="topright"/>
    </contour>
    <contour>
      <point x="118" y="193" type="move" name="center"/>
    </contour>
  </outline>
</glyph>
<glyph name="m" format="1">
  <advance width="674"/>
  <unicode hex="006D"/>
  <outline>
    <contour>
      <point x="580" y="-9"/>
      <point x="614" y="19"/>
      <point x="658" y="69" type="curve" smooth="yes"/>
      <point x="663" y="74"/>
      <point x="655" y="82"/>
      <point x="650" y="77" type="curve" smooth="yes"/>
      <point x="621" y="47"/>
      <point x="596" y="28"/>
      <point x="580" y="28" type="curve" smooth="yes"/>
      <point x="564" y="28"/>
      <point x="557" y="48"/>
      <point x="564" y="89" type="curve" smooth="yes"/>
      <point x="596" y="267" type="line" smooth="yes"/>
      <point x="612" y="361"/>
      <point x="596" y="399"/>
      <point x="543" y="399" type="curve" smooth="yes"/>
      <point x="447" y="399"/>
      <point x="357" y="239"/>
      <point x="317" y="7" type="curve"/>
      <point x="327" y="6" type="line"/>
      <point x="368" y="234"/>
      <point x="451" y="365"/>
      <point x="515" y="365" type="curve" smooth="yes"/>
      <point x="554" y="365"/>
      <point x="564" y="327"/>
      <point x="551" y="248" type="curve" smooth="yes"/>
      <point x="522" y="89" type="line" smooth="yes"/>
      <point x="509" y="16"/>
      <point x="515" y="-9"/>
      <point x="546" y="-9" type="curve" smooth="yes"/>
    </contour>
    <contour>
      <point x="97" y="-8"/>
      <point x="106" y="-2"/>
      <point x="108" y="6" type="curve" smooth="yes"/>
      <point x="160" y="297" type="line" smooth="yes"/>
      <point x="173" y="370"/>
      <point x="167" y="395"/>
      <point x="136" y="395" type="curve" smooth="yes"/>
      <point x="102" y="395"/>
      <point x="65" y="370"/>
      <point x="21" y="319" type="curve" smooth="yes"/>
      <point x="16" y="315"/>
      <point x="25" y="306"/>
      <point x="29" y="311" type="curve" smooth="yes"/>
      <point x="58" y="342"/>
      <point x="85" y="358"/>
      <point x="101" y="358" type="curve" smooth="yes"/>
      <point x="118" y="358"/>
      <point x="125" y="338"/>
      <point x="118" y="297" type="curve" smooth="yes"/>
      <point x="76" y="68" type="line" smooth="yes"/>
      <point x="70" y="39"/>
      <point x="62" y="2"/>
      <point x="62" y="-2" type="curve" smooth="yes"/>
      <point x="62" y="-6"/>
      <point x="64" y="-8"/>
      <point x="82" y="-8" type="curve" smooth="yes"/>
    </contour>
    <contour>
      <point x="317" y="-8"/>
      <point x="326" y="-2"/>
      <point x="327" y="6" type="curve" smooth="yes"/>
      <point x="374" y="267" type="line" smooth="yes"/>
      <point x="392" y="361"/>
      <point x="374" y="399"/>
      <point x="323" y="399" type="curve" smooth="yes"/>
      <point x="227" y="399"/>
      <point x="137" y="239"/>
      <point x="97" y="7" type="curve"/>
      <point x="108" y="6" type="line"/>
      <point x="149" y="234"/>
      <point x="232" y="365"/>
      <point x="295" y="365" type="curve" smooth="yes"/>
      <point x="331" y="365"/>
      <point x="340" y="327"/>
      <point x="329" y="248" type="curve" smooth="yes"/>
      <point x="297" y="74" type="line" smooth="yes"/>
      <point x="292" y="44"/>
      <point x="282" y="2"/>
      <point x="282" y="-2" type="curve" smooth="yes"/>
      <point x="282" y="-6"/>
      <point x="284" y="-8"/>
      <point x="302" y="-8" type="curve" smooth="yes"/>
    </contour>
    <contour>
      <point x="371" y="386" type="move" name="top"/>
    </contour>
    <contour>
      <point x="309" y="0" type="move" name="bottom"/>
    </contour>
  </outline>
</glyph>
<glyph name="o" format="1">
  <advance width="396"/>
  <unicode hex="006F"/>
  <outline>
    <contour>
      <point x="243" y="-14"/>
      <point x="339" y="68"/>
      <point x="364" y="193" type="curve" smooth="yes"/>
      <point x="386" y="303"/>
      <point x="344" y="399"/>
      <point x="242" y="399" type="curve" smooth="yes"/>
      <point x="144" y="399"/>
      <point x="56" y="309"/>
      <point x="34" y="193" type="curve" smooth="yes"/>
      <point x="12" y="76"/>
      <point x="60" y="-14"/>
      <point x="153" y="-14" type="curve" smooth="yes"/>
    </contour>
    <contour>
      <point x="96" y="11"/>
      <point x="58" y="138"/>
      <point x="80" y="236" type="curve" smooth="yes"/>
      <point x="97" y="320"/>
      <point x="153" y="375"/>
      <point x="213" y="375" type="curve" smooth="yes"/>
      <point x="306" y="375"/>
      <point x="336" y="242"/>
      <point x="318" y="149" type="curve" smooth="yes"/>
      <point x="302" y="61"/>
      <point x="246" y="11"/>
      <point x="188" y="11" type="curve" smooth="yes"/>
    </contour>
    <contour>
      <point x="172" y="0" type="move" name="bottom"/>
    </contour>
    <contour>
      <point x="247" y="12" type="move" name="ogonek"/>
    </contour>
    <contour>
      <point x="223" y="386" type="move" name="top"/>
    </contour>
    <contour>
      <point x="302" y="386" type="move" name="topright"/>
    </contour>
    <contour>
      <point x="198" y="193" type="move" name="center"/>
    </contour>
  </outline>
</glyph>
<glyph name="p" format="1">
  <advance width="407"/>
  <unicode hex="0070"/>
  <outline>
    <contour>
      <point x="113" y="-250" type="line" smooth="yes"/>
      <point x="119" y="-249"/>
      <point x="116" y="-237"/>
      <point x="111" y="-239" type="curve" smooth="yes"/>
      <point x="54" y="-247"/>
      <point x="42" y="-233"/>
      <point x="51" y="-178" type="curve" smooth="yes"/>
      <point x="164" y="456" type="line" smooth="yes"/>
      <point x="165" y="461"/>
      <point x="154" y="463"/>
      <point x="153" y="458" type="curve" smooth="yes"/>
      <point x="146" y="418"/>
      <point x="109" y="393"/>
      <point x="108" y="386" type="curve" smooth="yes"/>
      <point x="6" y="-185" type="line" smooth="yes"/>
      <point x="-5" y="-247"/>
      <point x="-12" y="-256"/>
      <point x="-57" y="-263" type="curve" smooth="yes"/>
      <point x="-62" y="-264"/>
      <point x="-60" y="-276"/>
      <point x="-55" y="-275" type="curve" smooth="yes"/>
    </contour>
    <contour>
      <point x="250" y="-1"/>
      <point x="359" y="116"/>
      <point x="378" y="253" type="curve" smooth="yes"/>
      <point x="391" y="344"/>
      <point x="358" y="393"/>
      <point x="285" y="393" type="curve" smooth="yes"/>
      <point x="205" y="393"/>
      <point x="118" y="335"/>
      <point x="40" y="264" type="curve" smooth="yes"/>
      <point x="36" y="262"/>
      <point x="44" y="253"/>
      <point x="48" y="255" type="curve" smooth="yes"/>
      <point x="130" y="320"/>
      <point x="187" y="360"/>
      <point x="250" y="360" type="curve" smooth="yes"/>
      <point x="333" y="360"/>
      <point x="339" y="290"/>
      <point x="330" y="220" type="curve" smooth="yes"/>
      <point x="315" y="109"/>
      <point x="264" y="27"/>
      <point x="171" y="27" type="curve" smooth="yes"/>
      <point x="123" y="27"/>
      <point x="92" y="41"/>
      <point x="67" y="58" type="curve"/>
      <point x="57" y="8" type="line"/>
      <point x="76" y="4"/>
      <point x="91" y="-1"/>
      <point x="145" y="-1" type="curve" smooth="yes"/>
    </contour>
    <contour>
      <point x="237" y="386" type="move" name="top"/>
    </contour>
    <contour>
      <point x="170" y="0" type="move" name="bottom"/>
    </contour>
  </outline>
</glyph>
<glyph name="q" format="1">
  <advance width="413"/>
  <unicode hex="0071"/>
  <outline>
    <contour>
      <point x="338" y="-250" type="line" smooth="yes"/>
      <point x="344" y="-249"/>
      <point x="340" y="-237"/>
      <point x="336" y="-239" type="curve" smooth="yes"/>
      <point x="278" y="-247"/>
      <point x="267" y="-228"/>
      <point x="276" y="-178" type="curve" smooth="yes"/>
      <point x="381" y="406" type="line"/>
      <point x="382" y="409"/>
      <point x="371" y="411"/>
      <point x="370" y="407" type="curve"/>
      <point x="365" y="381"/>
      <point x="338" y="360"/>
      <point x="323" y="357" type="curve"/>
      <point x="361" y="332" type="line"/>
      <point x="357" y="380"/>
      <point x="319" y="399"/>
      <point x="283" y="399" type="curve" smooth="yes"/>
      <point x="166" y="399"/>
      <point x="44" y="261"/>
      <point x="25" y="103" type="curve" smooth="yes"/>
      <point x="18" y="39"/>
      <point x="48" y="-13"/>
      <point x="98" y="-13" type="curve" smooth="yes"/>
      <point x="172" y="-13"/>
      <point x="258" y="64"/>
      <point x="309" y="202" type="curve"/>
      <point x="301" y="205" type="line"/>
      <point x="232" y="-185" type="line" smooth="yes"/>
      <point x="220" y="-247"/>
      <point x="214" y="-256"/>
      <point x="168" y="-263" type="curve" smooth="yes"/>
      <point x="164" y="-264"/>
      <point x="166" y="-276"/>
      <point x="171" y="-275" type="curve" smooth="yes"/>
    </contour>
    <contour>
      <point x="82" y="30"/>
      <point x="65" y="67"/>
      <point x="71" y="139" type="curve" smooth="yes"/>
      <point x="90" y="285"/>
      <point x="167" y="365"/>
      <point x="253" y="367" type="curve" smooth="yes"/>
      <point x="301" y="371"/>
      <point x="323" y="335"/>
      <point x="310" y="258" type="curve" smooth="yes"/>
      <point x="288" y="131"/>
      <point x="205" y="30"/>
      <point x="122" y="30" type="curve" smooth="yes"/>
    </contour>
    <contour>
      <point x="241" y="386" type="move" name="top"/>
    </contour>
    <contour>
      <point x="173" y="0" type="move" name="bottom"/>
    </contour>
  </outline>
</glyph>
<glyph name="r" format="1">
  <advance width="336"/>
  <unicode hex="0072"/>
  <outline>
    <contour>
      <point x="129" y="127"/>
      <point x="212" y="353"/>
      <point x="261" y="353" type="curve" smooth="yes"/>
      <point x="281" y="353"/>
      <point x="278" y="319"/>
      <point x="308" y="319" type="curve" smooth="yes"/>
      <point x="322" y="319"/>
      <point x="333" y="326"/>
      <point x="337" y="343" type="curve" smooth="yes"/>
      <point x="343" y="371"/>
      <point x="312" y="395"/>
      <point x="287" y="395" type="curve" smooth="yes"/>
      <point x="214" y="395"/>
      <point x="122" y="150"/>
      <point x="95" y="7" type="curve"/>
      <point x="105" y="6" type="line"/>
    </contour>
    <contour>
      <point x="95" y="-8"/>
      <point x="104" y="-2"/>
      <point x="105" y="6" type="curve" smooth="yes"/>
      <point x="149" y="249" type="line" smooth="yes"/>
      <point x="170" y="367"/>
      <point x="156" y="395"/>
      <point x="122" y="395" type="curve" smooth="yes"/>
      <point x="89" y="395"/>
      <point x="55" y="372"/>
      <point x="18" y="330" type="curve" smooth="yes"/>
      <point x="15" y="326"/>
      <point x="23" y="319"/>
      <point x="26" y="322" type="curve" smooth="yes"/>
      <point x="43" y="338"/>
      <point x="67" y="358"/>
      <point x="87" y="358" type="curve" smooth="yes"/>
      <point x="104" y="358"/>
      <point x="123" y="340"/>
      <point x="106" y="249" type="curve" smooth="yes"/>
      <point x="75" y="74" type="line" smooth="yes"/>
      <point x="70" y="44"/>
      <point x="60" y="2"/>
      <point x="60" y="-2" type="curve" smooth="yes"/>
      <point x="60" y="-6"/>
      <point x="62" y="-8"/>
      <point x="80" y="-8" type="curve" smooth="yes"/>
    </contour>
    <contour>
      <point x="199" y="386" type="move" name="top"/>
    </contour>
    <contour>
      <point x="90" y="0" type="move" name="bottom"/>
    </contour>
  </outline>
</glyph>
<glyph name="s" format="1">
  <advance width="298"/>
  <unicode hex="0073"/>
  <outline>
    <contour>
      <point x="167" y="-11"/>
      <point x="225" y="42"/>
      <point x="235" y="102" type="curve" smooth="yes"/>
      <point x="253" y="209"/>
      <point x="92" y="234"/>
      <point x="108" y="333" type="curve" smooth="yes"/>
      <point x="112" y="364"/>
      <point x="137" y="375"/>
      <point x="163" y="375" type="curve" smooth="yes"/>
      <point x="215" y="375"/>
      <point x="215" y="325"/>
      <point x="247" y="325" type="curve" smooth="yes"/>
      <point x="258" y="325"/>
      <point x="271" y="332"/>
      <point x="274" y="349" type="curve" smooth="yes"/>
      <point x="278" y="374"/>
      <point x="242" y="396"/>
      <point x="198" y="396" type="curve" smooth="yes"/>
      <point x="144" y="396"/>
      <point x="81" y="364"/>
      <point x="69" y="299" type="curve" smooth="yes"/>
      <point x="49" y="195"/>
      <point x="211" y="178"/>
      <point x="195" y="74" type="curve" smooth="yes"/>
      <point x="189" y="30"/>
      <point x="164" y="8"/>
      <point x="125" y="8" type="curve" smooth="yes"/>
      <point x="58" y="8"/>
      <point x="67" y="73"/>
      <point x="39" y="73" type="curve" smooth="yes"/>
      <point x="27" y="73"/>
      <point x="14" y="65"/>
      <point x="12" y="49" type="curve" smooth="yes"/>
      <point x="7" y="15"/>
      <point x="51" y="-11"/>
      <point x="99" y="-11" type="curve" smooth="yes"/>
    </contour>
    <contour>
      <point x="178" y="386" type="move" name="top"/>
    </contour>
    <contour>
      <point x="106" y="0" type="move" name="bottom"/>
    </contour>
  </outline>
</glyph>
<glyph name="t" format="1">
  <advance width="294"/>
  <unicode hex="0074"/>
  <outline>
    <contour>
      <point x="159" y="-12"/>
      <point x="201" y="8"/>
      <point x="261" y="60" type="curve" smooth="yes"/>
      <point x="264" y="63"/>
      <point x="255" y="70"/>
      <point x="253" y="68" type="curve" smooth="yes"/>
      <point x="225" y="44"/>
      <point x="195" y="21"/>
      <point x="153" y="21" type="curve" smooth="yes"/>
      <point x="111" y="21"/>
      <point x="97" y="46"/>
      <point x="108" y="102" type="curve" smooth="yes"/>
      <point x="170" y="447" type="line" smooth="yes"/>
      <point x="171" y="451"/>
      <point x="154" y="451"/>
      <point x="154" y="447" type="curve" smooth="yes"/>
      <point x="146" y="404"/>
      <point x="112" y="373"/>
      <point x="69" y="373" type="curve" smooth="yes"/>
      <point x="65" y="373"/>
      <point x="63" y="361"/>
      <point x="68" y="361" type="curve" smooth="yes"/>
      <point x="108" y="361"/>
      <point x="111" y="356"/>
      <point x="102" y="306" type="curve" smooth="yes"/>
      <point x="58" y="68" type="line" smooth="yes"/>
      <point x="48" y="7"/>
      <point x="83" y="-12"/>
      <point x="120" y="-12" type="curve" smooth="yes"/>
    </contour>
    <contour>
      <point x="275" y="343"/>
      <point x="291" y="363"/>
      <point x="294" y="374" type="curve" smooth="yes"/>
      <point x="295" y="379"/>
      <point x="292" y="382"/>
      <point x="287" y="382" type="curve" smooth="yes"/>
      <point x="275" y="382"/>
      <point x="189" y="375"/>
      <point x="144" y="375" type="curve"/>
      <point x="142" y="353" type="line"/>
      <point x="189" y="353"/>
      <point x="255" y="343"/>
      <point x="262" y="343" type="curve" smooth="yes"/>
    </contour>
    <contour>
      <point x="120" y="0" type="move" name="bottom"/>
    </contour>
    <contour>
      <point x="181" y="386" type="move" name="top"/>
    </contour>
    <contour>
      <point x="184" y="363" type="move" name="topright"/>
    </contour>
    <contour>
      <point x="123" y="193" type="move" name="center"/>
    </contour>
  </outline>
</glyph>
<glyph name="u" format="1">
  <advance width="462"/>
  <unicode hex="0075"/>
  <outline>
    <contour>
      <point x="232" y="-13"/>
      <point x="323" y="147"/>
      <point x="364" y="379" type="curve"/>
      <point x="353" y="380" type="line"/>
      <point x="311" y="152"/>
      <point x="227" y="21"/>
      <point x="161" y="21" type="curve" smooth="yes"/>
      <point x="118" y="21"/>
      <point x="105" y="58"/>
      <point x="122" y="138" type="curve" smooth="yes"/>
      <point x="154" y="297" type="line" smooth="yes"/>
      <point x="170" y="370"/>
      <point x="161" y="395"/>
      <point x="130" y="395" type="curve" smooth="yes"/>
      <point x="96" y="395"/>
      <point x="62" y="367"/>
      <point x="18" y="317" type="curve" smooth="yes"/>
      <point x="13" y="312"/>
      <point x="21" y="304"/>
      <point x="26" y="309" type="curve" smooth="yes"/>
      <point x="55" y="339"/>
      <point x="80" y="358"/>
      <point x="95" y="358" type="curve" smooth="yes"/>
      <point x="112" y="358"/>
      <point x="120" y="338"/>
      <point x="112" y="297" type="curve" smooth="yes"/>
      <point x="76" y="119" type="line" smooth="yes"/>
      <point x="56" y="25"/>
      <point x="76" y="-13"/>
      <point x="133" y="-13" type="curve" smooth="yes"/>
    </contour>
    <contour>
      <point x="360" y="-9"/>
      <point x="396" y="16"/>
      <point x="441" y="67" type="curve" smooth="yes"/>
      <point x="446" y="71"/>
      <point x="437" y="80"/>
      <point x="433" y="75" type="curve" smooth="yes"/>
      <point x="404" y="44"/>
      <point x="377" y="28"/>
      <point x="361" y="28" type="curve" smooth="yes"/>
      <point x="344" y="28"/>
      <point x="337" y="48"/>
      <point x="344" y="89" type="curve" smooth="yes"/>
      <point x="385" y="312" type="line" smooth="yes"/>
      <point x="391" y="347"/>
      <point x="400" y="384"/>
      <point x="400" y="388" type="curve" smooth="yes"/>
      <point x="400" y="392"/>
      <point x="396" y="394"/>
      <point x="379" y="394" type="curve" smooth="yes"/>
      <point x="364" y="394"/>
      <point x="354" y="388"/>
      <point x="353" y="380" type="curve" smooth="yes"/>
      <point x="302" y="89" type="line" smooth="yes"/>
      <point x="289" y="16"/>
      <point x="295" y="-9"/>
      <point x="326" y="-9" type="curve" smooth="yes"/>
    </contour>
    <contour>
      <point x="265" y="12" type="move" name="ogonek"/>
    </contour>
    <contour>
      <point x="248" y="386" type="move" name="top"/>
    </contour>
    <contour>
      <point x="473" y="386" type="move" name="topright"/>
    </contour>
    <contour>
      <point x="182" y="0" type="move" name="bottom"/>
    </contour>
  </outline>
</glyph>
<glyph name="v" format="1">
  <advance width="428"/>
  <unicode hex="0076"/>
  <outline>
    <contour>
      <point x="261" y="-13"/>
      <point x="367" y="80"/>
      <point x="392" y="239" type="curve" smooth="yes"/>
      <point x="402" y="305"/>
      <point x="400" y="396"/>
      <point x="354" y="396" type="curve" smooth="yes"/>
      <point x="340" y="396"/>
      <point x="319" y="388"/>
      <point x="319" y="366" type="curve" smooth="yes"/>
      <point x="319" y="347"/>
      <point x="336" y="336"/>
      <point x="342" y="331" type="curve" smooth="yes"/>
      <point x="352" y="323"/>
      <point x="388" y="294"/>
      <point x="360" y="194" type="curve" smooth="yes"/>
      <point x="332" y="94"/>
      <point x="267" y="29"/>
      <point x="207" y="29" type="curve" smooth="yes"/>
      <point x="160" y="29"/>
      <point x="132" y="73"/>
      <point x="142" y="149" type="curve" smooth="yes"/>
      <point x="150" y="214"/>
      <point x="184" y="302"/>
      <point x="216" y="375" type="curve" smooth="yes"/>
      <point x="221" y="385"/>
      <point x="220" y="387"/>
      <point x="208" y="387" type="curve" smooth="yes"/>
      <point x="120" y="387" type="line" smooth="yes"/>
      <point x="61" y="387"/>
      <point x="51" y="378"/>
      <point x="22" y="292" type="curve" smooth="yes"/>
      <point x="19" y="285"/>
      <point x="30" y="281"/>
      <point x="33" y="287" type="curve" smooth="yes"/>
      <point x="49" y="336"/>
      <point x="56" y="342"/>
      <point x="108" y="342" type="curve" smooth="yes"/>
      <point x="160" y="342" type="line" smooth="yes"/>
      <point x="175" y="342"/>
      <point x="179" y="335"/>
      <point x="171" y="317" type="curve" smooth="yes"/>
      <point x="146" y="260"/>
      <point x="108" y="191"/>
      <point x="98" y="130" type="curve" smooth="yes"/>
      <point x="88" y="61"/>
      <point x="115" y="-13"/>
      <point x="184" y="-13" type="curve" smooth="yes"/>
    </contour>
    <contour>
      <point x="248" y="386" type="move" name="top"/>
    </contour>
    <contour>
      <point x="180" y="0" type="move" name="bottom"/>
    </contour>
  </outline>
</glyph>
<glyph name="w" format="1">
  <advance width="616"/>
  <unicode hex="0077"/>
  <outline>
    <contour>
      <point x="261" y="-13"/>
      <point x="370" y="80"/>
      <point x="405" y="282" type="curve" smooth="yes"/>
      <point x="415" y="339"/>
      <point x="405" y="392"/>
      <point x="375" y="392" type="curve" smooth="yes"/>
      <point x="344" y="392"/>
      <point x="311" y="319"/>
      <point x="298" y="232" type="curve" smooth="yes"/>
      <point x="277" y="113"/>
      <point x="316" y="-13"/>
      <point x="392" y="-13" type="curve" smooth="yes"/>
      <point x="456" y="-13"/>
      <point x="557" y="80"/>
      <point x="580" y="239" type="curve" smooth="yes"/>
      <point x="589" y="305"/>
      <point x="588" y="396"/>
      <point x="543" y="396" type="curve" smooth="yes"/>
      <point x="529" y="396"/>
      <point x="508" y="388"/>
      <point x="508" y="366" type="curve" smooth="yes"/>
      <point x="508" y="354"/>
      <point x="515" y="346"/>
      <point x="523" y="337" type="curve" smooth="yes"/>
      <point x="540" y="316"/>
      <point x="565" y="287"/>
      <point x="549" y="194" type="curve" smooth="yes"/>
      <point x="530" y="91"/>
      <point x="462" y="25"/>
      <point x="415" y="25" type="curve" smooth="yes"/>
      <point x="340" y="25"/>
      <point x="299" y="129"/>
      <point x="318" y="261" type="curve" smooth="yes"/>
      <point x="322" y="294"/>
      <point x="332" y="337"/>
      <point x="354" y="337" type="curve" smooth="yes"/>
      <point x="375" y="337"/>
      <point x="384" y="305"/>
      <point x="377" y="256" type="curve" smooth="yes"/>
      <point x="357" y="120"/>
      <point x="276" y="25"/>
      <point x="207" y="25" type="curve" smooth="yes"/>
      <point x="160" y="25"/>
      <point x="137" y="73"/>
      <point x="146" y="149" type="curve" smooth="yes"/>
      <point x="154" y="214"/>
      <point x="184" y="302"/>
      <point x="216" y="375" type="curve" smooth="yes"/>
      <point x="221" y="385"/>
      <point x="220" y="387"/>
      <point x="208" y="387" type="curve" smooth="yes"/>
      <point x="120" y="387" type="line" smooth="yes"/>
      <point x="61" y="387"/>
      <point x="51" y="378"/>
      <point x="22" y="292" type="curve" smooth="yes"/>
      <point x="19" y="285"/>
      <point x="30" y="281"/>
      <point x="33" y="287" type="curve" smooth="yes"/>
      <point x="49" y="336"/>
      <point x="56" y="342"/>
      <point x="108" y="342" type="curve" smooth="yes"/>
      <point x="160" y="342" type="line" smooth="yes"/>
      <point x="175" y="342"/>
      <point x="179" y="335"/>
      <point x="171" y="317" type="curve" smooth="yes"/>
      <point x="147" y="262"/>
      <point x="108" y="191"/>
      <point x="98" y="130" type="curve" smooth="yes"/>
      <point x="88" y="61"/>
      <point x="115" y="-13"/>
      <point x="184" y="-13" type="curve" smooth="yes"/>
    </contour>
    <contour>
      <point x="377" y="386" type="move" name="top"/>
    </contour>
    <contour>
      <point x="275" y="0" type="move" name="bottom"/>
    </contour>
  </outline>
</glyph>
<glyph name="x" format="1">
  <advance width="419"/>
  <unicode hex="0078"/>
  <outline>
    <contour>
      <point x="312" y="-9"/>
      <point x="346" y="16"/>
      <point x="391" y="67" type="curve" smooth="yes"/>
      <point x="395" y="71"/>
      <point x="387" y="80"/>
      <point x="382" y="75" type="curve" smooth="yes"/>
      <point x="353" y="44"/>
      <point x="329" y="30"/>
      <point x="312" y="30" type="curve" smooth="yes"/>
      <point x="298" y="30"/>
      <point x="280" y="34"/>
      <point x="265" y="83" type="curve" smooth="yes"/>
      <point x="196" y="325" type="line" smooth="yes"/>
      <point x="180" y="382"/>
      <point x="157" y="395"/>
      <point x="133" y="395" type="curve" smooth="yes"/>
      <point x="106" y="395"/>
      <point x="73" y="370"/>
      <point x="28" y="319" type="curve" smooth="yes"/>
      <point x="23" y="315"/>
      <point x="32" y="306"/>
      <point x="36" y="311" type="curve" smooth="yes"/>
      <point x="65" y="342"/>
      <point x="90" y="356"/>
      <point x="106" y="356" type="curve" smooth="yes"/>
      <point x="120" y="356"/>
      <point x="142" y="349"/>
      <point x="158" y="292" type="curve" smooth="yes"/>
      <point x="227" y="51" type="line" smooth="yes"/>
      <point x="242" y="0"/>
      <point x="262" y="-9"/>
      <point x="285" y="-9" type="curve" smooth="yes"/>
    </contour>
    <contour>
      <point x="78" y="-9"/>
      <point x="91" y="2"/>
      <point x="129" y="63" type="curve" smooth="yes"/>
      <point x="204" y="184" type="line"/>
      <point x="196" y="193" type="line"/>
      <point x="115" y="71" type="line" smooth="yes"/>
      <point x="98" y="47"/>
      <point x="81" y="39"/>
      <point x="67" y="39" type="curve" smooth="yes"/>
      <point x="48" y="39"/>
      <point x="46" y="56"/>
      <point x="26" y="56" type="curve" smooth="yes"/>
      <point x="13" y="56"/>
      <point x="4" y="49"/>
      <point x="1" y="36" type="curve" smooth="yes"/>
      <point x="-2" y="12"/>
      <point x="23" y="-9"/>
      <point x="48" y="-9" type="curve" smooth="yes"/>
    </contour>
    <contour>
      <point x="295" y="315" type="line" smooth="yes"/>
      <point x="311" y="338"/>
      <point x="329" y="347"/>
      <point x="343" y="347" type="curve" smooth="yes"/>
      <point x="361" y="347"/>
      <point x="364" y="330"/>
      <point x="384" y="330" type="curve" smooth="yes"/>
      <point x="396" y="330"/>
      <point x="406" y="337"/>
      <point x="408" y="350" type="curve" smooth="yes"/>
      <point x="412" y="374"/>
      <point x="386" y="395"/>
      <point x="361" y="395" type="curve" smooth="yes"/>
      <point x="332" y="395"/>
      <point x="319" y="384"/>
      <point x="281" y="323" type="curve" smooth="yes"/>
      <point x="201" y="198" type="line"/>
      <point x="208" y="188" type="line"/>
    </contour>
    <contour>
      <point x="243" y="386" type="move" name="top"/>
    </contour>
    <contour>
      <point x="175" y="0" type="move" name="bottom"/>
    </contour>
  </outline>
</glyph>
<glyph name="y" format="1">
  <advance width="440"/>
  <unicode hex="0079"/>
  <outline>
    <contour>
      <point x="123" y="-281"/>
      <point x="402" y="174"/>
      <point x="402" y="345" type="curve" smooth="yes"/>
      <point x="402" y="374"/>
      <point x="394" y="396"/>
      <point x="368" y="396" type="curve" smooth="yes"/>
      <point x="349" y="396"/>
      <point x="338" y="384"/>
      <point x="338" y="368" type="curve" smooth="yes"/>
      <point x="338" y="350"/>
      <point x="368" y="287"/>
      <point x="352" y="216" type="curve" smooth="yes"/>
      <point x="327" y="116"/>
      <point x="173" y="-137"/>
      <point x="101" y="-188" type="curve" smooth="yes"/>
      <point x="69" y="-211"/>
      <point x="22" y="-222"/>
      <point x="-19" y="-222" type="curve" smooth="yes"/>
      <point x="-37" y="-222"/>
      <point x="-50" y="-228"/>
      <point x="-54" y="-244" type="curve" smooth="yes"/>
      <point x="-57" y="-270"/>
      <point x="-40" y="-281"/>
      <point x="-19" y="-281" type="curve" smooth="yes"/>
    </contour>
    <contour>
      <point x="229" y="-40" type="line"/>
      <point x="241" y="196"/>
      <point x="191" y="395"/>
      <point x="94" y="395" type="curve" smooth="yes"/>
      <point x="58" y="395"/>
      <point x="32" y="370"/>
      <point x="7" y="319" type="curve" smooth="yes"/>
      <point x="5" y="313"/>
      <point x="16" y="310"/>
      <point x="19" y="316" type="curve" smooth="yes"/>
      <point x="34" y="345"/>
      <point x="53" y="354"/>
      <point x="71" y="354" type="curve" smooth="yes"/>
      <point x="149" y="354"/>
      <point x="195" y="185"/>
      <point x="187" y="-108" type="curve"/>
    </contour>
    <contour>
      <point x="229" y="386" type="move" name="top"/>
    </contour>
    <contour>
      <point x="186" y="0" type="move" name="bottom"/>
    </contour>
  </outline>
</glyph>
<glyph name="z" format="1">
  <advance width="344"/>
  <unicode hex="007A"/>
  <outline>
    <contour>
      <point x="21" y="16"/>
      <point x="35" y="22"/>
      <point x="56" y="22" type="curve" smooth="yes"/>
      <point x="116" y="20"/>
      <point x="193" y="-4"/>
      <point x="249" y="-5" type="curve" smooth="yes"/>
      <point x="288" y="-6"/>
      <point x="297" y="0"/>
      <point x="326" y="85" type="curve" smooth="yes"/>
      <point x="327" y="90"/>
      <point x="316" y="92"/>
      <point x="315" y="89" type="curve" smooth="yes"/>
      <point x="301" y="54"/>
      <point x="292" y="41"/>
      <point x="270" y="41" type="curve" smooth="yes"/>
      <point x="233" y="41"/>
      <point x="151" y="64"/>
      <point x="101" y="64" type="curve" smooth="yes"/>
      <point x="73" y="64"/>
      <point x="63" y="60"/>
      <point x="46" y="41" type="curve"/>
      <point x="40" y="29" type="line"/>
      <point x="353" y="388" type="line" smooth="yes"/>
      <point x="356" y="391"/>
      <point x="350" y="399"/>
      <point x="346" y="396" type="curve" smooth="yes"/>
      <point x="326" y="373"/>
      <point x="312" y="367"/>
      <point x="291" y="367" type="curve" smooth="yes"/>
      <point x="239" y="370"/>
      <point x="171" y="391"/>
      <point x="125" y="394" type="curve" smooth="yes"/>
      <point x="83" y="395"/>
      <point x="74" y="389"/>
      <point x="44" y="304" type="curve" smooth="yes"/>
      <point x="41" y="297"/>
      <point x="53" y="292"/>
      <point x="55" y="298" type="curve" smooth="yes"/>
      <point x="69" y="332"/>
      <point x="78" y="349"/>
      <point x="101" y="349" type="curve" smooth="yes"/>
      <point x="133" y="349"/>
      <point x="204" y="325"/>
      <point x="247" y="325" type="curve" smooth="yes"/>
      <point x="275" y="325"/>
      <point x="284" y="330"/>
      <point x="302" y="349" type="curve"/>
      <point x="308" y="360" type="line"/>
      <point x="-6" y="1" type="line" smooth="yes"/>
      <point x="-8" y="-1"/>
      <point x="-2" y="-9"/>
      <point x="1" y="-7" type="curve" smooth="yes"/>
    </contour>
    <contour>
      <point x="184" y="378" type="move" name="top"/>
    </contour>
    <contour>
      <point x="161" y="0" type="move" name="bottom"/>
    </contour>
  </outline>
</glyph>
<glyph name="braceleft" format="1">
  <advance width="260"/>
  <unicode hex="007B"/>
  <outline>
    <contour>
      <point x="177" y="-117"/>
      <point x="177" y="-105"/>
      <point x="173" y="-105" type="curve" smooth="yes"/>
      <point x="126" y="-105"/>
      <point x="106" y="-67"/>
      <point x="118" y="1" type="curve" smooth="yes"/>
      <point x="151" y="211"/>
      <point x="158" y="258"/>
      <point x="75" y="305" type="curve" smooth="yes"/>
      <point x="174" y="351"/>
      <point x="182" y="393"/>
      <point x="225" y="607" type="curve" smooth="yes"/>
      <point x="237" y="675"/>
      <point x="270" y="713"/>
      <point x="319" y="713" type="curve" smooth="yes"/>
      <point x="323" y="713"/>
      <point x="323" y="725"/>
      <point x="319" y="725" type="curve" smooth="yes"/>
      <point x="221" y="725"/>
      <point x="194" y="697"/>
      <point x="165" y="529" type="curve" smooth="yes"/>
      <point x="147" y="429"/>
      <point x="119" y="320"/>
      <point x="47" y="311" type="curve" smooth="yes"/>
      <point x="43" y="311"/>
      <point x="43" y="298"/>
      <point x="47" y="298" type="curve" smooth="yes"/>
      <point x="113" y="289"/>
      <point x="103" y="182"/>
      <point x="85" y="80" type="curve" smooth="yes"/>
      <point x="56" y="-87"/>
      <point x="70" y="-117"/>
      <point x="173" y="-117" type="curve" smooth="yes"/>
    </contour>
  </outline>
</glyph>
<glyph name="bar" format="1">
  <advance width="152"/>
  <unicode hex="007C"/>
  <outline>
    <contour>
      <point x="188" y="727" type="line" smooth="yes"/>
      <point x="189" y="737"/>
      <point x="157" y="740"/>
      <point x="154" y="731" type="curve" smooth="yes"/>
      <point x="0" y="-151" type="line" smooth="yes"/>
      <point x="-2" y="-160"/>
      <point x="30" y="-164"/>
      <point x="33" y="-154" type="curve" smooth="yes"/>
    </contour>
  </outline>
</glyph>
<glyph name="cent" format="1">
  <advance width="487"/>
  <unicode hex="00A2"/>
  <outline>
    <contour>
      <point x="193" y="-110"/>
      <point x="211" y="-112"/>
      <point x="212" y="-103" type="curve" smooth="yes"/>
      <point x="329" y="560" type="line" smooth="yes"/>
      <point x="330" y="570"/>
      <point x="312" y="572"/>
      <point x="311" y="563" type="curve" smooth="yes"/>
      <point x="194" y="-101" type="line" smooth="yes"/>
    </contour>
    <contour>
      <point x="187" y="480"/>
      <point x="62" y="377"/>
      <point x="39" y="240" type="curve" smooth="yes"/>
      <point x="20" y="132"/>
      <point x="56" y="-12"/>
      <point x="239" y="-12" type="curve" smooth="yes"/>
      <point x="278" y="-12"/>
      <point x="331" y="-5"/>
      <point x="387" y="14" type="curve" smooth="yes"/>
      <point x="398" y="20"/>
      <point x="399" y="21"/>
      <point x="401" y="32" type="curve" smooth="yes"/>
      <point x="433" y="138" type="line" smooth="yes"/>
      <point x="434" y="143"/>
      <point x="423" y="146"/>
      <point x="421" y="140" type="curve" smooth="yes"/>
      <point x="385" y="43"/>
      <point x="320" y="0"/>
      <point x="247" y="0" type="curve" smooth="yes"/>
      <point x="115" y="0"/>
      <point x="73" y="130"/>
      <point x="94" y="248" type="curve" smooth="yes"/>
      <point x="116" y="374"/>
      <point x="207" y="467"/>
      <point x="305" y="467" type="curve" smooth="yes"/>
      <point x="391" y="467"/>
      <point x="447" y="427"/>
      <point x="447" y="332" type="curve" smooth="yes"/>
      <point x="447" y="325"/>
      <point x="458" y="325"/>
      <point x="458" y="332" type="curve" smooth="yes"/>
      <point x="467" y="433" type="line" smooth="yes"/>
      <point x="468" y="443"/>
      <point x="468" y="444"/>
      <point x="458" y="450" type="curve" smooth="yes"/>
      <point x="427" y="468"/>
      <point x="371" y="480"/>
      <point x="327" y="480" type="curve" smooth="yes"/>
    </contour>
    <contour>
      <point x="291" y="468" type="move" name="top"/>
    </contour>
    <contour>
      <point x="225" y="0" type="move" name="bottom"/>
    </contour>
  </outline>
</glyph>
<glyph name="sterling" format="1">
  <advance width="388"/>
  <unicode hex="00A3"/>
  <outline>
    <contour>
      <point x="289" y="0" type="line" smooth="yes"/>
      <point x="299" y="0"/>
      <point x="303" y="2"/>
      <point x="304" y="12" type="curve" smooth="yes"/>
      <point x="310" y="48"/>
      <point x="323" y="92"/>
      <point x="331" y="119" type="curve" smooth="yes"/>
      <point x="333" y="125"/>
      <point x="322" y="127"/>
      <point x="320" y="123" type="curve" smooth="yes"/>
      <point x="295" y="54"/>
      <point x="277" y="40"/>
      <point x="201" y="40" type="curve" smooth="yes"/>
      <point x="64" y="40" type="line"/>
      <point x="68" y="29" type="line"/>
      <point x="103" y="53"/>
      <point x="137" y="80"/>
      <point x="149" y="144" type="curve" smooth="yes"/>
      <point x="163" y="226"/>
      <point x="137" y="283"/>
      <point x="151" y="360" type="curve" smooth="yes"/>
      <point x="160" y="413"/>
      <point x="193" y="467"/>
      <point x="263" y="467" type="curve" smooth="yes"/>
      <point x="329" y="467"/>
      <point x="345" y="396"/>
      <point x="339" y="344" type="curve" smooth="yes"/>
      <point x="338" y="337"/>
      <point x="351" y="337"/>
      <point x="352" y="343" type="curve" smooth="yes"/>
      <point x="364" y="443" type="line" smooth="yes"/>
      <point x="364" y="453"/>
      <point x="360" y="457"/>
      <point x="351" y="462" type="curve" smooth="yes"/>
      <point x="325" y="475"/>
      <point x="297" y="480"/>
      <point x="273" y="480" type="curve" smooth="yes"/>
      <point x="198" y="480"/>
      <point x="118" y="437"/>
      <point x="101" y="337" type="curve" smooth="yes"/>
      <point x="85" y="251"/>
      <point x="117" y="209"/>
      <point x="99" y="110" type="curve" smooth="yes"/>
      <point x="90" y="55"/>
      <point x="69" y="30"/>
      <point x="2" y="13" type="curve" smooth="yes"/>
      <point x="-5" y="11"/>
      <point x="-4" y="0"/>
      <point x="2" y="0" type="curve" smooth="yes"/>
    </contour>
    <contour>
      <point x="257" y="220" type="line" smooth="yes"/>
      <point x="265" y="220"/>
      <point x="265" y="240"/>
      <point x="257" y="240" type="curve" smooth="yes"/>
      <point x="56" y="240" type="line" smooth="yes"/>
      <point x="48" y="240"/>
      <point x="48" y="220"/>
      <point x="56" y="220" type="curve" smooth="yes"/>
    </contour>
    <contour>
      <point x="209" y="625" type="move" name="top"/>
    </contour>
    <contour>
      <point x="218" y="0" type="move" name="bottom"/>
    </contour>
    <contour>
      <point x="513" y="625" type="move" name="topright"/>
    </contour>
  </outline>
</glyph>
<glyph name="currency" format="1">
  <advance width="373"/>
  <unicode hex="00A4"/>
  <outline>
    <contour>
      <point x="85" y="113" type="line"/>
      <point x="28" y="58" type="line"/>
      <point x="43" y="37" type="line"/>
      <point x="98" y="94" type="line"/>
    </contour>
    <contour>
      <point x="138" y="311" type="line"/>
      <point x="102" y="367" type="line"/>
      <point x="74" y="344" type="line"/>
      <point x="113" y="290" type="line"/>
    </contour>
    <contour>
      <point x="239" y="96" type="line"/>
      <point x="275" y="37" type="line"/>
      <point x="303" y="62" type="line"/>
      <point x="263" y="117" type="line"/>
    </contour>
    <contour>
      <point x="297" y="292" type="line"/>
      <point x="352" y="344" type="line"/>
      <point x="338" y="364" type="line"/>
      <point x="283" y="310" type="line"/>
    </contour>
    <contour>
      <point x="222" y="65"/>
      <point x="301" y="113"/>
      <point x="316" y="198" type="curve" smooth="yes"/>
      <point x="330" y="276"/>
      <point x="285" y="335"/>
      <point x="214" y="335" type="curve" smooth="yes"/>
      <point x="157" y="335"/>
      <point x="74" y="294"/>
      <point x="58" y="206" type="curve" smooth="yes"/>
      <point x="46" y="136"/>
      <point x="77" y="65"/>
      <point x="157" y="65" type="curve" smooth="yes"/>
    </contour>
    <contour>
      <point x="109" y="81"/>
      <point x="94" y="157"/>
      <point x="105" y="220" type="curve" smooth="yes"/>
      <point x="117" y="287"/>
      <point x="151" y="319"/>
      <point x="194" y="319" type="curve" smooth="yes"/>
      <point x="256" y="319"/>
      <point x="278" y="251"/>
      <point x="267" y="184" type="curve" smooth="yes"/>
      <point x="255" y="117"/>
      <point x="219" y="81"/>
      <point x="174" y="81" type="curve" smooth="yes"/>
    </contour>
  </outline>
</glyph>
<glyph name="yen" format="1">
  <advance width="429"/>
  <unicode hex="00A5"/>
  <outline>
    <contour>
      <point x="344" y="365" type="line" smooth="yes"/>
      <point x="386" y="422"/>
      <point x="430" y="456"/>
      <point x="471" y="456" type="curve" smooth="yes"/>
      <point x="476" y="456"/>
      <point x="476" y="468"/>
      <point x="471" y="468" type="curve" smooth="yes"/>
      <point x="450" y="468"/>
      <point x="437" y="465"/>
      <point x="412" y="465" type="curve" smooth="yes"/>
      <point x="372" y="465"/>
      <point x="353" y="468"/>
      <point x="324" y="468" type="curve" smooth="yes"/>
      <point x="319" y="468"/>
      <point x="319" y="456"/>
      <point x="324" y="456" type="curve" smooth="yes"/>
      <point x="358" y="456"/>
      <point x="366" y="423"/>
      <point x="327" y="368" type="curve" smooth="yes"/>
      <point x="213" y="205" type="line"/>
      <point x="221" y="198" type="line"/>
    </contour>
    <contour>
      <point x="104" y="0"/>
      <point x="143" y="2"/>
      <point x="180" y="2" type="curve" smooth="yes"/>
      <point x="220" y="2"/>
      <point x="254" y="0"/>
      <point x="283" y="0" type="curve" smooth="yes"/>
      <point x="288" y="0"/>
      <point x="288" y="12"/>
      <point x="283" y="12" type="curve" smooth="yes"/>
      <point x="214" y="12"/>
      <point x="206" y="22"/>
      <point x="216" y="80" type="curve" smooth="yes"/>
      <point x="229" y="149" type="line"/>
      <point x="182" y="149" type="line"/>
      <point x="171" y="82" type="line" smooth="yes"/>
      <point x="161" y="25"/>
      <point x="146" y="12"/>
      <point x="77" y="12" type="curve" smooth="yes"/>
      <point x="73" y="12"/>
      <point x="73" y="0"/>
      <point x="77" y="0" type="curve" smooth="yes"/>
    </contour>
    <contour>
      <point x="325" y="133" type="line" smooth="yes"/>
      <point x="333" y="133"/>
      <point x="333" y="153"/>
      <point x="325" y="153" type="curve" smooth="yes"/>
      <point x="83" y="153" type="line" smooth="yes"/>
      <point x="75" y="153"/>
      <point x="75" y="133"/>
      <point x="83" y="133" type="curve" smooth="yes"/>
    </contour>
    <contour>
      <point x="336" y="193" type="line" smooth="yes"/>
      <point x="344" y="193"/>
      <point x="344" y="213"/>
      <point x="336" y="213" type="curve" smooth="yes"/>
      <point x="92" y="213" type="line" smooth="yes"/>
      <point x="84" y="213"/>
      <point x="84" y="193"/>
      <point x="92" y="193" type="curve" smooth="yes"/>
    </contour>
    <contour>
      <point x="239" y="205" type="line"/>
      <point x="244" y="237" type="line"/>
      <point x="196" y="228" type="line"/>
      <point x="193" y="205" type="line"/>
    </contour>
    <contour>
      <point x="246" y="235" type="line"/>
      <point x="171" y="415" type="line" smooth="yes"/>
      <point x="159" y="442"/>
      <point x="172" y="456"/>
      <point x="211" y="456" type="curve" smooth="yes"/>
      <point x="215" y="456"/>
      <point x="215" y="468"/>
      <point x="211" y="468" type="curve" smooth="yes"/>
      <point x="184" y="468"/>
      <point x="147" y="465"/>
      <point x="103" y="465" type="curve" smooth="yes"/>
      <point x="87" y="465"/>
      <point x="67" y="468"/>
      <point x="48" y="468" type="curve" smooth="yes"/>
      <point x="43" y="468"/>
      <point x="43" y="456"/>
      <point x="48" y="456" type="curve" smooth="yes"/>
      <point x="87" y="456"/>
      <point x="105" y="437"/>
      <point x="126" y="386" type="curve" smooth="yes"/>
      <point x="204" y="198" type="line"/>
    </contour>
  </outline>
</glyph>
<glyph name="brokenbar" format="1">
  <advance width="152"/>
  <unicode hex="00A6"/>
  <outline>
    <contour>
      <point x="188" y="727" type="line" smooth="yes"/>
      <point x="189" y="737"/>
      <point x="156" y="740"/>
      <point x="154" y="731" type="curve" smooth="yes"/>
      <point x="90" y="360" type="line" smooth="yes"/>
      <point x="89" y="351"/>
      <point x="122" y="347"/>
      <point x="123" y="357" type="curve" smooth="yes"/>
    </contour>
    <contour>
      <point x="97" y="213" type="line" smooth="yes"/>
      <point x="98" y="222"/>
      <point x="64" y="226"/>
      <point x="63" y="216" type="curve" smooth="yes"/>
      <point x="-1" y="-154" type="line" smooth="yes"/>
      <point x="-2" y="-164"/>
      <point x="30" y="-167"/>
      <point x="32" y="-158" type="curve" smooth="yes"/>
    </contour>
  </outline>
</glyph>
<glyph name="section" format="1">
  <advance width="386"/>
  <unicode hex="00A7"/>
  <outline>
    <contour>
      <point x="182" y="-188"/>
      <point x="256" y="-149"/>
      <point x="271" y="-56" type="curve" smooth="yes"/>
      <point x="297" y="84"/>
      <point x="80" y="80"/>
      <point x="111" y="256" type="curve" smooth="yes"/>
      <point x="118" y="296"/>
      <point x="133" y="333"/>
      <point x="175" y="364" type="curve"/>
      <point x="170" y="373" type="line"/>
      <point x="101" y="316"/>
      <point x="77" y="278"/>
      <point x="69" y="225" type="curve" smooth="yes"/>
      <point x="41" y="40"/>
      <point x="255" y="49"/>
      <point x="232" y="-90" type="curve" smooth="yes"/>
      <point x="221" y="-145"/>
      <point x="189" y="-165"/>
      <point x="156" y="-165" type="curve" smooth="yes"/>
      <point x="94" y="-165"/>
      <point x="53" y="-105"/>
      <point x="55" y="-60" type="curve" smooth="yes"/>
      <point x="56" y="-56"/>
      <point x="46" y="-56"/>
      <point x="44" y="-60" type="curve" smooth="yes"/>
      <point x="35" y="-153" type="line" smooth="yes"/>
      <point x="34" y="-161"/>
      <point x="37" y="-166"/>
      <point x="42" y="-170" type="curve" smooth="yes"/>
      <point x="61" y="-181"/>
      <point x="84" y="-188"/>
      <point x="118" y="-188" type="curve" smooth="yes"/>
    </contour>
    <contour>
      <point x="299" y="68"/>
      <point x="323" y="105"/>
      <point x="331" y="159" type="curve" smooth="yes"/>
      <point x="359" y="345"/>
      <point x="144" y="335"/>
      <point x="168" y="474" type="curve" smooth="yes"/>
      <point x="178" y="529"/>
      <point x="211" y="549"/>
      <point x="243" y="549" type="curve" smooth="yes"/>
      <point x="306" y="549"/>
      <point x="347" y="489"/>
      <point x="344" y="443" type="curve" smooth="yes"/>
      <point x="344" y="440"/>
      <point x="354" y="440"/>
      <point x="354" y="443" type="curve" smooth="yes"/>
      <point x="364" y="537" type="line" smooth="yes"/>
      <point x="365" y="545"/>
      <point x="361" y="550"/>
      <point x="357" y="553" type="curve" smooth="yes"/>
      <point x="339" y="565"/>
      <point x="316" y="572"/>
      <point x="282" y="572" type="curve" smooth="yes"/>
      <point x="218" y="572"/>
      <point x="144" y="532"/>
      <point x="127" y="440" type="curve" smooth="yes"/>
      <point x="103" y="299"/>
      <point x="318" y="306"/>
      <point x="289" y="127" type="curve" smooth="yes"/>
      <point x="282" y="87"/>
      <point x="265" y="49"/>
      <point x="225" y="20" type="curve"/>
      <point x="230" y="11" type="line"/>
    </contour>
  </outline>
</glyph>
<glyph name="dieresis" format="1">
  <advance width="275"/>
  <unicode hex="00A8"/>
  <outline>
    <contour>
      <point x="294" y="481"/>
      <point x="308" y="495"/>
      <point x="308" y="519" type="curve" smooth="yes"/>
      <point x="308" y="543"/>
      <point x="294" y="557"/>
      <point x="269" y="557" type="curve" smooth="yes"/>
      <point x="244" y="557"/>
      <point x="229" y="543"/>
      <point x="229" y="519" type="curve" smooth="yes"/>
      <point x="229" y="495"/>
      <point x="244" y="481"/>
      <point x="269" y="481" type="curve" smooth="yes"/>
    </contour>
    <contour>
      <point x="145" y="481"/>
      <point x="159" y="495"/>
      <point x="159" y="519" type="curve" smooth="yes"/>
      <point x="159" y="543"/>
      <point x="145" y="557"/>
      <point x="120" y="557" type="curve" smooth="yes"/>
      <point x="96" y="557"/>
      <point x="81" y="543"/>
      <point x="81" y="519" type="curve" smooth="yes"/>
      <point x="81" y="495"/>
      <point x="96" y="481"/>
      <point x="120" y="481" type="curve" smooth="yes"/>
    </contour>
    <contour>
      <point x="171" y="386" type="move" name="_top"/>
    </contour>
  </outline>
</glyph>
<glyph name="copyright" format="1">
  <advance width="724"/>
  <unicode hex="00A9"/>
  <outline>
    <contour>
      <point x="449" y="-101"/>
      <point x="523" y="-90"/>
      <point x="599" y="-33" type="curve" smooth="yes"/>
      <point x="601" y="-30"/>
      <point x="596" y="-25"/>
      <point x="594" y="-26" type="curve" smooth="yes"/>
      <point x="517" y="-65"/>
      <point x="468" y="-71"/>
      <point x="393" y="-71" type="curve" smooth="yes"/>
      <point x="283" y="-71"/>
      <point x="117" y="15"/>
      <point x="117" y="213" type="curve" smooth="yes"/>
      <point x="117" y="357"/>
      <point x="205" y="474"/>
      <point x="366" y="474" type="curve" smooth="yes"/>
      <point x="505" y="474"/>
      <point x="612" y="370"/>
      <point x="612" y="242" type="curve" smooth="yes"/>
      <point x="612" y="117"/>
      <point x="522" y="65"/>
      <point x="430" y="65" type="curve" smooth="yes"/>
      <point x="317" y="65"/>
      <point x="281" y="137"/>
      <point x="281" y="219" type="curve" smooth="yes"/>
      <point x="281" y="296"/>
      <point x="304" y="349"/>
      <point x="370" y="349" type="curve" smooth="yes"/>
      <point x="402" y="349"/>
      <point x="415" y="333"/>
      <point x="428" y="315" type="curve" smooth="yes"/>
      <point x="435" y="305"/>
      <point x="447" y="291"/>
      <point x="462" y="291" type="curve" smooth="yes"/>
      <point x="476" y="291"/>
      <point x="488" y="304"/>
      <point x="488" y="317" type="curve" smooth="yes"/>
      <point x="485" y="344"/>
      <point x="440" y="364"/>
      <point x="395" y="364" type="curve" smooth="yes"/>
      <point x="315" y="364"/>
      <point x="225" y="303"/>
      <point x="225" y="195" type="curve" smooth="yes"/>
      <point x="225" y="120"/>
      <point x="276" y="39"/>
      <point x="402" y="39" type="curve" smooth="yes"/>
      <point x="538" y="39"/>
      <point x="643" y="145"/>
      <point x="643" y="270" type="curve" smooth="yes"/>
      <point x="643" y="393"/>
      <point x="549" y="497"/>
      <point x="396" y="497" type="curve" smooth="yes"/>
      <point x="230" y="497"/>
      <point x="78" y="373"/>
      <point x="78" y="191" type="curve" smooth="yes"/>
      <point x="78" y="-9"/>
      <point x="243" y="-101"/>
      <point x="368" y="-101" type="curve" smooth="yes"/>
    </contour>
    <contour>
      <point x="342" y="309" type="move" name="top"/>
    </contour>
    <contour>
      <point x="350" y="0" type="move" name="bottom"/>
    </contour>
  </outline>
</glyph>
<glyph name="ordfeminine" format="1">
  <advance width="276"/>
  <unicode hex="00AA"/>
  <outline>
    <contour>
      <point x="147" y="361"/>
      <point x="212" y="433"/>
      <point x="254" y="531" type="curve"/>
      <point x="242" y="520" type="line"/>
      <point x="226" y="428" type="line" smooth="yes"/>
      <point x="216" y="380"/>
      <point x="221" y="364"/>
      <point x="242" y="364" type="curve" smooth="yes"/>
      <point x="264" y="364"/>
      <point x="287" y="382"/>
      <point x="316" y="415" type="curve" smooth="yes"/>
      <point x="318" y="418"/>
      <point x="309" y="425"/>
      <point x="306" y="422" type="curve" smooth="yes"/>
      <point x="288" y="401"/>
      <point x="275" y="388"/>
      <point x="264" y="388" type="curve" smooth="yes"/>
      <point x="254" y="388"/>
      <point x="249" y="401"/>
      <point x="254" y="428" type="curve" smooth="yes"/>
      <point x="292" y="637" type="line" smooth="yes"/>
      <point x="292" y="640"/>
      <point x="282" y="641"/>
      <point x="281" y="639" type="curve" smooth="yes"/>
      <point x="277" y="621"/>
      <point x="263" y="607"/>
      <point x="254" y="605" type="curve"/>
      <point x="278" y="588" type="line"/>
      <point x="276" y="621"/>
      <point x="251" y="633"/>
      <point x="227" y="633" type="curve" smooth="yes"/>
      <point x="158" y="633"/>
      <point x="69" y="526"/>
      <point x="56" y="429" type="curve" smooth="yes"/>
      <point x="49" y="380"/>
      <point x="65" y="361"/>
      <point x="94" y="361" type="curve" smooth="yes"/>
    </contour>
    <contour>
      <point x="269" y="288" type="line" smooth="yes"/>
      <point x="275" y="288"/>
      <point x="275" y="313"/>
      <point x="269" y="313" type="curve" smooth="yes"/>
      <point x="43" y="313" type="line" smooth="yes"/>
      <point x="39" y="313"/>
      <point x="39" y="288"/>
      <point x="44" y="288" type="curve" smooth="yes"/>
    </contour>
    <contour>
      <point x="88" y="389"/>
      <point x="81" y="412"/>
      <point x="87" y="454" type="curve" smooth="yes"/>
      <point x="98" y="539"/>
      <point x="160" y="611"/>
      <point x="207" y="612" type="curve" smooth="yes"/>
      <point x="241" y="613"/>
      <point x="254" y="586"/>
      <point x="248" y="557" type="curve" smooth="yes"/>
      <point x="230" y="478"/>
      <point x="154" y="389"/>
      <point x="112" y="389" type="curve" smooth="yes"/>
    </contour>
    <contour>
      <point x="247" y="378" type="move" name="ogonek"/>
    </contour>
    <contour>
      <point x="92" y="370" type="move" name="bottom"/>
    </contour>
    <contour>
      <point x="138" y="625" type="move" name="top"/>
    </contour>
  </outline>
</glyph>
<glyph name="guillemetleft" format="1">
  <advance width="421"/>
  <unicode hex="00AB"/>
  <outline>
    <contour>
      <point x="58" y="212" type="line" smooth="yes"/>
      <point x="50" y="205"/>
      <point x="50" y="195"/>
      <point x="55" y="189" type="curve" smooth="yes"/>
      <point x="186" y="40" type="line" smooth="yes"/>
      <point x="188" y="36"/>
      <point x="196" y="43"/>
      <point x="194" y="47" type="curve" smooth="yes"/>
      <point x="103" y="201" type="line"/>
      <point x="248" y="356" type="line" smooth="yes"/>
      <point x="251" y="359"/>
      <point x="243" y="366"/>
      <point x="240" y="364" type="curve" smooth="yes"/>
    </contour>
    <contour>
      <point x="206" y="212" type="line" smooth="yes"/>
      <point x="198" y="205"/>
      <point x="198" y="195"/>
      <point x="202" y="189" type="curve" smooth="yes"/>
      <point x="333" y="40" type="line" smooth="yes"/>
      <point x="336" y="36"/>
      <point x="344" y="43"/>
      <point x="342" y="47" type="curve" smooth="yes"/>
      <point x="250" y="201" type="line"/>
      <point x="395" y="356" type="line" smooth="yes"/>
      <point x="399" y="359"/>
      <point x="391" y="366"/>
      <point x="387" y="364" type="curve" smooth="yes"/>
    </contour>
  </outline>
</glyph>
<glyph name="registered" format="1">
  <advance width="765"/>
  <unicode hex="00AE"/>
  <outline>
    <contour>
      <point x="579" y="138"/>
      <point x="720" y="275"/>
      <point x="720" y="451" type="curve" smooth="yes"/>
      <point x="720" y="598"/>
      <point x="612" y="725"/>
      <point x="439" y="725" type="curve" smooth="yes"/>
      <point x="273" y="725"/>
      <point x="120" y="601"/>
      <point x="120" y="430" type="curve" smooth="yes"/>
      <point x="120" y="239"/>
      <point x="274" y="138"/>
      <point x="413" y="138" type="curve" smooth="yes"/>
    </contour>
    <contour>
      <point x="313" y="167"/>
      <point x="159" y="263"/>
      <point x="159" y="453" type="curve" smooth="yes"/>
      <point x="159" y="585"/>
      <point x="247" y="702"/>
      <point x="408" y="702" type="curve" smooth="yes"/>
      <point x="568" y="702"/>
      <point x="689" y="579"/>
      <point x="689" y="423" type="curve" smooth="yes"/>
      <point x="689" y="265"/>
      <point x="587" y="167"/>
      <point x="437" y="167" type="curve" smooth="yes"/>
    </contour>
    <contour>
      <point x="273" y="277"/>
      <point x="304" y="278"/>
      <point x="327" y="278" type="curve" smooth="yes"/>
      <point x="357" y="278"/>
      <point x="380" y="277"/>
      <point x="400" y="277" type="curve" smooth="yes"/>
      <point x="402" y="277"/>
      <point x="405" y="289"/>
      <point x="402" y="289" type="curve" smooth="yes"/>
      <point x="356" y="289"/>
      <point x="349" y="294"/>
      <point x="356" y="333" type="curve" smooth="yes"/>
      <point x="393" y="546" type="line" smooth="yes"/>
      <point x="401" y="593"/>
      <point x="414" y="594"/>
      <point x="449" y="594" type="curve" smooth="yes"/>
      <point x="490" y="594"/>
      <point x="512" y="572"/>
      <point x="503" y="518" type="curve" smooth="yes"/>
      <point x="491" y="454"/>
      <point x="443" y="443"/>
      <point x="370" y="456" type="curve"/>
      <point x="366" y="436" type="line"/>
      <point x="469" y="430"/>
      <point x="532" y="474"/>
      <point x="545" y="542" type="curve" smooth="yes"/>
      <point x="553" y="587"/>
      <point x="525" y="607"/>
      <point x="468" y="607" type="curve" smooth="yes"/>
      <point x="446" y="607"/>
      <point x="409" y="604"/>
      <point x="385" y="604" type="curve" smooth="yes"/>
      <point x="361" y="604"/>
      <point x="333" y="605"/>
      <point x="313" y="605" type="curve" smooth="yes"/>
      <point x="311" y="605"/>
      <point x="309" y="593"/>
      <point x="311" y="593" type="curve" smooth="yes"/>
      <point x="359" y="593"/>
      <point x="365" y="585"/>
      <point x="359" y="549" type="curve" smooth="yes"/>
      <point x="320" y="333" type="line" smooth="yes"/>
      <point x="313" y="294"/>
      <point x="306" y="289"/>
      <point x="258" y="289" type="curve" smooth="yes"/>
      <point x="256" y="289"/>
      <point x="254" y="277"/>
      <point x="256" y="277" type="curve" smooth="yes"/>
    </contour>
    <contour>
      <point x="519" y="277"/>
      <point x="545" y="277"/>
      <point x="582" y="277" type="curve" smooth="yes"/>
      <point x="585" y="277"/>
      <point x="586" y="285"/>
      <point x="584" y="285" type="curve" smooth="yes"/>
      <point x="530" y="285"/>
      <point x="516" y="332"/>
      <point x="474" y="455" type="curve"/>
      <point x="434" y="441" type="line"/>
      <point x="469" y="342"/>
      <point x="495" y="277"/>
      <point x="509" y="277" type="curve" smooth="yes"/>
    </contour>
    <contour>
      <point x="402" y="595" type="move" name="top"/>
    </contour>
    <contour>
      <point x="441" y="268" type="move" name="bottom"/>
    </contour>
  </outline>
</glyph>
<glyph name="macron" format="1">
  <advance width="333"/>
  <unicode hex="00AF"/>
  <outline>
    <contour>
      <point x="339" y="480" type="line" smooth="yes"/>
      <point x="346" y="480"/>
      <point x="346" y="506"/>
      <point x="339" y="506" type="curve" smooth="yes"/>
      <point x="99" y="506" type="line" smooth="yes"/>
      <point x="92" y="506"/>
      <point x="92" y="480"/>
      <point x="99" y="480" type="curve" smooth="yes"/>
    </contour>
    <contour>
      <point x="195" y="386" type="move" name="_top"/>
    </contour>
  </outline>
</glyph>
<glyph name="degree" format="1">
  <advance width="299"/>
  <unicode hex="00B0"/>
  <outline>
    <contour>
      <point x="258" y="373"/>
      <point x="320" y="421"/>
      <point x="336" y="489" type="curve" smooth="yes"/>
      <point x="350" y="553"/>
      <point x="320" y="630"/>
      <point x="226" y="630" type="curve" smooth="yes"/>
      <point x="145" y="630"/>
      <point x="84" y="574"/>
      <point x="71" y="515" type="curve" smooth="yes"/>
      <point x="57" y="454"/>
      <point x="88" y="373"/>
      <point x="184" y="373" type="curve" smooth="yes"/>
    </contour>
    <contour>
      <point x="113" y="385"/>
      <point x="105" y="447"/>
      <point x="120" y="518" type="curve" smooth="yes"/>
      <point x="132" y="572"/>
      <point x="154" y="619"/>
      <point x="221" y="619" type="curve" smooth="yes"/>
      <point x="287" y="619"/>
      <point x="304" y="574"/>
      <point x="287" y="482" type="curve" smooth="yes"/>
      <point x="276" y="427"/>
      <point x="258" y="385"/>
      <point x="193" y="385" type="curve" smooth="yes"/>
    </contour>
    <contour>
      <point x="302" y="695" type="move" name="top"/>
    </contour>
  </outline>
</glyph>
<glyph name="plusminus" format="1">
  <advance width="398"/>
  <unicode hex="00B1"/>
  <outline>
    <contour>
      <point x="364" y="1" type="line" smooth="yes"/>
      <point x="370" y="1"/>
      <point x="370" y="35"/>
      <point x="364" y="35" type="curve" smooth="yes"/>
      <point x="33" y="35" type="line" smooth="yes"/>
      <point x="28" y="35"/>
      <point x="28" y="1"/>
      <point x="34" y="1" type="curve" smooth="yes"/>
    </contour>
    <contour>
      <point x="364" y="234" type="line" smooth="yes"/>
      <point x="370" y="234"/>
      <point x="370" y="271"/>
      <point x="364" y="271" type="curve" smooth="yes"/>
      <point x="33" y="271" type="line" smooth="yes"/>
      <point x="28" y="271"/>
      <point x="28" y="234"/>
      <point x="34" y="234" type="curve" smooth="yes"/>
    </contour>
    <contour>
      <point x="218" y="418" type="line" smooth="yes"/>
      <point x="218" y="423"/>
      <point x="180" y="423"/>
      <point x="180" y="418" type="curve" smooth="yes"/>
      <point x="180" y="87" type="line" smooth="yes"/>
      <point x="180" y="82"/>
      <point x="218" y="82"/>
      <point x="218" y="88" type="curve" smooth="yes"/>
    </contour>
  </outline>
</glyph>
<glyph name="acute" format="1">
  <advance width="212"/>
  <unicode hex="00B4"/>
  <outline>
    <contour>
      <point x="261" y="727" type="line" smooth="yes"/>
      <point x="265" y="737"/>
      <point x="211" y="724"/>
      <point x="207" y="716" type="curve" smooth="yes"/>
      <point x="109" y="476" type="line" smooth="yes"/>
      <point x="106" y="473"/>
      <point x="117" y="469"/>
      <point x="119" y="473" type="curve" smooth="yes"/>
    </contour>
    <contour>
      <point x="112" y="386" type="move" name="_top"/>
    </contour>
  </outline>
</glyph>
<glyph name="paragraph" format="1">
  <advance width="594"/>
  <unicode hex="00B6"/>
  <outline>
    <contour>
      <point x="353" y="-193"/>
      <point x="408" y="-117"/>
      <point x="439" y="55" type="curve" smooth="yes"/>
      <point x="522" y="532" type="line" smooth="yes"/>
      <point x="531" y="584"/>
      <point x="567" y="613"/>
      <point x="619" y="613" type="curve" smooth="yes"/>
      <point x="625" y="613"/>
      <point x="625" y="625"/>
      <point x="619" y="625" type="curve" smooth="yes"/>
      <point x="589" y="625"/>
      <point x="553" y="622"/>
      <point x="519" y="622" type="curve" smooth="yes"/>
      <point x="467" y="622"/>
      <point x="427" y="628"/>
      <point x="386" y="628" type="curve" smooth="yes"/>
      <point x="228" y="628"/>
      <point x="113" y="547"/>
      <point x="82" y="386" type="curve" smooth="yes"/>
      <point x="44" y="187"/>
      <point x="186" y="122"/>
      <point x="322" y="122" type="curve" smooth="yes"/>
      <point x="352" y="122"/>
      <point x="377" y="123"/>
      <point x="401" y="125" type="curve"/>
      <point x="380" y="8" type="line" smooth="yes"/>
      <point x="354" y="-139"/>
      <point x="340" y="-170"/>
      <point x="299" y="-170" type="curve" smooth="yes"/>
      <point x="254" y="-170"/>
      <point x="277" y="-123"/>
      <point x="239" y="-123" type="curve" smooth="yes"/>
      <point x="225" y="-123"/>
      <point x="209" y="-133"/>
      <point x="206" y="-153" type="curve" smooth="yes"/>
      <point x="202" y="-173"/>
      <point x="222" y="-193"/>
      <point x="262" y="-193" type="curve" smooth="yes"/>
    </contour>
  </outline>
</glyph>
<glyph name="ordmasculine" format="1">
  <advance width="269"/>
  <unicode hex="00BA"/>
  <outline>
    <contour>
      <point x="213" y="359"/>
      <point x="280" y="419"/>
      <point x="294" y="495" type="curve" smooth="yes"/>
      <point x="304" y="564"/>
      <point x="275" y="630"/>
      <point x="209" y="630" type="curve" smooth="yes"/>
      <point x="156" y="630"/>
      <point x="83" y="588"/>
      <point x="68" y="498" type="curve" smooth="yes"/>
      <point x="55" y="423"/>
      <point x="88" y="359"/>
      <point x="151" y="359" type="curve" smooth="yes"/>
    </contour>
    <contour>
      <point x="269" y="288" type="line" smooth="yes"/>
      <point x="275" y="288"/>
      <point x="275" y="313"/>
      <point x="269" y="313" type="curve" smooth="yes"/>
      <point x="48" y="313" type="line" smooth="yes"/>
      <point x="43" y="313"/>
      <point x="43" y="288"/>
      <point x="49" y="288" type="curve" smooth="yes"/>
    </contour>
    <contour>
      <point x="116" y="377"/>
      <point x="89" y="439"/>
      <point x="103" y="517" type="curve" smooth="yes"/>
      <point x="113" y="582"/>
      <point x="147" y="613"/>
      <point x="188" y="613" type="curve" smooth="yes"/>
      <point x="242" y="613"/>
      <point x="271" y="557"/>
      <point x="258" y="477" type="curve" smooth="yes"/>
      <point x="246" y="409"/>
      <point x="209" y="377"/>
      <point x="170" y="377" type="curve" smooth="yes"/>
    </contour>
    <contour>
      <point x="200" y="622" type="move" name="top"/>
    </contour>
  </outline>
</glyph>
<glyph name="guillemetright" format="1">
  <advance width="421"/>
  <unicode hex="00BB"/>
  <outline>
    <contour>
      <point x="365" y="189" type="line" smooth="yes"/>
      <point x="373" y="196"/>
      <point x="373" y="206"/>
      <point x="368" y="212" type="curve" smooth="yes"/>
      <point x="237" y="361" type="line" smooth="yes"/>
      <point x="235" y="365"/>
      <point x="227" y="358"/>
      <point x="229" y="354" type="curve" smooth="yes"/>
      <point x="320" y="200" type="line"/>
      <point x="175" y="46" type="line" smooth="yes"/>
      <point x="172" y="42"/>
      <point x="180" y="35"/>
      <point x="184" y="37" type="curve" smooth="yes"/>
    </contour>
    <contour>
      <point x="218" y="189" type="line" smooth="yes"/>
      <point x="226" y="196"/>
      <point x="226" y="206"/>
      <point x="221" y="212" type="curve" smooth="yes"/>
      <point x="90" y="361" type="line" smooth="yes"/>
      <point x="88" y="365"/>
      <point x="80" y="358"/>
      <point x="82" y="354" type="curve" smooth="yes"/>
      <point x="173" y="200" type="line"/>
      <point x="28" y="46" type="line" smooth="yes"/>
      <point x="25" y="42"/>
      <point x="33" y="35"/>
      <point x="36" y="37" type="curve" smooth="yes"/>
    </contour>
  </outline>
</glyph>
<glyph name="AE" format="1">
  <advance width="768"/>
  <unicode hex="00C6"/>
  <outline>
    <contour>
      <point x="-21" y="0"/>
      <point x="-2" y="4"/>
      <point x="40" y="4" type="curve" smooth="yes"/>
      <point x="85" y="4"/>
      <point x="109" y="0"/>
      <point x="145" y="0" type="curve" smooth="yes"/>
      <point x="150" y="0"/>
      <point x="151" y="12"/>
      <point x="145" y="12" type="curve" smooth="yes"/>
      <point x="63" y="12"/>
      <point x="68" y="47"/>
      <point x="125" y="123" type="curve" smooth="yes"/>
      <point x="490" y="602" type="line"/>
      <point x="465" y="613" type="line"/>
      <point x="396" y="81" type="line" smooth="yes"/>
      <point x="389" y="23"/>
      <point x="371" y="12"/>
      <point x="303" y="12" type="curve" smooth="yes"/>
      <point x="297" y="12"/>
      <point x="297" y="0"/>
      <point x="303" y="0" type="curve" smooth="yes"/>
      <point x="676" y="0" type="line" smooth="yes"/>
      <point x="687" y="0"/>
      <point x="690" y="4"/>
      <point x="692" y="15" type="curve" smooth="yes"/>
      <point x="699" y="56"/>
      <point x="713" y="110"/>
      <point x="723" y="145" type="curve" smooth="yes"/>
      <point x="725" y="149"/>
      <point x="713" y="151"/>
      <point x="712" y="147" type="curve" smooth="yes"/>
      <point x="689" y="71"/>
      <point x="643" y="18"/>
      <point x="595" y="18" type="curve" smooth="yes"/>
      <point x="511" y="18" type="line" smooth="yes"/>
      <point x="444" y="18"/>
      <point x="439" y="29"/>
      <point x="446" y="85" type="curve" smooth="yes"/>
      <point x="503" y="543" type="line" smooth="yes"/>
      <point x="510" y="600"/>
      <point x="526" y="611"/>
      <point x="615" y="611" type="curve" smooth="yes"/>
      <point x="658" y="611" type="line" smooth="yes"/>
      <point x="720" y="611"/>
      <point x="746" y="564"/>
      <point x="735" y="495" type="curve" smooth="yes"/>
      <point x="733" y="491"/>
      <point x="745" y="490"/>
      <point x="746" y="494" type="curve" smooth="yes"/>
      <point x="751" y="522"/>
      <point x="759" y="580"/>
      <point x="765" y="616" type="curve" smooth="yes"/>
      <point x="766" y="622"/>
      <point x="765" y="625"/>
      <point x="758" y="625" type="curve" smooth="yes"/>
      <point x="387" y="625" type="line" smooth="yes"/>
      <point x="381" y="625"/>
      <point x="381" y="613"/>
      <point x="387" y="613" type="curve" smooth="yes"/>
      <point x="462" y="613"/>
      <point x="465" y="611"/>
      <point x="439" y="574" type="curve" smooth="yes"/>
      <point x="104" y="132" type="line" smooth="yes"/>
      <point x="30" y="35"/>
      <point x="-6" y="12"/>
      <point x="-56" y="12" type="curve" smooth="yes"/>
      <point x="-62" y="12"/>
      <point x="-62" y="0"/>
      <point x="-56" y="0" type="curve" smooth="yes"/>
    </contour>
    <contour>
      <point x="470" y="316" type="line"/>
      <point x="467" y="335" type="line"/>
      <point x="282" y="335" type="line"/>
      <point x="264" y="316" type="line"/>
    </contour>
    <contour>
      <point x="671" y="268"/>
      <point x="675" y="295"/>
      <point x="680" y="325" type="curve" smooth="yes"/>
      <point x="683" y="349"/>
      <point x="688" y="365"/>
      <point x="694" y="404" type="curve" smooth="yes"/>
      <point x="695" y="408"/>
      <point x="683" y="411"/>
      <point x="683" y="406" type="curve" smooth="yes"/>
      <point x="674" y="356"/>
      <point x="653" y="335"/>
      <point x="598" y="335" type="curve" smooth="yes"/>
      <point x="467" y="335" type="line"/>
      <point x="464" y="316" type="line" smooth="yes"/>
      <point x="591" y="316" type="line" smooth="yes"/>
      <point x="649" y="316"/>
      <point x="664" y="297"/>
      <point x="654" y="237" type="curve" smooth="yes"/>
      <point x="654" y="234"/>
      <point x="664" y="232"/>
      <point x="665" y="235" type="curve" smooth="yes"/>
    </contour>
    <contour>
      <point x="177" y="12" type="move" name="ogonek"/>
    </contour>
    <contour>
      <point x="351" y="0" type="move" name="bottom"/>
    </contour>
    <contour>
      <point x="596" y="625" type="move" name="top"/>
    </contour>
  </outline>
</glyph>
<glyph name="multiply" format="1">
  <advance width="398"/>
  <unicode hex="00D7"/>
  <outline>
    <contour>
      <point x="329" y="292" type="line" smooth="yes"/>
      <point x="332" y="297"/>
      <point x="306" y="323"/>
      <point x="302" y="319" type="curve" smooth="yes"/>
      <point x="68" y="85" type="line" smooth="yes"/>
      <point x="64" y="82"/>
      <point x="91" y="55"/>
      <point x="95" y="60" type="curve" smooth="yes"/>
    </contour>
    <contour>
      <point x="302" y="60" type="line" smooth="yes"/>
      <point x="306" y="56"/>
      <point x="332" y="82"/>
      <point x="329" y="87" type="curve" smooth="yes"/>
      <point x="95" y="320" type="line" smooth="yes"/>
      <point x="91" y="324"/>
      <point x="64" y="297"/>
      <point x="69" y="294" type="curve" smooth="yes"/>
    </contour>
  </outline>
</glyph>
<glyph name="Oslash" format="1">
  <advance width="650"/>
  <unicode hex="00D8"/>
  <outline>
    <contour>
      <point x="662" y="618" type="line" smooth="yes"/>
      <point x="667" y="622"/>
      <point x="651" y="633"/>
      <point x="648" y="629" type="curve" smooth="yes"/>
      <point x="35" y="7" type="line" smooth="yes"/>
      <point x="30" y="2"/>
      <point x="44" y="-11"/>
      <point x="48" y="-7" type="curve" smooth="yes"/>
    </contour>
    <component base="O"/>
    <contour>
      <point x="384" y="625" type="move" name="top"/>
    </contour>
    <contour>
      <point x="291" y="0" type="move" name="bottom"/>
    </contour>
  </outline>
</glyph>
